G04 EAGLE Gerber RS-274X export*
G75*
%MOMM*%
%FSLAX34Y34*%
%LPD*%
%INBottom Copper*%
%IPPOS*%
%AMOC8*
5,1,8,0,0,1.08239X$1,22.5*%
G01*
%ADD10P,2.336880X8X22.500000*%
%ADD11P,1.732040X8X22.500000*%
%ADD12C,1.600200*%
%ADD13P,1.732040X8X202.500000*%
%ADD14C,2.000000*%
%ADD15R,2.000000X2.000000*%
%ADD16R,1.930400X1.930400*%
%ADD17C,1.930400*%
%ADD18R,2.540000X2.540000*%
%ADD19C,2.540000*%
%ADD20R,3.416000X3.416000*%
%ADD21C,3.416000*%
%ADD22R,1.208000X1.208000*%
%ADD23C,1.208000*%
%ADD24R,3.816000X3.816000*%
%ADD25C,3.816000*%
%ADD26C,0.756400*%
%ADD27C,0.254000*%
%ADD28C,0.508000*%

G36*
X311678Y145165D02*
X311678Y145165D01*
X311697Y145163D01*
X311799Y145185D01*
X311901Y145201D01*
X311918Y145211D01*
X311938Y145215D01*
X312027Y145268D01*
X312118Y145317D01*
X312132Y145331D01*
X312149Y145341D01*
X312216Y145420D01*
X312288Y145495D01*
X312296Y145513D01*
X312309Y145528D01*
X312348Y145624D01*
X312391Y145718D01*
X312393Y145738D01*
X312401Y145756D01*
X312419Y145923D01*
X312419Y234989D01*
X312417Y235006D01*
X312418Y235021D01*
X312404Y235087D01*
X312397Y235170D01*
X312385Y235200D01*
X312380Y235232D01*
X312367Y235255D01*
X312366Y235262D01*
X312349Y235291D01*
X312337Y235313D01*
X312301Y235397D01*
X312275Y235429D01*
X312264Y235450D01*
X312241Y235472D01*
X312196Y235528D01*
X300270Y247454D01*
X300196Y247507D01*
X300126Y247567D01*
X300096Y247579D01*
X300070Y247598D01*
X299983Y247625D01*
X299898Y247659D01*
X299857Y247663D01*
X299835Y247670D01*
X299803Y247669D01*
X299731Y247677D01*
X299652Y247677D01*
X297328Y248640D01*
X295549Y250418D01*
X294587Y252742D01*
X294587Y255258D01*
X295549Y257582D01*
X297328Y259360D01*
X299652Y260323D01*
X302167Y260323D01*
X304491Y259360D01*
X306269Y257582D01*
X307232Y255258D01*
X307232Y255178D01*
X307247Y255088D01*
X307254Y254997D01*
X307267Y254967D01*
X307272Y254935D01*
X307315Y254854D01*
X307350Y254771D01*
X307376Y254738D01*
X307387Y254718D01*
X307410Y254696D01*
X307455Y254640D01*
X322581Y239514D01*
X322581Y145923D01*
X322584Y145903D01*
X322582Y145884D01*
X322604Y145782D01*
X322620Y145680D01*
X322630Y145663D01*
X322634Y145643D01*
X322687Y145554D01*
X322736Y145463D01*
X322750Y145449D01*
X322760Y145432D01*
X322839Y145365D01*
X322914Y145293D01*
X322932Y145285D01*
X322947Y145272D01*
X323043Y145233D01*
X323137Y145190D01*
X323157Y145188D01*
X323175Y145180D01*
X323342Y145162D01*
X543680Y145162D01*
X543770Y145176D01*
X543861Y145184D01*
X543891Y145196D01*
X543923Y145201D01*
X544004Y145244D01*
X544087Y145280D01*
X544120Y145306D01*
X544140Y145317D01*
X544162Y145340D01*
X544218Y145385D01*
X565815Y166982D01*
X565868Y167055D01*
X565928Y167125D01*
X565940Y167155D01*
X565959Y167181D01*
X565986Y167268D01*
X566020Y167353D01*
X566024Y167394D01*
X566031Y167416D01*
X566030Y167449D01*
X566038Y167520D01*
X566038Y298958D01*
X566037Y298965D01*
X566037Y298966D01*
X566036Y298972D01*
X566035Y298978D01*
X566037Y298997D01*
X566015Y299099D01*
X565999Y299201D01*
X565989Y299218D01*
X565985Y299238D01*
X565932Y299327D01*
X565883Y299418D01*
X565869Y299432D01*
X565859Y299449D01*
X565780Y299516D01*
X565705Y299588D01*
X565687Y299596D01*
X565672Y299609D01*
X565576Y299648D01*
X565482Y299691D01*
X565462Y299693D01*
X565444Y299701D01*
X565277Y299719D01*
X512176Y299719D01*
X512086Y299705D01*
X511995Y299697D01*
X511966Y299685D01*
X511934Y299680D01*
X511853Y299637D01*
X511769Y299601D01*
X511737Y299575D01*
X511716Y299564D01*
X511694Y299541D01*
X511638Y299496D01*
X511582Y299440D01*
X510890Y299153D01*
X510829Y299116D01*
X510763Y299086D01*
X510725Y299051D01*
X510681Y299024D01*
X510635Y298969D01*
X510582Y298920D01*
X510557Y298874D01*
X510524Y298834D01*
X510498Y298767D01*
X510464Y298704D01*
X510454Y298653D01*
X510436Y298605D01*
X510433Y298533D01*
X510420Y298462D01*
X510427Y298411D01*
X510425Y298359D01*
X510445Y298290D01*
X510456Y298219D01*
X510479Y298173D01*
X510494Y298123D01*
X510535Y298064D01*
X510567Y298000D01*
X510604Y297963D01*
X510634Y297921D01*
X510692Y297878D01*
X510743Y297828D01*
X510806Y297793D01*
X510831Y297774D01*
X510854Y297767D01*
X510890Y297747D01*
X511582Y297460D01*
X513360Y295682D01*
X514323Y293358D01*
X514323Y290842D01*
X513360Y288518D01*
X512034Y287192D01*
X511981Y287118D01*
X511921Y287049D01*
X511909Y287018D01*
X511890Y286992D01*
X511863Y286905D01*
X511829Y286820D01*
X511825Y286779D01*
X511818Y286757D01*
X511819Y286725D01*
X511811Y286654D01*
X511811Y221346D01*
X511825Y221256D01*
X511833Y221165D01*
X511845Y221135D01*
X511850Y221104D01*
X511893Y221023D01*
X511929Y220939D01*
X511955Y220907D01*
X511966Y220886D01*
X511989Y220864D01*
X512034Y220808D01*
X513360Y219482D01*
X514323Y217158D01*
X514323Y214642D01*
X513360Y212318D01*
X512034Y210992D01*
X511981Y210918D01*
X511921Y210849D01*
X511909Y210818D01*
X511890Y210792D01*
X511863Y210705D01*
X511829Y210620D01*
X511825Y210579D01*
X511818Y210557D01*
X511819Y210525D01*
X511811Y210454D01*
X511811Y183246D01*
X511825Y183156D01*
X511833Y183065D01*
X511845Y183036D01*
X511850Y183004D01*
X511893Y182923D01*
X511929Y182839D01*
X511955Y182807D01*
X511966Y182786D01*
X511989Y182764D01*
X512034Y182708D01*
X513360Y181382D01*
X514323Y179058D01*
X514323Y176542D01*
X513360Y174218D01*
X511582Y172440D01*
X509258Y171477D01*
X506742Y171477D01*
X504418Y172440D01*
X502640Y174218D01*
X501677Y176542D01*
X501677Y179058D01*
X502640Y181382D01*
X503966Y182708D01*
X504013Y182773D01*
X504028Y182789D01*
X504031Y182796D01*
X504079Y182851D01*
X504091Y182882D01*
X504110Y182908D01*
X504137Y182995D01*
X504171Y183080D01*
X504175Y183121D01*
X504182Y183143D01*
X504181Y183175D01*
X504189Y183246D01*
X504189Y210454D01*
X504175Y210544D01*
X504167Y210635D01*
X504155Y210664D01*
X504150Y210696D01*
X504107Y210777D01*
X504071Y210861D01*
X504045Y210893D01*
X504034Y210914D01*
X504011Y210936D01*
X503966Y210992D01*
X502640Y212318D01*
X501677Y214642D01*
X501677Y217158D01*
X502640Y219482D01*
X503966Y220808D01*
X504019Y220882D01*
X504079Y220951D01*
X504091Y220981D01*
X504110Y221008D01*
X504137Y221095D01*
X504171Y221180D01*
X504175Y221220D01*
X504182Y221243D01*
X504181Y221275D01*
X504189Y221346D01*
X504189Y286654D01*
X504175Y286744D01*
X504167Y286835D01*
X504155Y286864D01*
X504150Y286896D01*
X504107Y286977D01*
X504071Y287061D01*
X504045Y287093D01*
X504034Y287114D01*
X504011Y287136D01*
X503966Y287192D01*
X502640Y288518D01*
X501677Y290842D01*
X501677Y293358D01*
X502640Y295682D01*
X504418Y297460D01*
X505110Y297747D01*
X505171Y297784D01*
X505237Y297814D01*
X505275Y297849D01*
X505319Y297876D01*
X505365Y297932D01*
X505418Y297980D01*
X505443Y298026D01*
X505476Y298066D01*
X505502Y298133D01*
X505536Y298196D01*
X505546Y298247D01*
X505564Y298295D01*
X505567Y298367D01*
X505580Y298438D01*
X505573Y298489D01*
X505575Y298541D01*
X505555Y298610D01*
X505544Y298681D01*
X505521Y298727D01*
X505506Y298777D01*
X505465Y298836D01*
X505433Y298900D01*
X505396Y298937D01*
X505366Y298979D01*
X505308Y299022D01*
X505257Y299072D01*
X505194Y299107D01*
X505169Y299126D01*
X505146Y299133D01*
X505110Y299153D01*
X504418Y299440D01*
X502640Y301218D01*
X501677Y303542D01*
X501677Y306058D01*
X502640Y308382D01*
X504418Y310160D01*
X506742Y311123D01*
X509258Y311123D01*
X511582Y310160D01*
X511638Y310104D01*
X511712Y310051D01*
X511781Y309991D01*
X511812Y309979D01*
X511838Y309960D01*
X511925Y309933D01*
X512010Y309899D01*
X512051Y309895D01*
X512073Y309888D01*
X512105Y309889D01*
X512176Y309881D01*
X518745Y309881D01*
X518841Y309896D01*
X518938Y309906D01*
X518962Y309916D01*
X518988Y309920D01*
X519074Y309966D01*
X519163Y310006D01*
X519182Y310023D01*
X519206Y310036D01*
X519273Y310106D01*
X519344Y310172D01*
X519357Y310195D01*
X519375Y310214D01*
X519416Y310302D01*
X519463Y310388D01*
X519468Y310413D01*
X519479Y310437D01*
X519489Y310534D01*
X519507Y310630D01*
X519503Y310656D01*
X519506Y310681D01*
X519485Y310777D01*
X519471Y310873D01*
X519459Y310896D01*
X519453Y310922D01*
X519403Y311005D01*
X519359Y311092D01*
X519341Y311111D01*
X519327Y311133D01*
X519253Y311196D01*
X519184Y311264D01*
X519155Y311280D01*
X519140Y311293D01*
X519110Y311305D01*
X519037Y311345D01*
X517118Y312140D01*
X515340Y313918D01*
X514377Y316242D01*
X514377Y318758D01*
X515340Y321082D01*
X516666Y322408D01*
X516719Y322482D01*
X516779Y322551D01*
X516791Y322582D01*
X516810Y322608D01*
X516837Y322695D01*
X516871Y322780D01*
X516875Y322821D01*
X516882Y322843D01*
X516881Y322875D01*
X516889Y322946D01*
X516889Y331778D01*
X538256Y353146D01*
X538309Y353219D01*
X538369Y353289D01*
X538381Y353319D01*
X538400Y353345D01*
X538427Y353432D01*
X538461Y353517D01*
X538465Y353558D01*
X538472Y353580D01*
X538471Y353613D01*
X538479Y353684D01*
X538479Y359044D01*
X538465Y359134D01*
X538457Y359225D01*
X538445Y359254D01*
X538440Y359286D01*
X538397Y359367D01*
X538361Y359451D01*
X538335Y359483D01*
X538324Y359504D01*
X538301Y359526D01*
X538282Y359550D01*
X538278Y359556D01*
X538274Y359560D01*
X538256Y359582D01*
X536930Y360908D01*
X535967Y363232D01*
X535967Y365748D01*
X536930Y368072D01*
X538708Y369850D01*
X541032Y370813D01*
X543548Y370813D01*
X545872Y369850D01*
X547650Y368072D01*
X548613Y365748D01*
X548613Y363232D01*
X547650Y360908D01*
X546324Y359582D01*
X546278Y359519D01*
X546254Y359494D01*
X546250Y359484D01*
X546211Y359439D01*
X546199Y359408D01*
X546180Y359382D01*
X546153Y359295D01*
X546119Y359210D01*
X546115Y359169D01*
X546108Y359147D01*
X546109Y359115D01*
X546101Y359044D01*
X546101Y350212D01*
X524734Y328844D01*
X524681Y328771D01*
X524621Y328701D01*
X524609Y328671D01*
X524590Y328645D01*
X524563Y328558D01*
X524529Y328473D01*
X524525Y328432D01*
X524518Y328410D01*
X524519Y328377D01*
X524511Y328306D01*
X524511Y322946D01*
X524525Y322856D01*
X524533Y322765D01*
X524545Y322736D01*
X524550Y322704D01*
X524593Y322623D01*
X524629Y322539D01*
X524655Y322507D01*
X524666Y322486D01*
X524689Y322464D01*
X524734Y322408D01*
X526060Y321082D01*
X527023Y318758D01*
X527023Y316242D01*
X526060Y313918D01*
X524282Y312140D01*
X522363Y311345D01*
X522280Y311294D01*
X522194Y311248D01*
X522177Y311230D01*
X522154Y311216D01*
X522092Y311140D01*
X522025Y311070D01*
X522014Y311046D01*
X521997Y311026D01*
X521962Y310935D01*
X521921Y310847D01*
X521919Y310821D01*
X521909Y310797D01*
X521905Y310699D01*
X521894Y310603D01*
X521900Y310577D01*
X521899Y310551D01*
X521926Y310457D01*
X521947Y310362D01*
X521960Y310340D01*
X521967Y310315D01*
X522023Y310235D01*
X522073Y310151D01*
X522093Y310134D01*
X522108Y310113D01*
X522186Y310054D01*
X522260Y309991D01*
X522284Y309981D01*
X522305Y309966D01*
X522397Y309936D01*
X522488Y309899D01*
X522520Y309896D01*
X522539Y309890D01*
X522572Y309890D01*
X522655Y309881D01*
X565277Y309881D01*
X565297Y309884D01*
X565316Y309882D01*
X565418Y309904D01*
X565520Y309920D01*
X565537Y309930D01*
X565557Y309934D01*
X565646Y309987D01*
X565737Y310036D01*
X565751Y310050D01*
X565768Y310060D01*
X565835Y310139D01*
X565907Y310214D01*
X565915Y310232D01*
X565928Y310247D01*
X565967Y310343D01*
X566010Y310437D01*
X566012Y310457D01*
X566020Y310475D01*
X566038Y310642D01*
X566038Y327326D01*
X566023Y327422D01*
X566013Y327519D01*
X566003Y327543D01*
X565999Y327568D01*
X565953Y327654D01*
X565913Y327743D01*
X565896Y327763D01*
X565883Y327786D01*
X565813Y327853D01*
X565747Y327924D01*
X565724Y327937D01*
X565705Y327955D01*
X565617Y327996D01*
X565531Y328043D01*
X565506Y328048D01*
X565482Y328059D01*
X565385Y328069D01*
X565289Y328087D01*
X565263Y328083D01*
X565238Y328086D01*
X565142Y328065D01*
X565046Y328051D01*
X565023Y328039D01*
X564997Y328034D01*
X564913Y327984D01*
X564827Y327939D01*
X564809Y327921D01*
X564786Y327907D01*
X564723Y327833D01*
X564655Y327764D01*
X564639Y327735D01*
X564626Y327720D01*
X564614Y327690D01*
X564574Y327617D01*
X564160Y326618D01*
X562382Y324840D01*
X560058Y323877D01*
X557542Y323877D01*
X555218Y324840D01*
X553440Y326618D01*
X552477Y328942D01*
X552477Y331458D01*
X553440Y333782D01*
X554766Y335108D01*
X554819Y335182D01*
X554879Y335251D01*
X554891Y335282D01*
X554910Y335308D01*
X554937Y335395D01*
X554971Y335480D01*
X554975Y335521D01*
X554982Y335543D01*
X554981Y335575D01*
X554989Y335646D01*
X554989Y493406D01*
X554975Y493496D01*
X554967Y493587D01*
X554955Y493617D01*
X554950Y493649D01*
X554907Y493730D01*
X554871Y493814D01*
X554845Y493846D01*
X554834Y493866D01*
X554811Y493889D01*
X554766Y493944D01*
X516889Y531822D01*
X516889Y544246D01*
X516874Y544342D01*
X516864Y544439D01*
X516854Y544463D01*
X516850Y544489D01*
X516804Y544575D01*
X516764Y544664D01*
X516747Y544683D01*
X516734Y544706D01*
X516664Y544774D01*
X516598Y544845D01*
X516575Y544858D01*
X516556Y544876D01*
X516468Y544917D01*
X516382Y544964D01*
X516357Y544968D01*
X516333Y544979D01*
X516236Y544990D01*
X516140Y545008D01*
X516114Y545004D01*
X516089Y545007D01*
X515993Y544986D01*
X515897Y544972D01*
X515874Y544960D01*
X515848Y544954D01*
X515765Y544904D01*
X515678Y544860D01*
X515659Y544842D01*
X515637Y544828D01*
X515574Y544754D01*
X515506Y544685D01*
X515490Y544656D01*
X515477Y544641D01*
X515465Y544611D01*
X515425Y544538D01*
X513629Y540203D01*
X507547Y534121D01*
X499601Y530829D01*
X490999Y530829D01*
X483053Y534121D01*
X476971Y540203D01*
X475175Y544538D01*
X475124Y544621D01*
X475078Y544706D01*
X475059Y544724D01*
X475046Y544747D01*
X474971Y544809D01*
X474900Y544876D01*
X474876Y544887D01*
X474856Y544904D01*
X474765Y544938D01*
X474677Y544979D01*
X474651Y544982D01*
X474627Y544992D01*
X474529Y544996D01*
X474433Y545007D01*
X474407Y545001D01*
X474381Y545002D01*
X474287Y544975D01*
X474192Y544954D01*
X474170Y544941D01*
X474145Y544934D01*
X474065Y544878D01*
X473981Y544828D01*
X473964Y544808D01*
X473943Y544793D01*
X473884Y544715D01*
X473821Y544641D01*
X473811Y544617D01*
X473796Y544596D01*
X473766Y544503D01*
X473729Y544413D01*
X473726Y544381D01*
X473720Y544362D01*
X473720Y544329D01*
X473711Y544246D01*
X473711Y531822D01*
X463746Y521856D01*
X463693Y521783D01*
X463633Y521713D01*
X463621Y521683D01*
X463602Y521657D01*
X463575Y521570D01*
X463541Y521485D01*
X463537Y521444D01*
X463530Y521422D01*
X463531Y521389D01*
X463523Y521318D01*
X463523Y519442D01*
X462560Y517118D01*
X460782Y515340D01*
X458458Y514377D01*
X455942Y514377D01*
X453618Y515340D01*
X451840Y517118D01*
X450877Y519442D01*
X450877Y521958D01*
X451840Y524282D01*
X453618Y526060D01*
X455942Y527023D01*
X457818Y527023D01*
X457908Y527037D01*
X457999Y527045D01*
X458029Y527057D01*
X458061Y527062D01*
X458142Y527105D01*
X458226Y527141D01*
X458258Y527167D01*
X458278Y527178D01*
X458301Y527201D01*
X458356Y527246D01*
X465866Y534756D01*
X465919Y534829D01*
X465979Y534899D01*
X465991Y534929D01*
X466010Y534955D01*
X466037Y535042D01*
X466071Y535127D01*
X466075Y535168D01*
X466082Y535190D01*
X466081Y535223D01*
X466089Y535294D01*
X466089Y544246D01*
X466074Y544342D01*
X466064Y544439D01*
X466054Y544463D01*
X466050Y544489D01*
X466004Y544575D01*
X465964Y544664D01*
X465947Y544683D01*
X465934Y544706D01*
X465864Y544774D01*
X465798Y544845D01*
X465775Y544858D01*
X465756Y544876D01*
X465668Y544917D01*
X465582Y544964D01*
X465557Y544968D01*
X465533Y544979D01*
X465436Y544990D01*
X465340Y545008D01*
X465314Y545004D01*
X465289Y545007D01*
X465193Y544986D01*
X465097Y544972D01*
X465074Y544960D01*
X465048Y544954D01*
X464965Y544904D01*
X464878Y544860D01*
X464859Y544842D01*
X464837Y544828D01*
X464774Y544754D01*
X464706Y544685D01*
X464690Y544656D01*
X464677Y544641D01*
X464665Y544611D01*
X464625Y544538D01*
X462829Y540203D01*
X456747Y534121D01*
X448801Y530829D01*
X440199Y530829D01*
X432253Y534121D01*
X426171Y540203D01*
X422879Y548149D01*
X422879Y556751D01*
X426171Y564697D01*
X432253Y570779D01*
X440199Y574071D01*
X448801Y574071D01*
X456747Y570779D01*
X462829Y564697D01*
X464625Y560362D01*
X464676Y560279D01*
X464722Y560194D01*
X464741Y560176D01*
X464754Y560153D01*
X464829Y560091D01*
X464900Y560024D01*
X464924Y560013D01*
X464944Y559996D01*
X465035Y559962D01*
X465123Y559921D01*
X465149Y559918D01*
X465173Y559908D01*
X465271Y559904D01*
X465367Y559893D01*
X465393Y559899D01*
X465419Y559898D01*
X465513Y559925D01*
X465608Y559946D01*
X465630Y559959D01*
X465655Y559966D01*
X465735Y560022D01*
X465819Y560072D01*
X465836Y560092D01*
X465857Y560107D01*
X465916Y560185D01*
X465979Y560259D01*
X465989Y560283D01*
X466004Y560304D01*
X466034Y560397D01*
X466071Y560487D01*
X466074Y560519D01*
X466080Y560538D01*
X466080Y560571D01*
X466089Y560654D01*
X466089Y579428D01*
X468544Y581884D01*
X476814Y590153D01*
X476882Y590248D01*
X476952Y590342D01*
X476954Y590348D01*
X476958Y590353D01*
X476992Y590464D01*
X477028Y590576D01*
X477028Y590582D01*
X477030Y590588D01*
X477027Y590705D01*
X477026Y590822D01*
X477024Y590829D01*
X477024Y590834D01*
X477017Y590851D01*
X476979Y590983D01*
X473679Y598949D01*
X473679Y607551D01*
X476971Y615497D01*
X483053Y621579D01*
X490999Y624871D01*
X499601Y624871D01*
X507567Y621571D01*
X507681Y621544D01*
X507794Y621516D01*
X507801Y621516D01*
X507807Y621515D01*
X507923Y621526D01*
X508039Y621535D01*
X508045Y621537D01*
X508051Y621538D01*
X508159Y621586D01*
X508266Y621631D01*
X508272Y621636D01*
X508276Y621638D01*
X508290Y621651D01*
X508397Y621736D01*
X527614Y640953D01*
X527656Y641012D01*
X527703Y641061D01*
X527721Y641101D01*
X527752Y641142D01*
X527754Y641148D01*
X527758Y641153D01*
X527781Y641229D01*
X527807Y641284D01*
X527811Y641323D01*
X527828Y641376D01*
X527828Y641382D01*
X527830Y641388D01*
X527828Y641475D01*
X527834Y641529D01*
X527826Y641562D01*
X527826Y641622D01*
X527824Y641629D01*
X527824Y641634D01*
X527817Y641652D01*
X527779Y641783D01*
X524479Y649749D01*
X524479Y658351D01*
X527771Y666297D01*
X533853Y672379D01*
X541799Y675671D01*
X550401Y675671D01*
X558347Y672379D01*
X564429Y666297D01*
X564574Y665948D01*
X564625Y665865D01*
X564671Y665779D01*
X564690Y665761D01*
X564703Y665739D01*
X564778Y665677D01*
X564849Y665610D01*
X564873Y665599D01*
X564893Y665582D01*
X564984Y665547D01*
X565072Y665506D01*
X565098Y665504D01*
X565122Y665494D01*
X565220Y665490D01*
X565316Y665479D01*
X565342Y665485D01*
X565368Y665484D01*
X565462Y665511D01*
X565557Y665532D01*
X565579Y665545D01*
X565604Y665552D01*
X565684Y665608D01*
X565768Y665658D01*
X565785Y665678D01*
X565806Y665693D01*
X565865Y665771D01*
X565928Y665845D01*
X565938Y665869D01*
X565953Y665890D01*
X565983Y665982D01*
X566020Y666073D01*
X566023Y666105D01*
X566029Y666124D01*
X566029Y666157D01*
X566038Y666240D01*
X566038Y716345D01*
X566024Y716435D01*
X566016Y716526D01*
X566004Y716556D01*
X565999Y716588D01*
X565956Y716669D01*
X565920Y716753D01*
X565894Y716785D01*
X565883Y716806D01*
X565860Y716828D01*
X565815Y716884D01*
X562640Y720059D01*
X562582Y720101D01*
X562530Y720150D01*
X562483Y720172D01*
X562441Y720202D01*
X562372Y720223D01*
X562307Y720254D01*
X562255Y720259D01*
X562205Y720275D01*
X562134Y720273D01*
X562063Y720281D01*
X562012Y720270D01*
X561960Y720268D01*
X561892Y720244D01*
X561822Y720228D01*
X561778Y720202D01*
X561729Y720184D01*
X561673Y720139D01*
X561611Y720102D01*
X561577Y720063D01*
X561537Y720030D01*
X561498Y719970D01*
X561451Y719915D01*
X561432Y719867D01*
X561404Y719823D01*
X561386Y719754D01*
X561359Y719687D01*
X561351Y719616D01*
X561343Y719585D01*
X561345Y719561D01*
X561341Y719520D01*
X561341Y712723D01*
X547623Y712723D01*
X547623Y726441D01*
X554420Y726441D01*
X554491Y726452D01*
X554563Y726454D01*
X554612Y726472D01*
X554663Y726480D01*
X554727Y726514D01*
X554794Y726539D01*
X554835Y726571D01*
X554881Y726596D01*
X554930Y726647D01*
X554986Y726692D01*
X555014Y726736D01*
X555050Y726774D01*
X555080Y726839D01*
X555119Y726899D01*
X555132Y726950D01*
X555154Y726997D01*
X555161Y727068D01*
X555179Y727138D01*
X555175Y727190D01*
X555181Y727241D01*
X555165Y727312D01*
X555160Y727383D01*
X555140Y727431D01*
X555128Y727482D01*
X555092Y727543D01*
X555064Y727609D01*
X555019Y727665D01*
X555002Y727693D01*
X554984Y727708D01*
X554959Y727740D01*
X526384Y756315D01*
X526310Y756368D01*
X526240Y756428D01*
X526210Y756440D01*
X526184Y756459D01*
X526097Y756486D01*
X526012Y756520D01*
X525971Y756524D01*
X525949Y756531D01*
X525917Y756530D01*
X525845Y756538D01*
X357639Y756538D01*
X357549Y756524D01*
X357458Y756516D01*
X357428Y756504D01*
X357396Y756499D01*
X357315Y756456D01*
X357232Y756420D01*
X357199Y756394D01*
X357179Y756383D01*
X357157Y756360D01*
X357101Y756315D01*
X342964Y742178D01*
X342911Y742105D01*
X342851Y742035D01*
X342839Y742005D01*
X342820Y741979D01*
X342793Y741892D01*
X342759Y741807D01*
X342755Y741766D01*
X342748Y741744D01*
X342749Y741711D01*
X342741Y741640D01*
X342741Y731560D01*
X342755Y731470D01*
X342763Y731379D01*
X342775Y731349D01*
X342780Y731317D01*
X342823Y731236D01*
X342859Y731153D01*
X342885Y731120D01*
X342896Y731100D01*
X342919Y731078D01*
X342964Y731022D01*
X367508Y706477D01*
X367566Y706436D01*
X367618Y706386D01*
X367665Y706364D01*
X367707Y706334D01*
X367776Y706313D01*
X367841Y706283D01*
X367893Y706277D01*
X367943Y706262D01*
X368014Y706263D01*
X368085Y706256D01*
X368136Y706267D01*
X368188Y706268D01*
X368256Y706293D01*
X368326Y706308D01*
X368371Y706335D01*
X368419Y706352D01*
X368475Y706397D01*
X368537Y706434D01*
X368571Y706474D01*
X368611Y706506D01*
X368650Y706566D01*
X368697Y706621D01*
X368716Y706669D01*
X368744Y706713D01*
X368762Y706782D01*
X368789Y706849D01*
X368797Y706920D01*
X368805Y706952D01*
X368803Y706975D01*
X368807Y707016D01*
X368807Y709204D01*
X370296Y710693D01*
X391704Y710693D01*
X393193Y709204D01*
X393193Y687796D01*
X391704Y686307D01*
X384615Y686307D01*
X384611Y686307D01*
X384607Y686307D01*
X384488Y686286D01*
X384372Y686268D01*
X384369Y686266D01*
X384365Y686265D01*
X384259Y686208D01*
X384155Y686152D01*
X384152Y686150D01*
X384149Y686148D01*
X384068Y686060D01*
X383986Y685974D01*
X383984Y685970D01*
X383981Y685968D01*
X383932Y685859D01*
X383882Y685751D01*
X383881Y685747D01*
X383880Y685743D01*
X383868Y685623D01*
X383855Y685507D01*
X383856Y685503D01*
X383855Y685499D01*
X383882Y685383D01*
X383907Y685266D01*
X383909Y685263D01*
X383910Y685259D01*
X383972Y685158D01*
X384033Y685055D01*
X384036Y685053D01*
X384038Y685049D01*
X384130Y684972D01*
X384220Y684895D01*
X384224Y684894D01*
X384227Y684891D01*
X384380Y684822D01*
X385680Y684399D01*
X387390Y683528D01*
X388943Y682400D01*
X390300Y681043D01*
X391428Y679490D01*
X392299Y677780D01*
X392893Y675955D01*
X393103Y674623D01*
X381762Y674623D01*
X381742Y674620D01*
X381723Y674622D01*
X381621Y674600D01*
X381519Y674583D01*
X381502Y674574D01*
X381482Y674570D01*
X381393Y674517D01*
X381302Y674468D01*
X381288Y674454D01*
X381271Y674444D01*
X381204Y674365D01*
X381133Y674290D01*
X381124Y674272D01*
X381111Y674257D01*
X381073Y674161D01*
X381029Y674067D01*
X381027Y674047D01*
X381019Y674029D01*
X381001Y673862D01*
X381001Y672338D01*
X381004Y672318D01*
X381002Y672299D01*
X381024Y672197D01*
X381041Y672095D01*
X381050Y672078D01*
X381054Y672058D01*
X381107Y671969D01*
X381156Y671878D01*
X381170Y671864D01*
X381180Y671847D01*
X381259Y671780D01*
X381334Y671709D01*
X381352Y671700D01*
X381367Y671687D01*
X381463Y671648D01*
X381557Y671605D01*
X381577Y671603D01*
X381595Y671595D01*
X381762Y671577D01*
X393103Y671577D01*
X392893Y670245D01*
X392299Y668420D01*
X392160Y668145D01*
X392158Y668141D01*
X392156Y668138D01*
X392121Y668024D01*
X392085Y667911D01*
X392085Y667907D01*
X392084Y667903D01*
X392087Y667784D01*
X392089Y667665D01*
X392090Y667661D01*
X392090Y667657D01*
X392131Y667545D01*
X392171Y667433D01*
X392173Y667430D01*
X392175Y667426D01*
X392249Y667334D01*
X392322Y667240D01*
X392326Y667237D01*
X392328Y667234D01*
X392429Y667170D01*
X392528Y667104D01*
X392532Y667103D01*
X392535Y667101D01*
X392650Y667072D01*
X392766Y667042D01*
X392770Y667042D01*
X392774Y667041D01*
X392891Y667050D01*
X393011Y667059D01*
X393015Y667060D01*
X393019Y667060D01*
X393127Y667106D01*
X393239Y667152D01*
X393242Y667155D01*
X393245Y667157D01*
X393376Y667261D01*
X430371Y704256D01*
X430439Y704351D01*
X430509Y704445D01*
X430511Y704451D01*
X430515Y704456D01*
X430549Y704567D01*
X430585Y704679D01*
X430585Y704685D01*
X430587Y704691D01*
X430584Y704808D01*
X430583Y704925D01*
X430581Y704932D01*
X430581Y704937D01*
X430574Y704955D01*
X430536Y705086D01*
X429259Y708168D01*
X429259Y714232D01*
X431580Y719833D01*
X435867Y724120D01*
X441468Y726441D01*
X447532Y726441D01*
X453133Y724120D01*
X457420Y719833D01*
X459741Y714232D01*
X459741Y708168D01*
X457420Y702567D01*
X453133Y698280D01*
X447532Y695959D01*
X441468Y695959D01*
X438386Y697236D01*
X438272Y697263D01*
X438159Y697291D01*
X438153Y697291D01*
X438146Y697292D01*
X438030Y697281D01*
X437914Y697272D01*
X437908Y697270D01*
X437902Y697269D01*
X437794Y697221D01*
X437687Y697176D01*
X437681Y697171D01*
X437677Y697169D01*
X437663Y697156D01*
X437556Y697071D01*
X392796Y652311D01*
X392728Y652216D01*
X392658Y652122D01*
X392656Y652116D01*
X392653Y652111D01*
X392618Y652000D01*
X392582Y651888D01*
X392582Y651882D01*
X392580Y651876D01*
X392583Y651759D01*
X392584Y651642D01*
X392586Y651635D01*
X392587Y651630D01*
X392593Y651613D01*
X392631Y651481D01*
X393193Y650125D01*
X393193Y645275D01*
X391336Y640793D01*
X387907Y637364D01*
X383425Y635507D01*
X378575Y635507D01*
X374093Y637364D01*
X370664Y640793D01*
X370102Y642149D01*
X370040Y642249D01*
X369980Y642349D01*
X369976Y642353D01*
X369972Y642358D01*
X369882Y642433D01*
X369793Y642509D01*
X369788Y642511D01*
X369783Y642515D01*
X369674Y642557D01*
X369565Y642601D01*
X369558Y642602D01*
X369553Y642603D01*
X369535Y642604D01*
X369399Y642619D01*
X264595Y642619D01*
X261396Y645818D01*
X175918Y731296D01*
X175845Y731349D01*
X175775Y731409D01*
X175745Y731421D01*
X175719Y731440D01*
X175632Y731467D01*
X175547Y731501D01*
X175506Y731505D01*
X175484Y731512D01*
X175451Y731511D01*
X175380Y731519D01*
X120142Y731519D01*
X120122Y731516D01*
X120103Y731518D01*
X120001Y731496D01*
X119899Y731480D01*
X119882Y731470D01*
X119862Y731466D01*
X119773Y731413D01*
X119682Y731364D01*
X119668Y731350D01*
X119651Y731340D01*
X119584Y731261D01*
X119512Y731186D01*
X119504Y731168D01*
X119491Y731153D01*
X119452Y731057D01*
X119409Y730963D01*
X119407Y730943D01*
X119399Y730925D01*
X119381Y730758D01*
X119381Y701046D01*
X119395Y700956D01*
X119403Y700865D01*
X119415Y700835D01*
X119420Y700803D01*
X119463Y700723D01*
X119499Y700639D01*
X119525Y700606D01*
X119536Y700586D01*
X119559Y700564D01*
X119604Y700508D01*
X123160Y696952D01*
X123218Y696910D01*
X123270Y696860D01*
X123317Y696838D01*
X123359Y696808D01*
X123428Y696787D01*
X123493Y696757D01*
X123545Y696751D01*
X123595Y696736D01*
X123666Y696738D01*
X123737Y696730D01*
X123788Y696741D01*
X123840Y696742D01*
X123908Y696767D01*
X123978Y696782D01*
X124023Y696809D01*
X124071Y696826D01*
X124127Y696871D01*
X124189Y696908D01*
X124223Y696948D01*
X124263Y696980D01*
X124302Y697040D01*
X124349Y697095D01*
X124368Y697143D01*
X124396Y697187D01*
X124414Y697257D01*
X124441Y697323D01*
X124449Y697394D01*
X124457Y697426D01*
X124455Y697449D01*
X124459Y697490D01*
X124459Y724952D01*
X125948Y726441D01*
X153452Y726441D01*
X154941Y724952D01*
X154941Y697448D01*
X153452Y695959D01*
X125990Y695959D01*
X125919Y695948D01*
X125847Y695946D01*
X125798Y695928D01*
X125747Y695920D01*
X125684Y695886D01*
X125616Y695861D01*
X125576Y695829D01*
X125530Y695804D01*
X125480Y695752D01*
X125424Y695708D01*
X125396Y695664D01*
X125360Y695626D01*
X125330Y695561D01*
X125291Y695501D01*
X125279Y695450D01*
X125257Y695403D01*
X125249Y695332D01*
X125231Y695262D01*
X125235Y695210D01*
X125230Y695159D01*
X125245Y695088D01*
X125250Y695017D01*
X125271Y694969D01*
X125282Y694918D01*
X125319Y694857D01*
X125347Y694791D01*
X125392Y694735D01*
X125408Y694707D01*
X125426Y694692D01*
X125452Y694660D01*
X127601Y692511D01*
X127601Y680000D01*
X127615Y679910D01*
X127623Y679819D01*
X127635Y679789D01*
X127640Y679757D01*
X127683Y679676D01*
X127719Y679593D01*
X127745Y679560D01*
X127756Y679540D01*
X127779Y679518D01*
X127824Y679462D01*
X136353Y670932D01*
X136447Y670865D01*
X136541Y670794D01*
X136547Y670793D01*
X136552Y670789D01*
X136663Y670755D01*
X136775Y670718D01*
X136782Y670718D01*
X136788Y670717D01*
X136904Y670720D01*
X137021Y670721D01*
X137028Y670723D01*
X137033Y670723D01*
X137051Y670729D01*
X137182Y670767D01*
X137603Y670942D01*
X141797Y670942D01*
X145671Y669337D01*
X148637Y666371D01*
X150242Y662497D01*
X150242Y658303D01*
X148637Y654429D01*
X145671Y651463D01*
X141797Y649858D01*
X137603Y649858D01*
X133729Y651463D01*
X130763Y654429D01*
X129158Y658303D01*
X129158Y662497D01*
X129333Y662918D01*
X129359Y663031D01*
X129388Y663145D01*
X129387Y663151D01*
X129389Y663157D01*
X129378Y663274D01*
X129369Y663390D01*
X129366Y663396D01*
X129366Y663402D01*
X129318Y663510D01*
X129272Y663616D01*
X129268Y663622D01*
X129266Y663627D01*
X129253Y663641D01*
X129168Y663747D01*
X120638Y672276D01*
X117439Y675475D01*
X117439Y677875D01*
X117432Y677920D01*
X117434Y677966D01*
X117412Y678041D01*
X117400Y678117D01*
X117378Y678158D01*
X117365Y678202D01*
X117321Y678266D01*
X117284Y678335D01*
X117251Y678366D01*
X117225Y678404D01*
X117162Y678450D01*
X117106Y678504D01*
X117064Y678523D01*
X117028Y678551D01*
X116954Y678575D01*
X116883Y678608D01*
X116837Y678613D01*
X116794Y678627D01*
X116716Y678626D01*
X116639Y678635D01*
X116594Y678625D01*
X116548Y678625D01*
X116416Y678586D01*
X116398Y678582D01*
X116394Y678580D01*
X116387Y678578D01*
X113107Y677219D01*
X109693Y677219D01*
X106539Y678526D01*
X104438Y680627D01*
X104422Y680638D01*
X104410Y680654D01*
X104322Y680710D01*
X104239Y680770D01*
X104220Y680776D01*
X104203Y680787D01*
X104102Y680812D01*
X104003Y680843D01*
X103984Y680842D01*
X103964Y680847D01*
X103861Y680839D01*
X103758Y680836D01*
X103739Y680829D01*
X103719Y680828D01*
X103624Y680787D01*
X103527Y680752D01*
X103511Y680739D01*
X103493Y680732D01*
X103362Y680627D01*
X101261Y678526D01*
X98107Y677219D01*
X94693Y677219D01*
X91539Y678526D01*
X89438Y680627D01*
X89422Y680638D01*
X89410Y680654D01*
X89322Y680710D01*
X89239Y680770D01*
X89220Y680776D01*
X89203Y680787D01*
X89102Y680812D01*
X89003Y680843D01*
X88984Y680842D01*
X88964Y680847D01*
X88861Y680839D01*
X88758Y680836D01*
X88739Y680829D01*
X88719Y680828D01*
X88624Y680787D01*
X88527Y680752D01*
X88511Y680739D01*
X88493Y680732D01*
X88362Y680627D01*
X86261Y678526D01*
X83107Y677219D01*
X80822Y677219D01*
X80802Y677216D01*
X80783Y677218D01*
X80681Y677196D01*
X80579Y677180D01*
X80562Y677170D01*
X80542Y677166D01*
X80453Y677113D01*
X80362Y677064D01*
X80348Y677050D01*
X80331Y677040D01*
X80264Y676961D01*
X80192Y676886D01*
X80184Y676868D01*
X80171Y676853D01*
X80132Y676757D01*
X80089Y676663D01*
X80087Y676643D01*
X80079Y676625D01*
X80079Y676622D01*
X74618Y671160D01*
X74576Y671102D01*
X74526Y671050D01*
X74504Y671003D01*
X74474Y670961D01*
X74453Y670892D01*
X74423Y670827D01*
X74417Y670775D01*
X74402Y670725D01*
X74404Y670654D01*
X74396Y670583D01*
X74407Y670532D01*
X74408Y670480D01*
X74433Y670412D01*
X74448Y670342D01*
X74475Y670297D01*
X74492Y670249D01*
X74537Y670193D01*
X74574Y670131D01*
X74614Y670097D01*
X74646Y670057D01*
X74706Y670018D01*
X74761Y669971D01*
X74809Y669952D01*
X74853Y669924D01*
X74923Y669906D01*
X74989Y669879D01*
X75060Y669871D01*
X75092Y669863D01*
X75115Y669865D01*
X75156Y669861D01*
X107032Y669861D01*
X108521Y668372D01*
X108521Y632108D01*
X107032Y630619D01*
X70768Y630619D01*
X69279Y632108D01*
X69279Y663984D01*
X69268Y664055D01*
X69266Y664127D01*
X69248Y664176D01*
X69240Y664227D01*
X69206Y664290D01*
X69181Y664358D01*
X69149Y664398D01*
X69124Y664444D01*
X69072Y664494D01*
X69028Y664550D01*
X68984Y664578D01*
X68946Y664614D01*
X68881Y664644D01*
X68821Y664683D01*
X68770Y664695D01*
X68723Y664717D01*
X68652Y664725D01*
X68582Y664743D01*
X68530Y664739D01*
X68479Y664744D01*
X68408Y664729D01*
X68337Y664724D01*
X68289Y664703D01*
X68238Y664692D01*
X68177Y664655D01*
X68111Y664627D01*
X68055Y664582D01*
X68027Y664566D01*
X68012Y664548D01*
X67980Y664522D01*
X16734Y613276D01*
X16681Y613202D01*
X16621Y613133D01*
X16609Y613103D01*
X16590Y613077D01*
X16563Y612990D01*
X16529Y612905D01*
X16525Y612864D01*
X16518Y612842D01*
X16519Y612809D01*
X16511Y612738D01*
X16511Y304934D01*
X16522Y304863D01*
X16524Y304791D01*
X16542Y304742D01*
X16550Y304691D01*
X16584Y304628D01*
X16609Y304560D01*
X16641Y304520D01*
X16666Y304474D01*
X16717Y304424D01*
X16762Y304368D01*
X16806Y304340D01*
X16844Y304304D01*
X16909Y304274D01*
X16969Y304235D01*
X17020Y304223D01*
X17067Y304201D01*
X17138Y304193D01*
X17208Y304175D01*
X17260Y304179D01*
X17311Y304174D01*
X17382Y304189D01*
X17453Y304194D01*
X17501Y304215D01*
X17552Y304226D01*
X17613Y304263D01*
X17679Y304291D01*
X17735Y304335D01*
X17763Y304352D01*
X17778Y304370D01*
X17810Y304395D01*
X18854Y305440D01*
X18907Y305513D01*
X18967Y305583D01*
X18979Y305613D01*
X18998Y305639D01*
X19025Y305726D01*
X19059Y305811D01*
X19063Y305852D01*
X19070Y305874D01*
X19069Y305907D01*
X19077Y305978D01*
X19077Y306058D01*
X20040Y308382D01*
X21818Y310160D01*
X24142Y311123D01*
X26658Y311123D01*
X28982Y310160D01*
X30760Y308382D01*
X31723Y306058D01*
X31723Y303542D01*
X30760Y301218D01*
X28982Y299440D01*
X26658Y298477D01*
X26578Y298477D01*
X26488Y298463D01*
X26397Y298455D01*
X26367Y298443D01*
X26335Y298438D01*
X26254Y298395D01*
X26170Y298359D01*
X26138Y298333D01*
X26118Y298322D01*
X26095Y298299D01*
X26040Y298254D01*
X24354Y296568D01*
X24301Y296495D01*
X24241Y296425D01*
X24229Y296395D01*
X24210Y296369D01*
X24183Y296282D01*
X24149Y296197D01*
X24145Y296156D01*
X24138Y296134D01*
X24139Y296101D01*
X24131Y296030D01*
X24131Y211970D01*
X24145Y211880D01*
X24153Y211789D01*
X24165Y211759D01*
X24170Y211727D01*
X24213Y211646D01*
X24249Y211562D01*
X24275Y211530D01*
X24286Y211510D01*
X24309Y211487D01*
X24354Y211432D01*
X39982Y195804D01*
X40055Y195751D01*
X40125Y195691D01*
X40155Y195679D01*
X40181Y195660D01*
X40268Y195633D01*
X40353Y195599D01*
X40394Y195595D01*
X40416Y195588D01*
X40449Y195589D01*
X40520Y195581D01*
X205305Y195581D01*
X255501Y145385D01*
X255574Y145332D01*
X255644Y145272D01*
X255674Y145260D01*
X255700Y145241D01*
X255787Y145214D01*
X255872Y145180D01*
X255913Y145176D01*
X255935Y145169D01*
X255968Y145170D01*
X256039Y145162D01*
X311658Y145162D01*
X311678Y145165D01*
G37*
G36*
X11413Y618956D02*
X11413Y618956D01*
X11484Y618961D01*
X11532Y618982D01*
X11583Y618993D01*
X11644Y619029D01*
X11710Y619058D01*
X11766Y619102D01*
X11794Y619119D01*
X11809Y619137D01*
X11841Y619162D01*
X68599Y675920D01*
X68640Y675978D01*
X68690Y676030D01*
X68712Y676077D01*
X68742Y676119D01*
X68763Y676188D01*
X68794Y676253D01*
X68799Y676305D01*
X68815Y676355D01*
X68813Y676426D01*
X68821Y676497D01*
X68810Y676548D01*
X68808Y676600D01*
X68784Y676668D01*
X68768Y676738D01*
X68742Y676782D01*
X68724Y676831D01*
X68679Y676887D01*
X68642Y676949D01*
X68603Y676983D01*
X68570Y677023D01*
X68510Y677062D01*
X68455Y677109D01*
X68407Y677128D01*
X68363Y677156D01*
X68294Y677174D01*
X68227Y677201D01*
X68156Y677209D01*
X68125Y677217D01*
X68101Y677215D01*
X68060Y677219D01*
X59308Y677219D01*
X57819Y678708D01*
X57819Y692892D01*
X59308Y694381D01*
X73492Y694381D01*
X75131Y692742D01*
X75147Y692731D01*
X75159Y692715D01*
X75247Y692659D01*
X75330Y692599D01*
X75349Y692593D01*
X75366Y692582D01*
X75467Y692557D01*
X75566Y692526D01*
X75586Y692527D01*
X75605Y692522D01*
X75708Y692530D01*
X75811Y692533D01*
X75830Y692540D01*
X75850Y692541D01*
X75945Y692582D01*
X76042Y692617D01*
X76058Y692630D01*
X76076Y692638D01*
X76207Y692742D01*
X76539Y693074D01*
X79693Y694381D01*
X83107Y694381D01*
X86261Y693074D01*
X88362Y690973D01*
X88378Y690962D01*
X88390Y690946D01*
X88478Y690890D01*
X88561Y690830D01*
X88580Y690824D01*
X88597Y690813D01*
X88698Y690788D01*
X88797Y690757D01*
X88816Y690758D01*
X88836Y690753D01*
X88939Y690761D01*
X89042Y690764D01*
X89061Y690771D01*
X89081Y690772D01*
X89176Y690813D01*
X89273Y690848D01*
X89289Y690861D01*
X89307Y690868D01*
X89438Y690973D01*
X91539Y693074D01*
X94693Y694381D01*
X98107Y694381D01*
X101261Y693074D01*
X103362Y690973D01*
X103378Y690962D01*
X103390Y690946D01*
X103478Y690890D01*
X103561Y690830D01*
X103580Y690824D01*
X103597Y690813D01*
X103698Y690788D01*
X103797Y690757D01*
X103816Y690758D01*
X103836Y690753D01*
X103939Y690761D01*
X104042Y690764D01*
X104061Y690771D01*
X104081Y690772D01*
X104176Y690813D01*
X104273Y690848D01*
X104289Y690861D01*
X104307Y690868D01*
X104438Y690973D01*
X106539Y693074D01*
X109819Y694433D01*
X109858Y694457D01*
X109901Y694473D01*
X109962Y694521D01*
X110028Y694563D01*
X110058Y694598D01*
X110093Y694627D01*
X110136Y694692D01*
X110185Y694752D01*
X110202Y694795D01*
X110226Y694834D01*
X110245Y694909D01*
X110273Y694982D01*
X110275Y695028D01*
X110287Y695072D01*
X110281Y695150D01*
X110284Y695227D01*
X110271Y695272D01*
X110267Y695317D01*
X110237Y695389D01*
X110215Y695464D01*
X110189Y695501D01*
X110171Y695544D01*
X110086Y695650D01*
X110075Y695666D01*
X110071Y695669D01*
X110066Y695675D01*
X109219Y696522D01*
X109219Y730758D01*
X109216Y730778D01*
X109218Y730797D01*
X109196Y730899D01*
X109180Y731001D01*
X109170Y731018D01*
X109166Y731038D01*
X109113Y731127D01*
X109064Y731218D01*
X109050Y731232D01*
X109040Y731249D01*
X108961Y731316D01*
X108886Y731388D01*
X108868Y731396D01*
X108853Y731409D01*
X108757Y731448D01*
X108663Y731491D01*
X108643Y731493D01*
X108625Y731501D01*
X108458Y731519D01*
X65920Y731519D01*
X65830Y731505D01*
X65739Y731497D01*
X65709Y731485D01*
X65677Y731480D01*
X65596Y731437D01*
X65513Y731401D01*
X65480Y731375D01*
X65460Y731364D01*
X65438Y731341D01*
X65382Y731296D01*
X52229Y718144D01*
X52186Y718084D01*
X52147Y718042D01*
X52131Y718009D01*
X52091Y717955D01*
X52089Y717949D01*
X52085Y717944D01*
X52055Y717845D01*
X52043Y717819D01*
X52041Y717801D01*
X52015Y717721D01*
X52015Y717715D01*
X52013Y717709D01*
X52016Y717592D01*
X52016Y717578D01*
X52016Y717575D01*
X52016Y717573D01*
X52017Y717475D01*
X52019Y717468D01*
X52019Y717463D01*
X52026Y717446D01*
X52064Y717314D01*
X53341Y714232D01*
X53341Y708168D01*
X51020Y702567D01*
X46733Y698280D01*
X41132Y695959D01*
X35068Y695959D01*
X29467Y698280D01*
X25180Y702567D01*
X22859Y708168D01*
X22859Y714232D01*
X25180Y719833D01*
X29467Y724120D01*
X35068Y726441D01*
X41132Y726441D01*
X44214Y725164D01*
X44328Y725137D01*
X44441Y725109D01*
X44447Y725109D01*
X44454Y725108D01*
X44570Y725119D01*
X44686Y725128D01*
X44692Y725130D01*
X44698Y725131D01*
X44806Y725179D01*
X44913Y725224D01*
X44919Y725229D01*
X44923Y725231D01*
X44937Y725244D01*
X45044Y725329D01*
X58196Y738482D01*
X61395Y741681D01*
X179905Y741681D01*
X268582Y653004D01*
X268655Y652951D01*
X268725Y652891D01*
X268755Y652879D01*
X268781Y652860D01*
X268868Y652833D01*
X268953Y652799D01*
X268994Y652795D01*
X269016Y652788D01*
X269049Y652789D01*
X269120Y652781D01*
X369399Y652781D01*
X369513Y652800D01*
X369629Y652817D01*
X369635Y652819D01*
X369641Y652820D01*
X369744Y652875D01*
X369849Y652928D01*
X369853Y652933D01*
X369859Y652936D01*
X369939Y653020D01*
X370021Y653104D01*
X370025Y653110D01*
X370028Y653114D01*
X370036Y653131D01*
X370102Y653251D01*
X370664Y654607D01*
X374093Y658036D01*
X378258Y659762D01*
X378312Y659795D01*
X378370Y659819D01*
X378400Y659845D01*
X378433Y659863D01*
X378448Y659879D01*
X378467Y659891D01*
X378508Y659940D01*
X378555Y659982D01*
X378575Y660016D01*
X378600Y660043D01*
X378609Y660063D01*
X378624Y660081D01*
X378647Y660140D01*
X378678Y660194D01*
X378686Y660234D01*
X378702Y660268D01*
X378704Y660288D01*
X378712Y660310D01*
X378715Y660373D01*
X378728Y660435D01*
X378723Y660475D01*
X378726Y660512D01*
X378722Y660533D01*
X378723Y660556D01*
X378705Y660617D01*
X378697Y660680D01*
X378680Y660716D01*
X378672Y660752D01*
X378661Y660770D01*
X378654Y660792D01*
X378618Y660844D01*
X378591Y660901D01*
X378563Y660930D01*
X378543Y660962D01*
X378527Y660976D01*
X378514Y660994D01*
X378463Y661032D01*
X378419Y661077D01*
X378384Y661095D01*
X378355Y661120D01*
X378330Y661131D01*
X378317Y661141D01*
X378285Y661152D01*
X378202Y661189D01*
X378201Y661189D01*
X378200Y661190D01*
X376320Y661801D01*
X374610Y662672D01*
X373057Y663800D01*
X371700Y665157D01*
X370572Y666710D01*
X369701Y668420D01*
X369107Y670245D01*
X368897Y671577D01*
X380238Y671577D01*
X380258Y671580D01*
X380277Y671578D01*
X380379Y671600D01*
X380481Y671617D01*
X380498Y671626D01*
X380518Y671630D01*
X380607Y671683D01*
X380698Y671732D01*
X380712Y671746D01*
X380729Y671756D01*
X380796Y671835D01*
X380867Y671910D01*
X380876Y671928D01*
X380889Y671943D01*
X380927Y672039D01*
X380971Y672133D01*
X380973Y672153D01*
X380981Y672171D01*
X380999Y672338D01*
X380999Y673862D01*
X380996Y673882D01*
X380998Y673901D01*
X380976Y674003D01*
X380959Y674105D01*
X380950Y674122D01*
X380946Y674142D01*
X380893Y674231D01*
X380844Y674322D01*
X380830Y674336D01*
X380820Y674353D01*
X380741Y674420D01*
X380666Y674491D01*
X380648Y674500D01*
X380633Y674513D01*
X380537Y674552D01*
X380443Y674595D01*
X380423Y674597D01*
X380405Y674605D01*
X380238Y674623D01*
X368897Y674623D01*
X369107Y675955D01*
X369701Y677780D01*
X370572Y679490D01*
X371700Y681043D01*
X373057Y682400D01*
X374610Y683528D01*
X376320Y684399D01*
X377620Y684822D01*
X377624Y684824D01*
X377628Y684825D01*
X377732Y684880D01*
X377839Y684935D01*
X377842Y684938D01*
X377845Y684940D01*
X377927Y685026D01*
X378010Y685111D01*
X378012Y685115D01*
X378014Y685118D01*
X378065Y685226D01*
X378116Y685333D01*
X378116Y685337D01*
X378118Y685341D01*
X378131Y685458D01*
X378146Y685578D01*
X378145Y685582D01*
X378145Y685585D01*
X378120Y685703D01*
X378096Y685818D01*
X378094Y685822D01*
X378093Y685826D01*
X378031Y685929D01*
X377972Y686031D01*
X377969Y686034D01*
X377967Y686037D01*
X377875Y686115D01*
X377787Y686193D01*
X377783Y686194D01*
X377780Y686197D01*
X377668Y686242D01*
X377559Y686287D01*
X377555Y686287D01*
X377552Y686289D01*
X377385Y686307D01*
X370296Y686307D01*
X368807Y687796D01*
X368807Y692658D01*
X368804Y692678D01*
X368806Y692697D01*
X368784Y692799D01*
X368768Y692901D01*
X368758Y692918D01*
X368754Y692938D01*
X368701Y693027D01*
X368652Y693118D01*
X368638Y693132D01*
X368628Y693149D01*
X368549Y693216D01*
X368474Y693288D01*
X368456Y693296D01*
X368441Y693309D01*
X368345Y693348D01*
X368251Y693391D01*
X368231Y693393D01*
X368213Y693401D01*
X368046Y693419D01*
X366195Y693419D01*
X335778Y723836D01*
X335705Y723889D01*
X335635Y723949D01*
X335605Y723961D01*
X335579Y723980D01*
X335492Y724007D01*
X335407Y724041D01*
X335366Y724045D01*
X335344Y724052D01*
X335311Y724051D01*
X335240Y724059D01*
X319148Y724059D01*
X317659Y725548D01*
X317659Y747652D01*
X319148Y749141D01*
X335240Y749141D01*
X335330Y749155D01*
X335421Y749163D01*
X335451Y749175D01*
X335483Y749180D01*
X335564Y749223D01*
X335648Y749259D01*
X335680Y749285D01*
X335700Y749296D01*
X335723Y749319D01*
X335778Y749364D01*
X349274Y762859D01*
X349315Y762917D01*
X349365Y762969D01*
X349387Y763016D01*
X349417Y763058D01*
X349438Y763127D01*
X349468Y763192D01*
X349474Y763244D01*
X349489Y763294D01*
X349488Y763365D01*
X349495Y763436D01*
X349484Y763487D01*
X349483Y763539D01*
X349458Y763607D01*
X349443Y763677D01*
X349417Y763721D01*
X349399Y763770D01*
X349354Y763826D01*
X349317Y763888D01*
X349277Y763922D01*
X349245Y763962D01*
X349185Y764001D01*
X349130Y764048D01*
X349082Y764067D01*
X349038Y764095D01*
X348969Y764113D01*
X348902Y764140D01*
X348831Y764148D01*
X348799Y764156D01*
X348776Y764154D01*
X348735Y764158D01*
X30082Y764158D01*
X29992Y764144D01*
X29901Y764136D01*
X29871Y764124D01*
X29839Y764119D01*
X29758Y764076D01*
X29675Y764040D01*
X29642Y764014D01*
X29622Y764003D01*
X29600Y763980D01*
X29544Y763935D01*
X10765Y745156D01*
X10712Y745082D01*
X10652Y745013D01*
X10640Y744983D01*
X10621Y744957D01*
X10594Y744870D01*
X10560Y744785D01*
X10556Y744744D01*
X10549Y744722D01*
X10550Y744689D01*
X10542Y744618D01*
X10542Y619701D01*
X10553Y619630D01*
X10555Y619558D01*
X10573Y619509D01*
X10581Y619458D01*
X10615Y619395D01*
X10640Y619327D01*
X10672Y619286D01*
X10697Y619240D01*
X10748Y619191D01*
X10793Y619135D01*
X10837Y619107D01*
X10875Y619071D01*
X10940Y619041D01*
X11000Y619002D01*
X11051Y618989D01*
X11098Y618967D01*
X11169Y618960D01*
X11239Y618942D01*
X11291Y618946D01*
X11342Y618940D01*
X11413Y618956D01*
G37*
%LPC*%
G36*
X290842Y355627D02*
X290842Y355627D01*
X288518Y356590D01*
X286740Y358368D01*
X285777Y360692D01*
X285777Y362568D01*
X285763Y362658D01*
X285755Y362749D01*
X285743Y362779D01*
X285738Y362811D01*
X285695Y362892D01*
X285659Y362976D01*
X285633Y363008D01*
X285622Y363028D01*
X285599Y363051D01*
X285554Y363106D01*
X271779Y376882D01*
X271779Y531252D01*
X271768Y531323D01*
X271766Y531395D01*
X271748Y531444D01*
X271740Y531495D01*
X271706Y531558D01*
X271681Y531626D01*
X271649Y531666D01*
X271624Y531712D01*
X271572Y531762D01*
X271528Y531818D01*
X271484Y531846D01*
X271446Y531882D01*
X271381Y531912D01*
X271321Y531951D01*
X271270Y531963D01*
X271223Y531985D01*
X271152Y531993D01*
X271082Y532011D01*
X271030Y532007D01*
X270979Y532012D01*
X270908Y531997D01*
X270837Y531992D01*
X270789Y531971D01*
X270738Y531960D01*
X270677Y531923D01*
X270611Y531895D01*
X270555Y531851D01*
X270527Y531834D01*
X270512Y531816D01*
X270480Y531791D01*
X265654Y526964D01*
X265601Y526890D01*
X265541Y526821D01*
X265529Y526791D01*
X265510Y526765D01*
X265483Y526678D01*
X265449Y526593D01*
X265445Y526552D01*
X265438Y526530D01*
X265439Y526497D01*
X265431Y526426D01*
X265431Y437246D01*
X265445Y437156D01*
X265453Y437065D01*
X265465Y437036D01*
X265470Y437004D01*
X265513Y436923D01*
X265549Y436839D01*
X265575Y436807D01*
X265586Y436786D01*
X265609Y436764D01*
X265654Y436708D01*
X266980Y435382D01*
X267943Y433058D01*
X267943Y430542D01*
X266980Y428218D01*
X265202Y426440D01*
X262878Y425477D01*
X260362Y425477D01*
X258038Y426440D01*
X256260Y428218D01*
X255297Y430542D01*
X255297Y433058D01*
X256260Y435382D01*
X257586Y436708D01*
X257639Y436782D01*
X257699Y436851D01*
X257711Y436882D01*
X257730Y436908D01*
X257757Y436995D01*
X257791Y437080D01*
X257795Y437121D01*
X257802Y437143D01*
X257801Y437175D01*
X257809Y437246D01*
X257809Y453404D01*
X257794Y453500D01*
X257784Y453597D01*
X257774Y453621D01*
X257770Y453647D01*
X257724Y453733D01*
X257684Y453822D01*
X257667Y453841D01*
X257654Y453864D01*
X257584Y453931D01*
X257518Y454003D01*
X257495Y454015D01*
X257476Y454033D01*
X257388Y454074D01*
X257302Y454121D01*
X257277Y454126D01*
X257253Y454137D01*
X257156Y454148D01*
X257060Y454165D01*
X257034Y454161D01*
X257009Y454164D01*
X256913Y454143D01*
X256817Y454129D01*
X256794Y454117D01*
X256768Y454112D01*
X256685Y454062D01*
X256598Y454018D01*
X256579Y453999D01*
X256557Y453986D01*
X256494Y453912D01*
X256426Y453842D01*
X256410Y453814D01*
X256397Y453799D01*
X256385Y453768D01*
X256345Y453695D01*
X254220Y448567D01*
X249933Y444280D01*
X244332Y441959D01*
X238268Y441959D01*
X232667Y444280D01*
X228380Y448567D01*
X226059Y454168D01*
X226059Y460232D01*
X228380Y465833D01*
X232667Y470120D01*
X238268Y472441D01*
X244332Y472441D01*
X249933Y470120D01*
X254220Y465833D01*
X256345Y460705D01*
X256396Y460622D01*
X256442Y460536D01*
X256461Y460518D01*
X256474Y460496D01*
X256549Y460434D01*
X256620Y460367D01*
X256644Y460356D01*
X256664Y460339D01*
X256755Y460304D01*
X256843Y460263D01*
X256869Y460260D01*
X256893Y460251D01*
X256991Y460247D01*
X257087Y460236D01*
X257113Y460241D01*
X257139Y460240D01*
X257233Y460267D01*
X257328Y460288D01*
X257350Y460302D01*
X257375Y460309D01*
X257455Y460364D01*
X257539Y460414D01*
X257556Y460434D01*
X257577Y460449D01*
X257636Y460527D01*
X257699Y460601D01*
X257709Y460626D01*
X257724Y460646D01*
X257754Y460739D01*
X257791Y460829D01*
X257794Y460862D01*
X257800Y460880D01*
X257800Y460913D01*
X257809Y460996D01*
X257809Y504204D01*
X257794Y504300D01*
X257784Y504397D01*
X257774Y504421D01*
X257770Y504447D01*
X257724Y504533D01*
X257684Y504622D01*
X257667Y504641D01*
X257654Y504664D01*
X257584Y504731D01*
X257518Y504803D01*
X257495Y504815D01*
X257476Y504833D01*
X257388Y504874D01*
X257302Y504921D01*
X257277Y504926D01*
X257253Y504937D01*
X257156Y504948D01*
X257060Y504965D01*
X257034Y504961D01*
X257009Y504964D01*
X256913Y504943D01*
X256817Y504929D01*
X256794Y504917D01*
X256768Y504912D01*
X256685Y504862D01*
X256598Y504818D01*
X256579Y504799D01*
X256557Y504786D01*
X256494Y504712D01*
X256426Y504642D01*
X256410Y504614D01*
X256397Y504599D01*
X256385Y504568D01*
X256345Y504495D01*
X254220Y499367D01*
X249933Y495080D01*
X244332Y492759D01*
X238268Y492759D01*
X232667Y495080D01*
X228380Y499367D01*
X226059Y504968D01*
X226059Y511032D01*
X228380Y516633D01*
X232667Y520920D01*
X238268Y523241D01*
X244332Y523241D01*
X249933Y520920D01*
X254220Y516633D01*
X256345Y511505D01*
X256396Y511422D01*
X256442Y511336D01*
X256461Y511318D01*
X256474Y511296D01*
X256549Y511234D01*
X256620Y511167D01*
X256644Y511156D01*
X256664Y511139D01*
X256755Y511104D01*
X256843Y511063D01*
X256869Y511060D01*
X256893Y511051D01*
X256991Y511047D01*
X257087Y511036D01*
X257113Y511041D01*
X257139Y511040D01*
X257233Y511067D01*
X257328Y511088D01*
X257350Y511102D01*
X257375Y511109D01*
X257455Y511164D01*
X257539Y511214D01*
X257556Y511234D01*
X257577Y511249D01*
X257636Y511327D01*
X257699Y511401D01*
X257709Y511425D01*
X257724Y511446D01*
X257754Y511539D01*
X257791Y511629D01*
X257794Y511662D01*
X257800Y511680D01*
X257800Y511713D01*
X257809Y511796D01*
X257809Y529898D01*
X300766Y572856D01*
X300819Y572929D01*
X300879Y572999D01*
X300891Y573029D01*
X300910Y573055D01*
X300937Y573142D01*
X300971Y573227D01*
X300975Y573268D01*
X300982Y573290D01*
X300981Y573322D01*
X300989Y573394D01*
X300989Y611178D01*
X317802Y627991D01*
X412736Y627991D01*
X412826Y628005D01*
X412917Y628013D01*
X412947Y628025D01*
X412979Y628030D01*
X413060Y628073D01*
X413144Y628109D01*
X413176Y628135D01*
X413196Y628146D01*
X413219Y628169D01*
X413274Y628214D01*
X422656Y637596D01*
X422709Y637669D01*
X422769Y637739D01*
X422781Y637769D01*
X422800Y637795D01*
X422827Y637882D01*
X422861Y637967D01*
X422865Y638008D01*
X422872Y638030D01*
X422871Y638063D01*
X422879Y638134D01*
X422879Y674182D01*
X424368Y675671D01*
X464632Y675671D01*
X466121Y674182D01*
X466121Y633918D01*
X464632Y632429D01*
X428584Y632429D01*
X428494Y632415D01*
X428403Y632407D01*
X428373Y632395D01*
X428341Y632390D01*
X428260Y632347D01*
X428176Y632311D01*
X428144Y632285D01*
X428124Y632274D01*
X428101Y632251D01*
X428046Y632206D01*
X416208Y620369D01*
X321274Y620369D01*
X321184Y620355D01*
X321093Y620347D01*
X321063Y620335D01*
X321031Y620330D01*
X320950Y620287D01*
X320866Y620251D01*
X320834Y620225D01*
X320814Y620214D01*
X320791Y620191D01*
X320736Y620146D01*
X308834Y608244D01*
X308781Y608171D01*
X308721Y608101D01*
X308709Y608071D01*
X308690Y608045D01*
X308663Y607958D01*
X308629Y607873D01*
X308625Y607832D01*
X308618Y607810D01*
X308619Y607777D01*
X308611Y607706D01*
X308611Y569838D01*
X308622Y569767D01*
X308624Y569695D01*
X308642Y569646D01*
X308650Y569595D01*
X308684Y569532D01*
X308709Y569464D01*
X308741Y569424D01*
X308766Y569378D01*
X308817Y569328D01*
X308862Y569272D01*
X308906Y569244D01*
X308944Y569208D01*
X309009Y569178D01*
X309069Y569139D01*
X309120Y569127D01*
X309167Y569105D01*
X309238Y569097D01*
X309308Y569079D01*
X309360Y569083D01*
X309411Y569078D01*
X309482Y569093D01*
X309553Y569098D01*
X309601Y569119D01*
X309652Y569130D01*
X309713Y569167D01*
X309779Y569195D01*
X309835Y569239D01*
X309863Y569256D01*
X309878Y569274D01*
X309910Y569299D01*
X313466Y572855D01*
X313519Y572929D01*
X313579Y572999D01*
X313591Y573029D01*
X313610Y573055D01*
X313637Y573142D01*
X313671Y573227D01*
X313675Y573268D01*
X313682Y573290D01*
X313681Y573322D01*
X313689Y573394D01*
X313689Y598478D01*
X326166Y610955D01*
X326166Y610956D01*
X328622Y613411D01*
X417038Y613411D01*
X417058Y613414D01*
X417077Y613412D01*
X417179Y613434D01*
X417281Y613450D01*
X417298Y613460D01*
X417318Y613464D01*
X417407Y613517D01*
X417498Y613566D01*
X417512Y613580D01*
X417529Y613590D01*
X417596Y613669D01*
X417668Y613744D01*
X417676Y613762D01*
X417689Y613777D01*
X417728Y613873D01*
X417771Y613967D01*
X417773Y613987D01*
X417781Y614005D01*
X417799Y614172D01*
X417799Y614310D01*
X420254Y616765D01*
X430985Y627495D01*
X430985Y627496D01*
X433440Y629951D01*
X465496Y629951D01*
X465586Y629965D01*
X465677Y629973D01*
X465707Y629985D01*
X465739Y629990D01*
X465820Y630033D01*
X465904Y630069D01*
X465936Y630095D01*
X465956Y630106D01*
X465979Y630129D01*
X466035Y630174D01*
X476814Y640953D01*
X476856Y641012D01*
X476903Y641061D01*
X476921Y641101D01*
X476952Y641142D01*
X476954Y641148D01*
X476958Y641153D01*
X476981Y641229D01*
X477007Y641284D01*
X477011Y641323D01*
X477028Y641376D01*
X477028Y641382D01*
X477030Y641388D01*
X477028Y641475D01*
X477034Y641529D01*
X477026Y641562D01*
X477026Y641622D01*
X477024Y641629D01*
X477024Y641634D01*
X477017Y641652D01*
X476979Y641783D01*
X473679Y649749D01*
X473679Y658351D01*
X476971Y666297D01*
X483053Y672379D01*
X490999Y675671D01*
X499601Y675671D01*
X507547Y672379D01*
X513629Y666297D01*
X516921Y658351D01*
X516921Y649749D01*
X513629Y641803D01*
X507547Y635721D01*
X499601Y632429D01*
X490999Y632429D01*
X483033Y635729D01*
X482919Y635756D01*
X482806Y635784D01*
X482799Y635784D01*
X482793Y635785D01*
X482677Y635774D01*
X482561Y635765D01*
X482555Y635763D01*
X482549Y635762D01*
X482441Y635714D01*
X482334Y635669D01*
X482328Y635664D01*
X482324Y635662D01*
X482310Y635649D01*
X482203Y635564D01*
X471424Y624785D01*
X471424Y624784D01*
X468968Y622329D01*
X457835Y622329D01*
X457764Y622318D01*
X457692Y622316D01*
X457643Y622298D01*
X457592Y622290D01*
X457529Y622256D01*
X457461Y622231D01*
X457421Y622199D01*
X457375Y622174D01*
X457325Y622122D01*
X457269Y622078D01*
X457241Y622034D01*
X457205Y621996D01*
X457175Y621931D01*
X457136Y621871D01*
X457124Y621820D01*
X457102Y621773D01*
X457094Y621702D01*
X457076Y621632D01*
X457080Y621580D01*
X457075Y621529D01*
X457090Y621458D01*
X457095Y621387D01*
X457116Y621339D01*
X457127Y621288D01*
X457164Y621227D01*
X457192Y621161D01*
X457237Y621105D01*
X457253Y621077D01*
X457271Y621062D01*
X457297Y621030D01*
X462829Y615497D01*
X466121Y607551D01*
X466121Y598949D01*
X462829Y591003D01*
X456747Y584921D01*
X448801Y581629D01*
X440199Y581629D01*
X432253Y584921D01*
X426171Y591003D01*
X422879Y598949D01*
X422879Y606152D01*
X422868Y606223D01*
X422866Y606295D01*
X422848Y606344D01*
X422840Y606395D01*
X422806Y606458D01*
X422781Y606526D01*
X422749Y606566D01*
X422724Y606612D01*
X422672Y606662D01*
X422628Y606718D01*
X422584Y606746D01*
X422546Y606782D01*
X422481Y606812D01*
X422421Y606851D01*
X422370Y606863D01*
X422323Y606885D01*
X422252Y606893D01*
X422182Y606911D01*
X422130Y606907D01*
X422079Y606912D01*
X422008Y606897D01*
X421937Y606892D01*
X421889Y606871D01*
X421838Y606860D01*
X421777Y606823D01*
X421711Y606795D01*
X421655Y606751D01*
X421627Y606734D01*
X421612Y606716D01*
X421580Y606691D01*
X420678Y605789D01*
X332094Y605789D01*
X332004Y605775D01*
X331913Y605767D01*
X331883Y605755D01*
X331851Y605750D01*
X331770Y605707D01*
X331686Y605671D01*
X331654Y605645D01*
X331634Y605634D01*
X331611Y605611D01*
X331555Y605566D01*
X321534Y595544D01*
X321481Y595471D01*
X321421Y595401D01*
X321409Y595371D01*
X321390Y595345D01*
X321363Y595258D01*
X321329Y595173D01*
X321325Y595132D01*
X321318Y595110D01*
X321319Y595077D01*
X321311Y595006D01*
X321311Y569922D01*
X318856Y567466D01*
X318855Y567466D01*
X279624Y528234D01*
X279571Y528161D01*
X279511Y528091D01*
X279499Y528061D01*
X279480Y528035D01*
X279453Y527948D01*
X279419Y527863D01*
X279415Y527822D01*
X279408Y527800D01*
X279409Y527767D01*
X279401Y527696D01*
X279401Y518692D01*
X279412Y518621D01*
X279414Y518550D01*
X279432Y518501D01*
X279440Y518449D01*
X279474Y518386D01*
X279499Y518319D01*
X279531Y518278D01*
X279556Y518232D01*
X279608Y518183D01*
X279652Y518127D01*
X279696Y518099D01*
X279734Y518063D01*
X279799Y518032D01*
X279859Y517994D01*
X279910Y517981D01*
X279957Y517959D01*
X280028Y517951D01*
X280098Y517934D01*
X280150Y517938D01*
X280201Y517932D01*
X280272Y517947D01*
X280343Y517953D01*
X280391Y517973D01*
X280442Y517984D01*
X280503Y518021D01*
X280569Y518049D01*
X280625Y518094D01*
X280653Y518110D01*
X280668Y518128D01*
X280700Y518154D01*
X283467Y520920D01*
X289068Y523241D01*
X295132Y523241D01*
X300733Y520920D01*
X305020Y516633D01*
X306823Y512281D01*
X306885Y512181D01*
X306945Y512081D01*
X306950Y512077D01*
X306953Y512072D01*
X307043Y511997D01*
X307132Y511921D01*
X307138Y511919D01*
X307142Y511915D01*
X307250Y511873D01*
X307360Y511829D01*
X307367Y511828D01*
X307372Y511827D01*
X307390Y511826D01*
X307527Y511811D01*
X326898Y511811D01*
X326918Y511814D01*
X326937Y511812D01*
X327039Y511834D01*
X327141Y511850D01*
X327158Y511860D01*
X327178Y511864D01*
X327267Y511917D01*
X327358Y511966D01*
X327372Y511980D01*
X327389Y511990D01*
X327456Y512069D01*
X327528Y512144D01*
X327536Y512162D01*
X327549Y512177D01*
X327588Y512273D01*
X327631Y512367D01*
X327633Y512387D01*
X327641Y512405D01*
X327659Y512572D01*
X327659Y521752D01*
X329148Y523241D01*
X356652Y523241D01*
X358141Y521752D01*
X358141Y494248D01*
X356652Y492759D01*
X329148Y492759D01*
X327659Y494248D01*
X327659Y503428D01*
X327656Y503448D01*
X327658Y503467D01*
X327636Y503569D01*
X327620Y503671D01*
X327610Y503688D01*
X327606Y503708D01*
X327553Y503797D01*
X327504Y503888D01*
X327490Y503902D01*
X327480Y503919D01*
X327401Y503986D01*
X327326Y504058D01*
X327308Y504066D01*
X327293Y504079D01*
X327197Y504118D01*
X327103Y504161D01*
X327083Y504163D01*
X327065Y504171D01*
X326898Y504189D01*
X307527Y504189D01*
X307412Y504170D01*
X307296Y504153D01*
X307290Y504151D01*
X307284Y504150D01*
X307181Y504095D01*
X307076Y504042D01*
X307072Y504037D01*
X307067Y504034D01*
X306987Y503950D01*
X306904Y503866D01*
X306901Y503860D01*
X306897Y503856D01*
X306889Y503839D01*
X306823Y503719D01*
X305020Y499367D01*
X300733Y495080D01*
X295132Y492759D01*
X289068Y492759D01*
X283467Y495080D01*
X280700Y497846D01*
X280642Y497888D01*
X280590Y497937D01*
X280543Y497959D01*
X280501Y497990D01*
X280432Y498011D01*
X280367Y498041D01*
X280315Y498047D01*
X280265Y498062D01*
X280194Y498060D01*
X280123Y498068D01*
X280072Y498057D01*
X280020Y498056D01*
X279952Y498031D01*
X279882Y498016D01*
X279837Y497989D01*
X279789Y497971D01*
X279733Y497926D01*
X279671Y497890D01*
X279637Y497850D01*
X279597Y497817D01*
X279558Y497757D01*
X279511Y497703D01*
X279492Y497654D01*
X279464Y497611D01*
X279446Y497541D01*
X279419Y497475D01*
X279411Y497403D01*
X279403Y497372D01*
X279405Y497349D01*
X279401Y497308D01*
X279401Y467892D01*
X279402Y467885D01*
X279403Y467881D01*
X279412Y467821D01*
X279414Y467750D01*
X279432Y467701D01*
X279440Y467649D01*
X279474Y467586D01*
X279499Y467519D01*
X279531Y467478D01*
X279556Y467432D01*
X279608Y467383D01*
X279652Y467327D01*
X279696Y467299D01*
X279734Y467263D01*
X279799Y467232D01*
X279859Y467194D01*
X279910Y467181D01*
X279957Y467159D01*
X280028Y467151D01*
X280098Y467134D01*
X280150Y467138D01*
X280201Y467132D01*
X280272Y467147D01*
X280343Y467153D01*
X280391Y467173D01*
X280442Y467184D01*
X280503Y467221D01*
X280569Y467249D01*
X280625Y467294D01*
X280653Y467310D01*
X280668Y467328D01*
X280700Y467354D01*
X283467Y470120D01*
X289068Y472441D01*
X295132Y472441D01*
X300733Y470120D01*
X305020Y465833D01*
X306823Y461481D01*
X306885Y461381D01*
X306945Y461281D01*
X306950Y461277D01*
X306953Y461272D01*
X307043Y461197D01*
X307132Y461121D01*
X307138Y461119D01*
X307142Y461115D01*
X307250Y461073D01*
X307360Y461029D01*
X307367Y461028D01*
X307372Y461027D01*
X307390Y461026D01*
X307527Y461011D01*
X326898Y461011D01*
X326918Y461014D01*
X326937Y461012D01*
X327039Y461034D01*
X327141Y461050D01*
X327158Y461060D01*
X327178Y461064D01*
X327267Y461117D01*
X327358Y461166D01*
X327372Y461180D01*
X327389Y461190D01*
X327456Y461269D01*
X327528Y461344D01*
X327536Y461362D01*
X327549Y461377D01*
X327588Y461473D01*
X327631Y461567D01*
X327633Y461587D01*
X327641Y461605D01*
X327659Y461772D01*
X327659Y470952D01*
X329148Y472441D01*
X356652Y472441D01*
X358141Y470952D01*
X358141Y443448D01*
X356652Y441959D01*
X329148Y441959D01*
X327659Y443448D01*
X327659Y452628D01*
X327656Y452648D01*
X327658Y452667D01*
X327636Y452769D01*
X327620Y452871D01*
X327610Y452888D01*
X327606Y452908D01*
X327553Y452997D01*
X327504Y453088D01*
X327490Y453102D01*
X327480Y453119D01*
X327401Y453186D01*
X327326Y453258D01*
X327308Y453266D01*
X327293Y453279D01*
X327197Y453318D01*
X327103Y453361D01*
X327083Y453363D01*
X327065Y453371D01*
X326898Y453389D01*
X307527Y453389D01*
X307412Y453370D01*
X307296Y453353D01*
X307290Y453351D01*
X307284Y453350D01*
X307181Y453295D01*
X307076Y453242D01*
X307072Y453237D01*
X307067Y453234D01*
X306987Y453150D01*
X306904Y453066D01*
X306901Y453060D01*
X306897Y453056D01*
X306889Y453039D01*
X306823Y452919D01*
X305020Y448567D01*
X300733Y444280D01*
X296381Y442477D01*
X296281Y442415D01*
X296181Y442355D01*
X296177Y442350D01*
X296172Y442347D01*
X296097Y442257D01*
X296021Y442168D01*
X296019Y442162D01*
X296015Y442158D01*
X295973Y442050D01*
X295929Y441940D01*
X295928Y441933D01*
X295927Y441928D01*
X295926Y441910D01*
X295911Y441773D01*
X295911Y399146D01*
X295925Y399056D01*
X295933Y398965D01*
X295945Y398936D01*
X295950Y398904D01*
X295993Y398823D01*
X296029Y398739D01*
X296055Y398707D01*
X296066Y398686D01*
X296089Y398664D01*
X296134Y398608D01*
X297460Y397282D01*
X298423Y394958D01*
X298423Y392442D01*
X297460Y390118D01*
X295682Y388340D01*
X293358Y387377D01*
X290842Y387377D01*
X288518Y388340D01*
X286740Y390118D01*
X285777Y392442D01*
X285777Y394958D01*
X286740Y397282D01*
X288066Y398608D01*
X288119Y398682D01*
X288179Y398751D01*
X288191Y398782D01*
X288210Y398808D01*
X288237Y398895D01*
X288271Y398980D01*
X288275Y399021D01*
X288282Y399043D01*
X288281Y399075D01*
X288289Y399146D01*
X288289Y441773D01*
X288270Y441888D01*
X288253Y442004D01*
X288251Y442010D01*
X288250Y442016D01*
X288195Y442119D01*
X288142Y442224D01*
X288137Y442228D01*
X288134Y442233D01*
X288050Y442313D01*
X287966Y442396D01*
X287960Y442399D01*
X287956Y442403D01*
X287939Y442411D01*
X287819Y442477D01*
X283467Y444280D01*
X280700Y447046D01*
X280642Y447088D01*
X280590Y447137D01*
X280543Y447159D01*
X280501Y447190D01*
X280432Y447211D01*
X280367Y447241D01*
X280315Y447247D01*
X280265Y447262D01*
X280194Y447260D01*
X280123Y447268D01*
X280072Y447257D01*
X280020Y447256D01*
X279952Y447231D01*
X279882Y447216D01*
X279837Y447189D01*
X279789Y447171D01*
X279733Y447126D01*
X279671Y447090D01*
X279637Y447050D01*
X279597Y447017D01*
X279558Y446957D01*
X279511Y446903D01*
X279492Y446854D01*
X279464Y446811D01*
X279446Y446741D01*
X279419Y446675D01*
X279411Y446603D01*
X279403Y446572D01*
X279405Y446549D01*
X279401Y446508D01*
X279401Y380354D01*
X279402Y380345D01*
X279402Y380341D01*
X279406Y380321D01*
X279415Y380264D01*
X279423Y380173D01*
X279435Y380143D01*
X279440Y380111D01*
X279483Y380030D01*
X279519Y379946D01*
X279545Y379914D01*
X279556Y379894D01*
X279579Y379871D01*
X279624Y379816D01*
X290944Y368496D01*
X291017Y368443D01*
X291087Y368383D01*
X291117Y368371D01*
X291143Y368352D01*
X291230Y368325D01*
X291315Y368291D01*
X291356Y368287D01*
X291378Y368280D01*
X291411Y368281D01*
X291482Y368273D01*
X293358Y368273D01*
X295682Y367310D01*
X297460Y365532D01*
X298423Y363208D01*
X298423Y360692D01*
X297460Y358368D01*
X295682Y356590D01*
X293358Y355627D01*
X290842Y355627D01*
G37*
%LPD*%
G36*
X247206Y137553D02*
X247206Y137553D01*
X247278Y137555D01*
X247327Y137573D01*
X247378Y137581D01*
X247441Y137615D01*
X247509Y137640D01*
X247549Y137672D01*
X247595Y137697D01*
X247645Y137748D01*
X247701Y137793D01*
X247729Y137837D01*
X247765Y137875D01*
X247795Y137940D01*
X247834Y138000D01*
X247846Y138051D01*
X247868Y138098D01*
X247876Y138169D01*
X247894Y138239D01*
X247890Y138291D01*
X247895Y138342D01*
X247880Y138413D01*
X247875Y138484D01*
X247854Y138532D01*
X247843Y138583D01*
X247806Y138644D01*
X247778Y138710D01*
X247734Y138766D01*
X247717Y138794D01*
X247699Y138809D01*
X247674Y138841D01*
X217835Y168680D01*
X217777Y168721D01*
X217725Y168771D01*
X217678Y168793D01*
X217636Y168823D01*
X217567Y168844D01*
X217502Y168874D01*
X217450Y168880D01*
X217400Y168895D01*
X217329Y168894D01*
X217258Y168901D01*
X217207Y168890D01*
X217155Y168889D01*
X217087Y168864D01*
X217017Y168849D01*
X216973Y168823D01*
X216924Y168805D01*
X216868Y168760D01*
X216806Y168723D01*
X216772Y168683D01*
X216732Y168651D01*
X216693Y168591D01*
X216646Y168536D01*
X216627Y168488D01*
X216599Y168444D01*
X216581Y168375D01*
X216554Y168308D01*
X216546Y168237D01*
X216538Y168205D01*
X216540Y168182D01*
X216536Y168141D01*
X216536Y159576D01*
X208724Y151764D01*
X197676Y151764D01*
X189864Y159576D01*
X189864Y170624D01*
X197676Y178436D01*
X206241Y178436D01*
X206312Y178447D01*
X206384Y178449D01*
X206433Y178467D01*
X206484Y178475D01*
X206547Y178509D01*
X206615Y178534D01*
X206655Y178566D01*
X206701Y178591D01*
X206751Y178643D01*
X206807Y178687D01*
X206835Y178731D01*
X206871Y178769D01*
X206901Y178834D01*
X206940Y178894D01*
X206952Y178945D01*
X206974Y178992D01*
X206982Y179063D01*
X207000Y179133D01*
X206996Y179185D01*
X207001Y179236D01*
X206986Y179307D01*
X206981Y179378D01*
X206960Y179426D01*
X206949Y179477D01*
X206912Y179538D01*
X206884Y179604D01*
X206840Y179660D01*
X206823Y179688D01*
X206805Y179703D01*
X206780Y179735D01*
X201318Y185196D01*
X201245Y185249D01*
X201175Y185309D01*
X201145Y185321D01*
X201119Y185340D01*
X201032Y185367D01*
X200947Y185401D01*
X200906Y185405D01*
X200884Y185412D01*
X200851Y185411D01*
X200780Y185419D01*
X35995Y185419D01*
X17810Y203605D01*
X17752Y203646D01*
X17700Y203696D01*
X17653Y203718D01*
X17611Y203748D01*
X17542Y203769D01*
X17477Y203799D01*
X17425Y203805D01*
X17375Y203820D01*
X17304Y203819D01*
X17233Y203826D01*
X17182Y203815D01*
X17130Y203814D01*
X17062Y203789D01*
X16992Y203774D01*
X16947Y203747D01*
X16899Y203730D01*
X16843Y203685D01*
X16781Y203648D01*
X16747Y203608D01*
X16707Y203576D01*
X16668Y203516D01*
X16621Y203461D01*
X16602Y203413D01*
X16574Y203369D01*
X16556Y203300D01*
X16529Y203233D01*
X16521Y203162D01*
X16513Y203130D01*
X16515Y203107D01*
X16511Y203066D01*
X16511Y179694D01*
X16525Y179604D01*
X16533Y179513D01*
X16545Y179483D01*
X16550Y179451D01*
X16593Y179370D01*
X16629Y179286D01*
X16655Y179254D01*
X16666Y179234D01*
X16689Y179211D01*
X16734Y179156D01*
X26756Y169134D01*
X26829Y169081D01*
X26899Y169021D01*
X26929Y169009D01*
X26955Y168990D01*
X27042Y168963D01*
X27127Y168929D01*
X27168Y168925D01*
X27190Y168918D01*
X27223Y168919D01*
X27294Y168911D01*
X120624Y168911D01*
X125735Y163800D01*
X125809Y163747D01*
X125878Y163687D01*
X125908Y163675D01*
X125935Y163656D01*
X126022Y163629D01*
X126106Y163595D01*
X126147Y163591D01*
X126170Y163584D01*
X126202Y163585D01*
X126273Y163577D01*
X138938Y163577D01*
X138958Y163580D01*
X138977Y163578D01*
X139079Y163600D01*
X139181Y163617D01*
X139198Y163626D01*
X139218Y163630D01*
X139307Y163683D01*
X139398Y163732D01*
X139412Y163746D01*
X139429Y163756D01*
X139496Y163835D01*
X139567Y163910D01*
X139576Y163928D01*
X139589Y163943D01*
X139627Y164039D01*
X139671Y164133D01*
X139673Y164153D01*
X139681Y164171D01*
X139699Y164338D01*
X139699Y165101D01*
X140462Y165101D01*
X140482Y165104D01*
X140501Y165102D01*
X140603Y165124D01*
X140705Y165141D01*
X140722Y165150D01*
X140742Y165154D01*
X140831Y165207D01*
X140922Y165256D01*
X140936Y165270D01*
X140953Y165280D01*
X141020Y165359D01*
X141091Y165434D01*
X141100Y165452D01*
X141113Y165467D01*
X141152Y165563D01*
X141195Y165657D01*
X141197Y165677D01*
X141205Y165695D01*
X141223Y165862D01*
X141223Y178436D01*
X145224Y178436D01*
X151862Y171798D01*
X151878Y171786D01*
X151890Y171771D01*
X151978Y171714D01*
X152061Y171654D01*
X152080Y171648D01*
X152097Y171638D01*
X152198Y171612D01*
X152297Y171582D01*
X152316Y171582D01*
X152336Y171578D01*
X152439Y171586D01*
X152542Y171588D01*
X152561Y171595D01*
X152581Y171597D01*
X152676Y171637D01*
X152773Y171673D01*
X152789Y171685D01*
X152807Y171693D01*
X152938Y171798D01*
X159576Y178436D01*
X170624Y178436D01*
X178436Y170624D01*
X178436Y159576D01*
X170624Y151764D01*
X159576Y151764D01*
X158903Y152437D01*
X158887Y152449D01*
X158874Y152465D01*
X158787Y152521D01*
X158703Y152581D01*
X158684Y152587D01*
X158668Y152598D01*
X158567Y152623D01*
X158468Y152653D01*
X158448Y152653D01*
X158429Y152658D01*
X158326Y152650D01*
X158222Y152647D01*
X158204Y152640D01*
X158184Y152638D01*
X158089Y152598D01*
X157991Y152562D01*
X157976Y152550D01*
X157957Y152542D01*
X157827Y152437D01*
X154529Y149139D01*
X152073Y146684D01*
X132072Y146684D01*
X117690Y161066D01*
X117616Y161119D01*
X117546Y161179D01*
X117516Y161191D01*
X117490Y161210D01*
X117403Y161237D01*
X117318Y161271D01*
X117277Y161275D01*
X117255Y161282D01*
X117223Y161281D01*
X117152Y161289D01*
X23822Y161289D01*
X21366Y163744D01*
X11841Y173270D01*
X11783Y173311D01*
X11731Y173361D01*
X11684Y173383D01*
X11642Y173413D01*
X11573Y173434D01*
X11508Y173464D01*
X11456Y173470D01*
X11406Y173485D01*
X11335Y173484D01*
X11264Y173491D01*
X11213Y173480D01*
X11161Y173479D01*
X11093Y173454D01*
X11023Y173439D01*
X10978Y173413D01*
X10930Y173395D01*
X10874Y173350D01*
X10812Y173313D01*
X10778Y173273D01*
X10738Y173241D01*
X10699Y173181D01*
X10652Y173126D01*
X10633Y173078D01*
X10605Y173034D01*
X10587Y172965D01*
X10560Y172898D01*
X10552Y172827D01*
X10544Y172795D01*
X10546Y172772D01*
X10542Y172731D01*
X10542Y157082D01*
X10556Y156992D01*
X10564Y156901D01*
X10576Y156871D01*
X10581Y156839D01*
X10624Y156758D01*
X10660Y156675D01*
X10686Y156642D01*
X10697Y156622D01*
X10720Y156600D01*
X10765Y156544D01*
X29544Y137765D01*
X29617Y137712D01*
X29687Y137652D01*
X29717Y137640D01*
X29743Y137621D01*
X29830Y137594D01*
X29915Y137560D01*
X29956Y137556D01*
X29978Y137549D01*
X30011Y137550D01*
X30082Y137542D01*
X247135Y137542D01*
X247206Y137553D01*
G37*
%LPC*%
G36*
X289995Y274319D02*
X289995Y274319D01*
X274319Y289995D01*
X274319Y306905D01*
X299496Y332082D01*
X299549Y332155D01*
X299609Y332225D01*
X299621Y332255D01*
X299640Y332281D01*
X299667Y332368D01*
X299701Y332453D01*
X299705Y332494D01*
X299712Y332516D01*
X299711Y332549D01*
X299719Y332620D01*
X299719Y346247D01*
X328762Y375290D01*
X328806Y375351D01*
X328839Y375385D01*
X328845Y375397D01*
X328875Y375433D01*
X328887Y375463D01*
X328906Y375489D01*
X328933Y375576D01*
X328967Y375661D01*
X328971Y375702D01*
X328978Y375724D01*
X328977Y375757D01*
X328985Y375828D01*
X328985Y375908D01*
X329948Y378232D01*
X331726Y380010D01*
X334050Y380973D01*
X336566Y380973D01*
X338890Y380010D01*
X340668Y378232D01*
X341631Y375908D01*
X341631Y373392D01*
X340668Y371068D01*
X338890Y369290D01*
X336566Y368327D01*
X336486Y368327D01*
X336396Y368313D01*
X336305Y368305D01*
X336275Y368293D01*
X336243Y368288D01*
X336162Y368245D01*
X336079Y368209D01*
X336046Y368183D01*
X336026Y368172D01*
X336004Y368149D01*
X335948Y368104D01*
X310104Y342260D01*
X310051Y342187D01*
X309991Y342117D01*
X309979Y342087D01*
X309960Y342061D01*
X309933Y341974D01*
X309899Y341889D01*
X309895Y341848D01*
X309888Y341826D01*
X309889Y341793D01*
X309881Y341722D01*
X309881Y329808D01*
X309892Y329737D01*
X309894Y329665D01*
X309912Y329616D01*
X309920Y329565D01*
X309954Y329502D01*
X309979Y329434D01*
X310011Y329394D01*
X310036Y329348D01*
X310088Y329298D01*
X310132Y329242D01*
X310176Y329214D01*
X310214Y329178D01*
X310279Y329148D01*
X310339Y329109D01*
X310390Y329097D01*
X310437Y329075D01*
X310508Y329067D01*
X310578Y329049D01*
X310630Y329053D01*
X310681Y329048D01*
X310752Y329063D01*
X310823Y329068D01*
X310871Y329089D01*
X310922Y329100D01*
X310983Y329137D01*
X311049Y329165D01*
X311105Y329209D01*
X311133Y329226D01*
X311148Y329244D01*
X311180Y329269D01*
X338866Y356956D01*
X341322Y359411D01*
X345260Y359411D01*
X345374Y359430D01*
X345490Y359447D01*
X345496Y359449D01*
X345502Y359450D01*
X345605Y359505D01*
X345710Y359558D01*
X345714Y359563D01*
X345720Y359566D01*
X345799Y359650D01*
X345882Y359734D01*
X345886Y359740D01*
X345889Y359744D01*
X345897Y359761D01*
X345963Y359881D01*
X346663Y361571D01*
X349629Y364537D01*
X353503Y366142D01*
X357697Y366142D01*
X361571Y364537D01*
X364537Y361571D01*
X366142Y357697D01*
X366142Y353503D01*
X365441Y351812D01*
X365415Y351699D01*
X365386Y351585D01*
X365387Y351579D01*
X365385Y351573D01*
X365396Y351456D01*
X365405Y351340D01*
X365408Y351334D01*
X365408Y351328D01*
X365456Y351220D01*
X365502Y351114D01*
X365506Y351108D01*
X365508Y351103D01*
X365521Y351090D01*
X365606Y350983D01*
X369656Y346934D01*
X369730Y346881D01*
X369799Y346821D01*
X369829Y346809D01*
X369855Y346790D01*
X369942Y346763D01*
X370027Y346729D01*
X370068Y346725D01*
X370090Y346718D01*
X370123Y346719D01*
X370194Y346711D01*
X373143Y346711D01*
X373214Y346722D01*
X373286Y346724D01*
X373335Y346742D01*
X373386Y346750D01*
X373449Y346784D01*
X373517Y346809D01*
X373557Y346841D01*
X373603Y346866D01*
X373653Y346918D01*
X373709Y346962D01*
X373737Y347006D01*
X373773Y347044D01*
X373803Y347109D01*
X373842Y347169D01*
X373854Y347220D01*
X373876Y347267D01*
X373884Y347338D01*
X373902Y347408D01*
X373898Y347460D01*
X373903Y347511D01*
X373888Y347582D01*
X373883Y347653D01*
X373862Y347701D01*
X373851Y347752D01*
X373814Y347813D01*
X373786Y347879D01*
X373742Y347935D01*
X373725Y347963D01*
X373707Y347978D01*
X373682Y348010D01*
X370458Y351233D01*
X370458Y354077D01*
X380238Y354077D01*
X380258Y354080D01*
X380277Y354078D01*
X380379Y354100D01*
X380481Y354117D01*
X380498Y354126D01*
X380518Y354130D01*
X380607Y354183D01*
X380698Y354232D01*
X380712Y354246D01*
X380729Y354256D01*
X380796Y354335D01*
X380867Y354410D01*
X380876Y354428D01*
X380889Y354443D01*
X380927Y354539D01*
X380971Y354633D01*
X380973Y354653D01*
X380981Y354671D01*
X380999Y354838D01*
X380999Y355601D01*
X381001Y355601D01*
X381001Y354838D01*
X381004Y354818D01*
X381002Y354799D01*
X381024Y354697D01*
X381041Y354595D01*
X381050Y354578D01*
X381054Y354558D01*
X381107Y354469D01*
X381156Y354378D01*
X381170Y354364D01*
X381180Y354347D01*
X381259Y354280D01*
X381334Y354209D01*
X381352Y354200D01*
X381367Y354187D01*
X381463Y354148D01*
X381557Y354105D01*
X381577Y354103D01*
X381595Y354095D01*
X381762Y354077D01*
X391542Y354077D01*
X391542Y351233D01*
X388318Y348010D01*
X388277Y347952D01*
X388227Y347900D01*
X388205Y347853D01*
X388175Y347811D01*
X388154Y347742D01*
X388124Y347677D01*
X388118Y347625D01*
X388103Y347575D01*
X388104Y347504D01*
X388097Y347433D01*
X388108Y347382D01*
X388109Y347330D01*
X388134Y347262D01*
X388149Y347192D01*
X388176Y347147D01*
X388193Y347099D01*
X388238Y347043D01*
X388275Y346981D01*
X388315Y346947D01*
X388347Y346907D01*
X388407Y346868D01*
X388462Y346821D01*
X388510Y346802D01*
X388554Y346774D01*
X388623Y346756D01*
X388690Y346729D01*
X388761Y346721D01*
X388793Y346713D01*
X388816Y346715D01*
X388857Y346711D01*
X406006Y346711D01*
X406096Y346725D01*
X406187Y346733D01*
X406216Y346745D01*
X406248Y346750D01*
X406329Y346793D01*
X406413Y346829D01*
X406445Y346855D01*
X406466Y346866D01*
X406488Y346889D01*
X406544Y346934D01*
X407870Y348260D01*
X410194Y349223D01*
X412710Y349223D01*
X415034Y348260D01*
X416812Y346482D01*
X417775Y344158D01*
X417775Y341642D01*
X416812Y339318D01*
X415034Y337540D01*
X412710Y336577D01*
X410194Y336577D01*
X407870Y337540D01*
X406544Y338866D01*
X406470Y338919D01*
X406401Y338979D01*
X406370Y338991D01*
X406344Y339010D01*
X406257Y339037D01*
X406172Y339071D01*
X406131Y339075D01*
X406109Y339082D01*
X406077Y339081D01*
X406006Y339089D01*
X366722Y339089D01*
X360217Y345594D01*
X360123Y345661D01*
X360029Y345732D01*
X360023Y345733D01*
X360018Y345737D01*
X359906Y345771D01*
X359795Y345808D01*
X359788Y345808D01*
X359782Y345809D01*
X359666Y345806D01*
X359549Y345805D01*
X359542Y345803D01*
X359537Y345803D01*
X359519Y345797D01*
X359388Y345759D01*
X357697Y345058D01*
X353503Y345058D01*
X349629Y346663D01*
X346663Y349629D01*
X345963Y351319D01*
X345901Y351419D01*
X345841Y351519D01*
X345837Y351523D01*
X345833Y351528D01*
X345744Y351603D01*
X345654Y351679D01*
X345649Y351681D01*
X345644Y351685D01*
X345536Y351727D01*
X345426Y351771D01*
X345419Y351772D01*
X345414Y351773D01*
X345396Y351774D01*
X345260Y351789D01*
X344794Y351789D01*
X344704Y351775D01*
X344613Y351767D01*
X344583Y351755D01*
X344551Y351750D01*
X344470Y351707D01*
X344386Y351671D01*
X344354Y351645D01*
X344334Y351634D01*
X344311Y351611D01*
X344256Y351566D01*
X298646Y305956D01*
X298593Y305883D01*
X298533Y305813D01*
X298521Y305783D01*
X298502Y305757D01*
X298475Y305670D01*
X298441Y305585D01*
X298437Y305544D01*
X298430Y305522D01*
X298431Y305489D01*
X298423Y305418D01*
X298423Y303542D01*
X297460Y301218D01*
X295682Y299440D01*
X293358Y298477D01*
X290842Y298477D01*
X288518Y299440D01*
X286740Y301218D01*
X286082Y302808D01*
X286057Y302847D01*
X286042Y302890D01*
X285993Y302951D01*
X285952Y303017D01*
X285917Y303046D01*
X285888Y303082D01*
X285822Y303124D01*
X285762Y303174D01*
X285720Y303190D01*
X285681Y303215D01*
X285605Y303234D01*
X285533Y303262D01*
X285487Y303264D01*
X285442Y303275D01*
X285365Y303269D01*
X285287Y303272D01*
X285243Y303259D01*
X285197Y303256D01*
X285125Y303225D01*
X285051Y303204D01*
X285013Y303178D01*
X284971Y303160D01*
X284864Y303074D01*
X284849Y303063D01*
X284846Y303059D01*
X284840Y303055D01*
X284704Y302918D01*
X284650Y302844D01*
X284591Y302775D01*
X284579Y302745D01*
X284560Y302719D01*
X284533Y302632D01*
X284499Y302547D01*
X284495Y302506D01*
X284488Y302484D01*
X284489Y302451D01*
X284481Y302380D01*
X284481Y294520D01*
X284495Y294430D01*
X284503Y294339D01*
X284515Y294309D01*
X284520Y294277D01*
X284563Y294196D01*
X284599Y294113D01*
X284625Y294080D01*
X284636Y294060D01*
X284659Y294038D01*
X284704Y293982D01*
X293982Y284704D01*
X294055Y284651D01*
X294125Y284591D01*
X294155Y284579D01*
X294181Y284560D01*
X294268Y284533D01*
X294353Y284499D01*
X294394Y284495D01*
X294416Y284488D01*
X294449Y284489D01*
X294520Y284481D01*
X302380Y284481D01*
X302470Y284495D01*
X302561Y284503D01*
X302591Y284515D01*
X302623Y284520D01*
X302704Y284563D01*
X302787Y284599D01*
X302820Y284625D01*
X302840Y284636D01*
X302862Y284659D01*
X302918Y284704D01*
X336354Y318140D01*
X336407Y318213D01*
X336467Y318283D01*
X336479Y318313D01*
X336498Y318339D01*
X336525Y318426D01*
X336559Y318511D01*
X336563Y318552D01*
X336570Y318574D01*
X336569Y318607D01*
X336577Y318678D01*
X336577Y318758D01*
X337540Y321082D01*
X339318Y322860D01*
X341642Y323823D01*
X344158Y323823D01*
X346482Y322860D01*
X348260Y321082D01*
X349223Y318758D01*
X349223Y316242D01*
X348260Y313918D01*
X346482Y312140D01*
X344158Y311177D01*
X344078Y311177D01*
X343988Y311163D01*
X343897Y311155D01*
X343867Y311143D01*
X343835Y311138D01*
X343754Y311095D01*
X343671Y311059D01*
X343638Y311033D01*
X343618Y311022D01*
X343596Y310999D01*
X343540Y310954D01*
X306905Y274319D01*
X289995Y274319D01*
G37*
%LPD*%
%LPC*%
G36*
X100342Y240057D02*
X100342Y240057D01*
X98018Y241020D01*
X96240Y242798D01*
X95277Y245122D01*
X95277Y246998D01*
X95263Y247088D01*
X95255Y247179D01*
X95243Y247209D01*
X95238Y247241D01*
X95195Y247322D01*
X95159Y247406D01*
X95133Y247438D01*
X95122Y247458D01*
X95099Y247481D01*
X95054Y247536D01*
X85089Y257502D01*
X85089Y341006D01*
X85075Y341096D01*
X85067Y341187D01*
X85055Y341217D01*
X85050Y341249D01*
X85007Y341330D01*
X84971Y341414D01*
X84945Y341446D01*
X84934Y341466D01*
X84911Y341489D01*
X84866Y341544D01*
X64684Y361726D01*
X64611Y361779D01*
X64541Y361839D01*
X64511Y361851D01*
X64485Y361870D01*
X64398Y361897D01*
X64313Y361931D01*
X64272Y361935D01*
X64250Y361942D01*
X64217Y361941D01*
X64146Y361949D01*
X58786Y361949D01*
X58696Y361935D01*
X58605Y361927D01*
X58576Y361915D01*
X58544Y361910D01*
X58463Y361867D01*
X58379Y361831D01*
X58347Y361805D01*
X58326Y361794D01*
X58304Y361771D01*
X58248Y361726D01*
X56922Y360400D01*
X54598Y359437D01*
X52082Y359437D01*
X49758Y360400D01*
X47980Y362178D01*
X47017Y364502D01*
X47017Y367018D01*
X47980Y369342D01*
X49306Y370668D01*
X49359Y370742D01*
X49419Y370811D01*
X49431Y370842D01*
X49450Y370868D01*
X49477Y370955D01*
X49511Y371040D01*
X49515Y371081D01*
X49522Y371103D01*
X49521Y371135D01*
X49529Y371206D01*
X49529Y385118D01*
X61922Y397511D01*
X210323Y397511D01*
X210413Y397525D01*
X210504Y397533D01*
X210534Y397545D01*
X210566Y397550D01*
X210646Y397593D01*
X210730Y397629D01*
X210762Y397655D01*
X210783Y397666D01*
X210805Y397689D01*
X210861Y397734D01*
X212213Y399085D01*
X214537Y400048D01*
X217052Y400048D01*
X219376Y399085D01*
X221154Y397307D01*
X222117Y394983D01*
X222117Y392467D01*
X221154Y390143D01*
X219376Y388365D01*
X217052Y387402D01*
X214537Y387402D01*
X212213Y388365D01*
X210911Y389666D01*
X210837Y389719D01*
X210768Y389779D01*
X210738Y389791D01*
X210712Y389810D01*
X210625Y389837D01*
X210540Y389871D01*
X210499Y389875D01*
X210476Y389882D01*
X210444Y389881D01*
X210373Y389889D01*
X65394Y389889D01*
X65304Y389875D01*
X65213Y389867D01*
X65183Y389855D01*
X65151Y389850D01*
X65070Y389807D01*
X64986Y389771D01*
X64954Y389745D01*
X64934Y389734D01*
X64911Y389711D01*
X64856Y389666D01*
X57374Y382184D01*
X57321Y382111D01*
X57261Y382041D01*
X57249Y382011D01*
X57230Y381985D01*
X57203Y381898D01*
X57169Y381813D01*
X57165Y381772D01*
X57158Y381750D01*
X57159Y381717D01*
X57151Y381646D01*
X57151Y371206D01*
X57165Y371116D01*
X57173Y371025D01*
X57185Y370996D01*
X57190Y370964D01*
X57233Y370883D01*
X57269Y370799D01*
X57295Y370767D01*
X57306Y370746D01*
X57329Y370724D01*
X57374Y370668D01*
X58248Y369794D01*
X58322Y369741D01*
X58391Y369681D01*
X58422Y369669D01*
X58448Y369650D01*
X58535Y369623D01*
X58620Y369589D01*
X58661Y369585D01*
X58683Y369578D01*
X58715Y369579D01*
X58786Y369571D01*
X67618Y369571D01*
X92711Y344478D01*
X92711Y260974D01*
X92725Y260884D01*
X92733Y260793D01*
X92745Y260763D01*
X92750Y260731D01*
X92793Y260650D01*
X92829Y260566D01*
X92855Y260534D01*
X92866Y260514D01*
X92889Y260491D01*
X92934Y260436D01*
X100444Y252926D01*
X100517Y252873D01*
X100587Y252813D01*
X100617Y252801D01*
X100643Y252782D01*
X100730Y252755D01*
X100815Y252721D01*
X100856Y252717D01*
X100878Y252710D01*
X100911Y252711D01*
X100982Y252703D01*
X102218Y252703D01*
X102308Y252717D01*
X102399Y252725D01*
X102429Y252737D01*
X102461Y252742D01*
X102542Y252785D01*
X102626Y252821D01*
X102658Y252847D01*
X102678Y252858D01*
X102701Y252881D01*
X102757Y252926D01*
X108996Y259166D01*
X109049Y259239D01*
X109109Y259309D01*
X109121Y259339D01*
X109140Y259365D01*
X109167Y259452D01*
X109201Y259537D01*
X109205Y259578D01*
X109212Y259600D01*
X109211Y259633D01*
X109219Y259704D01*
X109219Y306378D01*
X111674Y308834D01*
X111675Y308834D01*
X119184Y316343D01*
X119237Y316417D01*
X119297Y316487D01*
X119309Y316517D01*
X119328Y316543D01*
X119355Y316630D01*
X119389Y316715D01*
X119393Y316756D01*
X119400Y316778D01*
X119399Y316810D01*
X119407Y316882D01*
X119407Y318758D01*
X120370Y321082D01*
X122148Y322860D01*
X124472Y323823D01*
X126988Y323823D01*
X129312Y322860D01*
X131090Y321082D01*
X132053Y318758D01*
X132053Y316242D01*
X131090Y313918D01*
X129312Y312140D01*
X126988Y311177D01*
X125112Y311177D01*
X125022Y311163D01*
X124931Y311155D01*
X124901Y311143D01*
X124869Y311138D01*
X124788Y311095D01*
X124704Y311059D01*
X124672Y311033D01*
X124652Y311022D01*
X124629Y310999D01*
X124573Y310954D01*
X117064Y303445D01*
X117011Y303371D01*
X116951Y303301D01*
X116939Y303271D01*
X116920Y303245D01*
X116893Y303158D01*
X116859Y303073D01*
X116855Y303032D01*
X116848Y303010D01*
X116849Y302978D01*
X116841Y302906D01*
X116841Y256232D01*
X108146Y247537D01*
X108093Y247463D01*
X108033Y247393D01*
X108021Y247363D01*
X108002Y247337D01*
X107975Y247250D01*
X107941Y247165D01*
X107937Y247124D01*
X107930Y247102D01*
X107931Y247070D01*
X107923Y246998D01*
X107923Y245122D01*
X106960Y242798D01*
X105182Y241020D01*
X102858Y240057D01*
X100342Y240057D01*
G37*
%LPD*%
%LPC*%
G36*
X455942Y222277D02*
X455942Y222277D01*
X453618Y223240D01*
X451840Y225018D01*
X450877Y227342D01*
X450877Y229858D01*
X451840Y232182D01*
X453166Y233508D01*
X453219Y233582D01*
X453279Y233651D01*
X453291Y233682D01*
X453310Y233708D01*
X453337Y233795D01*
X453371Y233880D01*
X453375Y233921D01*
X453382Y233943D01*
X453381Y233975D01*
X453389Y234046D01*
X453389Y280978D01*
X491266Y318856D01*
X491319Y318929D01*
X491379Y318999D01*
X491391Y319029D01*
X491410Y319055D01*
X491437Y319142D01*
X491471Y319227D01*
X491475Y319268D01*
X491482Y319290D01*
X491481Y319323D01*
X491489Y319394D01*
X491489Y446078D01*
X519122Y473711D01*
X540654Y473711D01*
X540744Y473725D01*
X540835Y473733D01*
X540864Y473745D01*
X540896Y473750D01*
X540977Y473793D01*
X541061Y473829D01*
X541093Y473855D01*
X541114Y473866D01*
X541136Y473889D01*
X541192Y473934D01*
X542518Y475260D01*
X544842Y476223D01*
X547358Y476223D01*
X549682Y475260D01*
X551460Y473482D01*
X552423Y471158D01*
X552423Y468642D01*
X551460Y466318D01*
X549682Y464540D01*
X547358Y463577D01*
X544842Y463577D01*
X542518Y464540D01*
X541192Y465866D01*
X541118Y465919D01*
X541049Y465979D01*
X541018Y465991D01*
X540992Y466010D01*
X540905Y466037D01*
X540820Y466071D01*
X540779Y466075D01*
X540757Y466082D01*
X540725Y466081D01*
X540654Y466089D01*
X522594Y466089D01*
X522504Y466075D01*
X522413Y466067D01*
X522383Y466055D01*
X522351Y466050D01*
X522270Y466007D01*
X522186Y465971D01*
X522154Y465945D01*
X522134Y465934D01*
X522111Y465911D01*
X522056Y465866D01*
X499334Y443144D01*
X499281Y443071D01*
X499221Y443001D01*
X499209Y442971D01*
X499190Y442945D01*
X499163Y442858D01*
X499129Y442773D01*
X499125Y442732D01*
X499118Y442710D01*
X499119Y442677D01*
X499111Y442606D01*
X499111Y315922D01*
X461234Y278044D01*
X461181Y277971D01*
X461121Y277901D01*
X461109Y277871D01*
X461090Y277845D01*
X461063Y277758D01*
X461029Y277673D01*
X461025Y277632D01*
X461018Y277610D01*
X461019Y277577D01*
X461011Y277506D01*
X461011Y234046D01*
X461025Y233956D01*
X461033Y233865D01*
X461045Y233836D01*
X461050Y233804D01*
X461093Y233723D01*
X461129Y233639D01*
X461155Y233607D01*
X461166Y233586D01*
X461189Y233564D01*
X461234Y233508D01*
X462560Y232182D01*
X463523Y229858D01*
X463523Y227342D01*
X462560Y225018D01*
X460782Y223240D01*
X458458Y222277D01*
X455942Y222277D01*
G37*
%LPD*%
%LPC*%
G36*
X84997Y583629D02*
X84997Y583629D01*
X77786Y586616D01*
X72266Y592136D01*
X69279Y599347D01*
X69279Y607153D01*
X72266Y614364D01*
X77786Y619884D01*
X84997Y622871D01*
X92803Y622871D01*
X100014Y619884D01*
X105534Y614364D01*
X108364Y607531D01*
X108426Y607431D01*
X108486Y607331D01*
X108491Y607327D01*
X108494Y607322D01*
X108584Y607247D01*
X108673Y607171D01*
X108678Y607169D01*
X108683Y607165D01*
X108792Y607123D01*
X108901Y607079D01*
X108908Y607078D01*
X108913Y607077D01*
X108931Y607076D01*
X109068Y607061D01*
X144156Y607061D01*
X144246Y607075D01*
X144337Y607083D01*
X144367Y607095D01*
X144399Y607100D01*
X144480Y607143D01*
X144564Y607179D01*
X144596Y607205D01*
X144616Y607216D01*
X144639Y607239D01*
X144694Y607284D01*
X180116Y642706D01*
X180169Y642779D01*
X180229Y642849D01*
X180241Y642879D01*
X180260Y642905D01*
X180287Y642992D01*
X180321Y643077D01*
X180325Y643118D01*
X180332Y643140D01*
X180331Y643173D01*
X180339Y643244D01*
X180339Y675274D01*
X180325Y675364D01*
X180317Y675455D01*
X180305Y675484D01*
X180300Y675516D01*
X180257Y675597D01*
X180221Y675681D01*
X180195Y675713D01*
X180184Y675734D01*
X180161Y675756D01*
X180116Y675812D01*
X178790Y677138D01*
X177827Y679462D01*
X177827Y681978D01*
X178790Y684302D01*
X180568Y686080D01*
X182892Y687043D01*
X185408Y687043D01*
X187732Y686080D01*
X189510Y684302D01*
X190473Y681978D01*
X190473Y679462D01*
X189510Y677138D01*
X188184Y675812D01*
X188131Y675738D01*
X188071Y675669D01*
X188059Y675638D01*
X188040Y675612D01*
X188013Y675525D01*
X187979Y675440D01*
X187975Y675399D01*
X187968Y675377D01*
X187969Y675345D01*
X187961Y675274D01*
X187961Y639772D01*
X147628Y599439D01*
X109068Y599439D01*
X108953Y599420D01*
X108837Y599403D01*
X108831Y599401D01*
X108825Y599400D01*
X108722Y599345D01*
X108617Y599292D01*
X108613Y599287D01*
X108607Y599284D01*
X108528Y599200D01*
X108445Y599116D01*
X108441Y599110D01*
X108438Y599106D01*
X108430Y599089D01*
X108364Y598969D01*
X105534Y592136D01*
X100014Y586616D01*
X92803Y583629D01*
X84997Y583629D01*
G37*
%LPD*%
%LPC*%
G36*
X69862Y285777D02*
X69862Y285777D01*
X67538Y286740D01*
X66212Y288066D01*
X66138Y288119D01*
X66069Y288179D01*
X66038Y288191D01*
X66012Y288210D01*
X65925Y288237D01*
X65840Y288271D01*
X65799Y288275D01*
X65777Y288282D01*
X65745Y288281D01*
X65674Y288289D01*
X56842Y288289D01*
X21589Y323542D01*
X21589Y433378D01*
X36522Y448311D01*
X58054Y448311D01*
X58144Y448325D01*
X58235Y448333D01*
X58264Y448345D01*
X58296Y448350D01*
X58377Y448393D01*
X58461Y448429D01*
X58493Y448455D01*
X58514Y448466D01*
X58536Y448489D01*
X58592Y448534D01*
X59918Y449860D01*
X62242Y450823D01*
X64758Y450823D01*
X67082Y449860D01*
X68860Y448082D01*
X69147Y447390D01*
X69184Y447329D01*
X69214Y447263D01*
X69249Y447225D01*
X69276Y447181D01*
X69331Y447135D01*
X69380Y447082D01*
X69426Y447057D01*
X69466Y447024D01*
X69533Y446998D01*
X69596Y446964D01*
X69647Y446954D01*
X69695Y446936D01*
X69767Y446933D01*
X69838Y446920D01*
X69889Y446927D01*
X69941Y446925D01*
X70010Y446945D01*
X70081Y446956D01*
X70127Y446979D01*
X70177Y446994D01*
X70236Y447035D01*
X70300Y447067D01*
X70337Y447104D01*
X70379Y447134D01*
X70422Y447192D01*
X70472Y447243D01*
X70507Y447306D01*
X70526Y447331D01*
X70533Y447354D01*
X70553Y447390D01*
X70840Y448082D01*
X72618Y449860D01*
X74942Y450823D01*
X77458Y450823D01*
X79782Y449860D01*
X81560Y448082D01*
X82523Y445758D01*
X82523Y443242D01*
X81560Y440918D01*
X80234Y439592D01*
X80181Y439518D01*
X80121Y439449D01*
X80109Y439418D01*
X80090Y439392D01*
X80063Y439305D01*
X80029Y439220D01*
X80025Y439179D01*
X80018Y439157D01*
X80019Y439125D01*
X80011Y439054D01*
X80011Y424546D01*
X80025Y424456D01*
X80033Y424365D01*
X80045Y424336D01*
X80050Y424304D01*
X80093Y424223D01*
X80129Y424139D01*
X80155Y424107D01*
X80166Y424086D01*
X80189Y424064D01*
X80195Y424057D01*
X80204Y424042D01*
X80213Y424034D01*
X80234Y424008D01*
X81560Y422682D01*
X82523Y420358D01*
X82523Y417842D01*
X81560Y415518D01*
X79782Y413740D01*
X77458Y412777D01*
X74942Y412777D01*
X72618Y413740D01*
X70840Y415518D01*
X69877Y417842D01*
X69877Y420358D01*
X70840Y422682D01*
X72166Y424008D01*
X72210Y424069D01*
X72244Y424105D01*
X72250Y424118D01*
X72279Y424151D01*
X72291Y424182D01*
X72310Y424208D01*
X72337Y424295D01*
X72371Y424380D01*
X72375Y424421D01*
X72382Y424443D01*
X72381Y424475D01*
X72389Y424546D01*
X72389Y439054D01*
X72375Y439144D01*
X72367Y439235D01*
X72355Y439264D01*
X72350Y439296D01*
X72307Y439377D01*
X72271Y439461D01*
X72245Y439493D01*
X72234Y439514D01*
X72211Y439536D01*
X72166Y439592D01*
X70840Y440918D01*
X70553Y441610D01*
X70516Y441671D01*
X70486Y441737D01*
X70451Y441775D01*
X70424Y441819D01*
X70368Y441865D01*
X70320Y441918D01*
X70274Y441943D01*
X70234Y441976D01*
X70167Y442002D01*
X70104Y442036D01*
X70053Y442046D01*
X70005Y442064D01*
X69933Y442067D01*
X69862Y442080D01*
X69811Y442073D01*
X69759Y442075D01*
X69690Y442055D01*
X69619Y442044D01*
X69573Y442021D01*
X69523Y442006D01*
X69464Y441965D01*
X69400Y441933D01*
X69363Y441896D01*
X69321Y441866D01*
X69278Y441808D01*
X69228Y441757D01*
X69193Y441694D01*
X69174Y441669D01*
X69167Y441646D01*
X69147Y441610D01*
X68860Y440918D01*
X67082Y439140D01*
X64758Y438177D01*
X62242Y438177D01*
X59918Y439140D01*
X58592Y440466D01*
X58518Y440519D01*
X58449Y440579D01*
X58418Y440591D01*
X58392Y440610D01*
X58305Y440637D01*
X58220Y440671D01*
X58179Y440675D01*
X58157Y440682D01*
X58125Y440681D01*
X58054Y440689D01*
X39994Y440689D01*
X39904Y440675D01*
X39813Y440667D01*
X39783Y440655D01*
X39751Y440650D01*
X39670Y440607D01*
X39586Y440571D01*
X39554Y440545D01*
X39534Y440534D01*
X39511Y440511D01*
X39456Y440466D01*
X29434Y430444D01*
X29381Y430371D01*
X29321Y430301D01*
X29309Y430271D01*
X29290Y430245D01*
X29263Y430158D01*
X29229Y430073D01*
X29225Y430032D01*
X29218Y430010D01*
X29219Y429977D01*
X29211Y429906D01*
X29211Y327014D01*
X29225Y326924D01*
X29233Y326833D01*
X29245Y326803D01*
X29250Y326771D01*
X29293Y326690D01*
X29329Y326606D01*
X29355Y326574D01*
X29366Y326554D01*
X29389Y326531D01*
X29434Y326476D01*
X59776Y296134D01*
X59849Y296081D01*
X59919Y296021D01*
X59949Y296009D01*
X59975Y295990D01*
X60062Y295963D01*
X60147Y295929D01*
X60188Y295925D01*
X60210Y295918D01*
X60243Y295919D01*
X60314Y295911D01*
X65674Y295911D01*
X65764Y295925D01*
X65855Y295933D01*
X65884Y295945D01*
X65916Y295950D01*
X65997Y295993D01*
X66081Y296029D01*
X66113Y296055D01*
X66134Y296066D01*
X66156Y296089D01*
X66212Y296134D01*
X67538Y297460D01*
X69862Y298423D01*
X72378Y298423D01*
X74702Y297460D01*
X76480Y295682D01*
X77443Y293358D01*
X77443Y290842D01*
X76480Y288518D01*
X74702Y286740D01*
X72378Y285777D01*
X69862Y285777D01*
G37*
%LPD*%
%LPC*%
G36*
X128332Y260377D02*
X128332Y260377D01*
X126008Y261340D01*
X124230Y263118D01*
X123267Y265442D01*
X123267Y267958D01*
X124230Y270282D01*
X126008Y272060D01*
X128332Y273023D01*
X130848Y273023D01*
X133172Y272060D01*
X134498Y270734D01*
X134572Y270681D01*
X134641Y270621D01*
X134672Y270609D01*
X134698Y270590D01*
X134785Y270563D01*
X134870Y270529D01*
X134911Y270525D01*
X134933Y270518D01*
X134965Y270519D01*
X135036Y270511D01*
X315606Y270511D01*
X315696Y270525D01*
X315787Y270533D01*
X315817Y270545D01*
X315849Y270550D01*
X315930Y270593D01*
X316014Y270629D01*
X316046Y270655D01*
X316066Y270666D01*
X316089Y270689D01*
X316144Y270734D01*
X336354Y290944D01*
X336407Y291017D01*
X336467Y291087D01*
X336479Y291117D01*
X336498Y291143D01*
X336525Y291230D01*
X336559Y291315D01*
X336563Y291356D01*
X336570Y291378D01*
X336569Y291411D01*
X336577Y291482D01*
X336577Y293358D01*
X337540Y295682D01*
X339318Y297460D01*
X341642Y298423D01*
X344158Y298423D01*
X346482Y297460D01*
X348260Y295682D01*
X349223Y293358D01*
X349223Y290842D01*
X348260Y288518D01*
X346482Y286740D01*
X344158Y285777D01*
X342282Y285777D01*
X342192Y285763D01*
X342101Y285755D01*
X342071Y285743D01*
X342039Y285738D01*
X341958Y285695D01*
X341874Y285659D01*
X341842Y285633D01*
X341822Y285622D01*
X341799Y285599D01*
X341744Y285554D01*
X319078Y262889D01*
X135036Y262889D01*
X134946Y262875D01*
X134855Y262867D01*
X134826Y262855D01*
X134794Y262850D01*
X134713Y262807D01*
X134629Y262771D01*
X134597Y262745D01*
X134576Y262734D01*
X134554Y262711D01*
X134498Y262666D01*
X133172Y261340D01*
X130848Y260377D01*
X128332Y260377D01*
G37*
%LPD*%
%LPC*%
G36*
X456375Y311610D02*
X456375Y311610D01*
X454051Y312572D01*
X452272Y314351D01*
X451310Y316675D01*
X451310Y318551D01*
X451295Y318641D01*
X451288Y318732D01*
X451275Y318761D01*
X451270Y318793D01*
X451227Y318874D01*
X451192Y318958D01*
X451166Y318990D01*
X451155Y319011D01*
X451132Y319033D01*
X451087Y319089D01*
X364489Y405686D01*
X364489Y446078D01*
X374454Y456044D01*
X374507Y456117D01*
X374567Y456187D01*
X374579Y456217D01*
X374598Y456243D01*
X374625Y456330D01*
X374659Y456415D01*
X374663Y456456D01*
X374670Y456478D01*
X374669Y456511D01*
X374677Y456582D01*
X374677Y458458D01*
X375640Y460782D01*
X377418Y462560D01*
X379742Y463523D01*
X382258Y463523D01*
X384582Y462560D01*
X386360Y460782D01*
X387323Y458458D01*
X387323Y455942D01*
X386360Y453618D01*
X384582Y451840D01*
X382258Y450877D01*
X380382Y450877D01*
X380292Y450863D01*
X380201Y450855D01*
X380171Y450843D01*
X380139Y450838D01*
X380058Y450795D01*
X379974Y450759D01*
X379942Y450733D01*
X379922Y450722D01*
X379899Y450699D01*
X379844Y450654D01*
X372334Y443144D01*
X372281Y443071D01*
X372221Y443001D01*
X372209Y442971D01*
X372190Y442945D01*
X372163Y442858D01*
X372129Y442773D01*
X372125Y442732D01*
X372118Y442710D01*
X372119Y442677D01*
X372111Y442606D01*
X372111Y409159D01*
X372125Y409069D01*
X372133Y408978D01*
X372145Y408948D01*
X372150Y408916D01*
X372193Y408835D01*
X372229Y408751D01*
X372255Y408719D01*
X372266Y408699D01*
X372289Y408676D01*
X372334Y408620D01*
X456476Y324478D01*
X456550Y324425D01*
X456619Y324366D01*
X456650Y324353D01*
X456676Y324335D01*
X456763Y324308D01*
X456848Y324274D01*
X456888Y324269D01*
X456911Y324262D01*
X456943Y324263D01*
X457014Y324255D01*
X458890Y324255D01*
X461214Y323293D01*
X462993Y321514D01*
X463955Y319190D01*
X463955Y316675D01*
X462993Y314351D01*
X461214Y312572D01*
X458890Y311610D01*
X456375Y311610D01*
G37*
%LPD*%
%LPC*%
G36*
X290842Y184177D02*
X290842Y184177D01*
X288518Y185140D01*
X286740Y186918D01*
X285777Y189242D01*
X285777Y191758D01*
X286740Y194082D01*
X288066Y195408D01*
X288119Y195482D01*
X288179Y195551D01*
X288191Y195582D01*
X288210Y195608D01*
X288237Y195695D01*
X288271Y195780D01*
X288275Y195821D01*
X288282Y195843D01*
X288281Y195875D01*
X288289Y195946D01*
X288289Y211328D01*
X288286Y211348D01*
X288288Y211367D01*
X288266Y211469D01*
X288250Y211571D01*
X288240Y211588D01*
X288236Y211608D01*
X288183Y211697D01*
X288134Y211788D01*
X288120Y211802D01*
X288110Y211819D01*
X288031Y211886D01*
X287956Y211958D01*
X287938Y211966D01*
X287923Y211979D01*
X287827Y212018D01*
X287733Y212061D01*
X287713Y212063D01*
X287695Y212071D01*
X287528Y212089D01*
X183246Y212089D01*
X183156Y212075D01*
X183065Y212067D01*
X183036Y212055D01*
X183004Y212050D01*
X182923Y212007D01*
X182839Y211971D01*
X182807Y211945D01*
X182786Y211934D01*
X182764Y211911D01*
X182708Y211866D01*
X181382Y210540D01*
X179058Y209577D01*
X176542Y209577D01*
X174218Y210540D01*
X172440Y212318D01*
X171477Y214642D01*
X171477Y217158D01*
X172440Y219482D01*
X174218Y221260D01*
X176542Y222223D01*
X179058Y222223D01*
X181382Y221260D01*
X182708Y219934D01*
X182782Y219881D01*
X182851Y219821D01*
X182882Y219809D01*
X182908Y219790D01*
X182995Y219763D01*
X183080Y219729D01*
X183121Y219725D01*
X183143Y219718D01*
X183175Y219719D01*
X183246Y219711D01*
X287528Y219711D01*
X287548Y219714D01*
X287567Y219712D01*
X287669Y219734D01*
X287771Y219750D01*
X287788Y219760D01*
X287808Y219764D01*
X287897Y219817D01*
X287988Y219866D01*
X288002Y219880D01*
X288019Y219890D01*
X288086Y219969D01*
X288158Y220044D01*
X288166Y220062D01*
X288179Y220077D01*
X288218Y220173D01*
X288261Y220267D01*
X288263Y220287D01*
X288271Y220305D01*
X288289Y220472D01*
X288289Y235854D01*
X288275Y235944D01*
X288267Y236035D01*
X288255Y236064D01*
X288250Y236096D01*
X288207Y236177D01*
X288171Y236261D01*
X288145Y236293D01*
X288134Y236314D01*
X288111Y236336D01*
X288066Y236392D01*
X286740Y237718D01*
X285777Y240042D01*
X285777Y242558D01*
X286740Y244882D01*
X288518Y246660D01*
X290842Y247623D01*
X293358Y247623D01*
X295682Y246660D01*
X297460Y244882D01*
X298423Y242558D01*
X298423Y240042D01*
X297460Y237718D01*
X296134Y236392D01*
X296081Y236318D01*
X296021Y236249D01*
X296009Y236218D01*
X295990Y236192D01*
X295963Y236105D01*
X295929Y236020D01*
X295925Y235979D01*
X295918Y235957D01*
X295919Y235925D01*
X295911Y235854D01*
X295911Y195946D01*
X295925Y195856D01*
X295933Y195765D01*
X295945Y195736D01*
X295950Y195704D01*
X295993Y195623D01*
X296029Y195539D01*
X296055Y195507D01*
X296066Y195486D01*
X296089Y195464D01*
X296134Y195408D01*
X297460Y194082D01*
X298423Y191758D01*
X298423Y189242D01*
X297460Y186918D01*
X295682Y185140D01*
X293358Y184177D01*
X290842Y184177D01*
G37*
%LPD*%
%LPC*%
G36*
X209106Y723264D02*
X209106Y723264D01*
X201294Y731076D01*
X201294Y742124D01*
X209106Y749936D01*
X220154Y749936D01*
X228186Y741904D01*
X228260Y741851D01*
X228329Y741791D01*
X228359Y741779D01*
X228386Y741760D01*
X228473Y741733D01*
X228557Y741699D01*
X228598Y741695D01*
X228621Y741688D01*
X228653Y741689D01*
X228724Y741681D01*
X242022Y741681D01*
X242137Y741700D01*
X242253Y741717D01*
X242258Y741719D01*
X242265Y741720D01*
X242367Y741775D01*
X242472Y741828D01*
X242476Y741833D01*
X242482Y741836D01*
X242562Y741920D01*
X242644Y742004D01*
X242648Y742010D01*
X242651Y742014D01*
X242659Y742031D01*
X242725Y742151D01*
X243368Y743704D01*
X246896Y747232D01*
X251505Y749141D01*
X256495Y749141D01*
X261104Y747232D01*
X264632Y743704D01*
X266541Y739095D01*
X266541Y734105D01*
X264632Y729496D01*
X261104Y725968D01*
X256495Y724059D01*
X251505Y724059D01*
X246896Y725968D01*
X243368Y729496D01*
X242725Y731049D01*
X242664Y731149D01*
X242604Y731249D01*
X242599Y731253D01*
X242596Y731258D01*
X242505Y731333D01*
X242417Y731409D01*
X242411Y731411D01*
X242406Y731415D01*
X242298Y731457D01*
X242189Y731501D01*
X242181Y731502D01*
X242176Y731503D01*
X242158Y731504D01*
X242022Y731519D01*
X228724Y731519D01*
X228634Y731505D01*
X228543Y731497D01*
X228513Y731485D01*
X228481Y731480D01*
X228401Y731437D01*
X228317Y731401D01*
X228285Y731375D01*
X228264Y731364D01*
X228242Y731341D01*
X228186Y731296D01*
X220154Y723264D01*
X209106Y723264D01*
G37*
%LPD*%
%LPC*%
G36*
X84997Y536639D02*
X84997Y536639D01*
X77786Y539626D01*
X72266Y545146D01*
X69279Y552357D01*
X69279Y560163D01*
X72266Y567374D01*
X77786Y572894D01*
X84997Y575881D01*
X92803Y575881D01*
X100014Y572894D01*
X105534Y567374D01*
X108521Y560163D01*
X108521Y552357D01*
X105534Y545146D01*
X100014Y539626D01*
X92803Y536639D01*
X84997Y536639D01*
G37*
%LPD*%
%LPC*%
G36*
X270522Y615977D02*
X270522Y615977D01*
X268198Y616940D01*
X268142Y616996D01*
X268068Y617049D01*
X267999Y617109D01*
X267968Y617121D01*
X267942Y617140D01*
X267855Y617167D01*
X267770Y617201D01*
X267729Y617205D01*
X267707Y617212D01*
X267675Y617211D01*
X267604Y617219D01*
X239195Y617219D01*
X223519Y632895D01*
X223519Y650586D01*
X223500Y650700D01*
X223483Y650817D01*
X223481Y650822D01*
X223480Y650828D01*
X223425Y650931D01*
X223372Y651036D01*
X223367Y651040D01*
X223364Y651046D01*
X223280Y651126D01*
X223196Y651208D01*
X223190Y651212D01*
X223186Y651215D01*
X223169Y651223D01*
X223049Y651289D01*
X222629Y651463D01*
X219663Y654429D01*
X218058Y658303D01*
X218058Y662497D01*
X219663Y666371D01*
X222629Y669337D01*
X226503Y670942D01*
X230697Y670942D01*
X234571Y669337D01*
X237537Y666371D01*
X239142Y662497D01*
X239142Y658303D01*
X237537Y654429D01*
X234571Y651463D01*
X234151Y651289D01*
X234051Y651227D01*
X233951Y651167D01*
X233947Y651163D01*
X233942Y651159D01*
X233867Y651069D01*
X233791Y650980D01*
X233789Y650975D01*
X233785Y650970D01*
X233743Y650861D01*
X233699Y650752D01*
X233698Y650745D01*
X233697Y650740D01*
X233696Y650722D01*
X233681Y650586D01*
X233681Y637420D01*
X233695Y637330D01*
X233703Y637239D01*
X233715Y637209D01*
X233720Y637177D01*
X233763Y637096D01*
X233799Y637013D01*
X233825Y636980D01*
X233836Y636960D01*
X233859Y636938D01*
X233904Y636882D01*
X243182Y627604D01*
X243255Y627551D01*
X243325Y627491D01*
X243355Y627479D01*
X243381Y627460D01*
X243468Y627433D01*
X243553Y627399D01*
X243594Y627395D01*
X243616Y627388D01*
X243649Y627389D01*
X243720Y627381D01*
X267604Y627381D01*
X267694Y627395D01*
X267785Y627403D01*
X267814Y627415D01*
X267846Y627420D01*
X267927Y627463D01*
X268011Y627499D01*
X268043Y627525D01*
X268064Y627536D01*
X268086Y627559D01*
X268142Y627604D01*
X268198Y627660D01*
X270522Y628623D01*
X273038Y628623D01*
X275362Y627660D01*
X277140Y625882D01*
X278103Y623558D01*
X278103Y621042D01*
X277140Y618718D01*
X275362Y616940D01*
X273038Y615977D01*
X270522Y615977D01*
G37*
%LPD*%
%LPC*%
G36*
X455413Y349887D02*
X455413Y349887D01*
X453089Y350850D01*
X451311Y352628D01*
X450348Y354952D01*
X450348Y356748D01*
X450333Y356838D01*
X450326Y356929D01*
X450313Y356958D01*
X450308Y356990D01*
X450265Y357071D01*
X450230Y357155D01*
X450204Y357187D01*
X450193Y357208D01*
X450170Y357230D01*
X450125Y357286D01*
X382156Y425254D01*
X382083Y425307D01*
X382013Y425367D01*
X381983Y425379D01*
X381957Y425398D01*
X381870Y425425D01*
X381785Y425459D01*
X381744Y425463D01*
X381722Y425470D01*
X381689Y425469D01*
X381618Y425477D01*
X379742Y425477D01*
X377418Y426440D01*
X375640Y428218D01*
X374677Y430542D01*
X374677Y433058D01*
X375640Y435382D01*
X377418Y437160D01*
X379742Y438123D01*
X382258Y438123D01*
X384582Y437160D01*
X386360Y435382D01*
X387323Y433058D01*
X387323Y431182D01*
X387337Y431092D01*
X387345Y431001D01*
X387357Y430971D01*
X387362Y430939D01*
X387405Y430858D01*
X387441Y430774D01*
X387467Y430742D01*
X387478Y430722D01*
X387501Y430699D01*
X387546Y430644D01*
X455433Y362756D01*
X455507Y362703D01*
X455577Y362643D01*
X455607Y362631D01*
X455633Y362612D01*
X455720Y362585D01*
X455805Y362551D01*
X455846Y362547D01*
X455868Y362540D01*
X455900Y362541D01*
X455972Y362533D01*
X457928Y362533D01*
X460252Y361570D01*
X462031Y359792D01*
X462993Y357468D01*
X462993Y354952D01*
X462031Y352628D01*
X460252Y350850D01*
X457928Y349887D01*
X455413Y349887D01*
G37*
%LPD*%
%LPC*%
G36*
X468642Y501677D02*
X468642Y501677D01*
X466318Y502640D01*
X464992Y503966D01*
X464918Y504019D01*
X464849Y504079D01*
X464819Y504091D01*
X464792Y504110D01*
X464705Y504137D01*
X464620Y504171D01*
X464580Y504175D01*
X464557Y504182D01*
X464525Y504181D01*
X464454Y504189D01*
X438122Y504189D01*
X405156Y537154D01*
X405083Y537207D01*
X405013Y537267D01*
X404983Y537279D01*
X404957Y537298D01*
X404870Y537325D01*
X404785Y537359D01*
X404744Y537363D01*
X404722Y537370D01*
X404689Y537369D01*
X404618Y537377D01*
X402742Y537377D01*
X400418Y538340D01*
X398640Y540118D01*
X397677Y542442D01*
X397677Y544958D01*
X398640Y547282D01*
X400418Y549060D01*
X402742Y550023D01*
X405258Y550023D01*
X407582Y549060D01*
X409360Y547282D01*
X410323Y544958D01*
X410323Y543082D01*
X410337Y542992D01*
X410345Y542901D01*
X410357Y542871D01*
X410362Y542839D01*
X410405Y542758D01*
X410441Y542674D01*
X410467Y542642D01*
X410478Y542622D01*
X410501Y542599D01*
X410546Y542544D01*
X441056Y512034D01*
X441129Y511981D01*
X441199Y511921D01*
X441229Y511909D01*
X441255Y511890D01*
X441342Y511863D01*
X441427Y511829D01*
X441468Y511825D01*
X441490Y511818D01*
X441523Y511819D01*
X441594Y511811D01*
X464454Y511811D01*
X464544Y511825D01*
X464635Y511833D01*
X464665Y511845D01*
X464696Y511850D01*
X464777Y511893D01*
X464861Y511929D01*
X464893Y511955D01*
X464914Y511966D01*
X464936Y511989D01*
X464992Y512034D01*
X466318Y513360D01*
X468642Y514323D01*
X471158Y514323D01*
X473482Y513360D01*
X475260Y511582D01*
X476223Y509258D01*
X476223Y506742D01*
X475260Y504418D01*
X473482Y502640D01*
X471158Y501677D01*
X468642Y501677D01*
G37*
%LPD*%
%LPC*%
G36*
X176542Y311177D02*
X176542Y311177D01*
X174218Y312140D01*
X172892Y313466D01*
X172818Y313519D01*
X172749Y313579D01*
X172718Y313591D01*
X172692Y313610D01*
X172605Y313637D01*
X172520Y313671D01*
X172479Y313675D01*
X172457Y313682D01*
X172425Y313681D01*
X172354Y313689D01*
X151422Y313689D01*
X116056Y349054D01*
X115983Y349107D01*
X115913Y349167D01*
X115883Y349179D01*
X115857Y349198D01*
X115770Y349225D01*
X115685Y349259D01*
X115644Y349263D01*
X115622Y349270D01*
X115589Y349269D01*
X115518Y349277D01*
X113642Y349277D01*
X111318Y350240D01*
X109540Y352018D01*
X108577Y354342D01*
X108577Y356858D01*
X109540Y359182D01*
X111318Y360960D01*
X113642Y361923D01*
X116158Y361923D01*
X118482Y360960D01*
X120260Y359182D01*
X121223Y356858D01*
X121223Y354982D01*
X121237Y354892D01*
X121245Y354801D01*
X121257Y354771D01*
X121262Y354739D01*
X121305Y354658D01*
X121341Y354574D01*
X121367Y354542D01*
X121378Y354522D01*
X121401Y354499D01*
X121446Y354444D01*
X154356Y321534D01*
X154429Y321481D01*
X154499Y321421D01*
X154529Y321409D01*
X154555Y321390D01*
X154642Y321363D01*
X154727Y321329D01*
X154768Y321325D01*
X154790Y321318D01*
X154823Y321319D01*
X154894Y321311D01*
X172354Y321311D01*
X172444Y321325D01*
X172535Y321333D01*
X172564Y321345D01*
X172596Y321350D01*
X172677Y321393D01*
X172761Y321429D01*
X172793Y321455D01*
X172814Y321466D01*
X172836Y321489D01*
X172892Y321534D01*
X174218Y322860D01*
X176542Y323823D01*
X179058Y323823D01*
X181382Y322860D01*
X183160Y321082D01*
X184123Y318758D01*
X184123Y316242D01*
X183160Y313918D01*
X181382Y312140D01*
X179058Y311177D01*
X176542Y311177D01*
G37*
%LPD*%
%LPC*%
G36*
X518602Y354357D02*
X518602Y354357D01*
X516278Y355320D01*
X514500Y357098D01*
X513537Y359422D01*
X513537Y361938D01*
X514500Y364262D01*
X515826Y365588D01*
X515879Y365662D01*
X515939Y365731D01*
X515951Y365762D01*
X515970Y365788D01*
X515997Y365875D01*
X516031Y365960D01*
X516035Y366001D01*
X516042Y366023D01*
X516041Y366055D01*
X516049Y366126D01*
X516049Y418046D01*
X516035Y418136D01*
X516027Y418227D01*
X516015Y418257D01*
X516010Y418289D01*
X515967Y418370D01*
X515931Y418454D01*
X515905Y418486D01*
X515894Y418506D01*
X515871Y418529D01*
X515826Y418584D01*
X509156Y425254D01*
X509083Y425307D01*
X509013Y425367D01*
X508983Y425379D01*
X508957Y425398D01*
X508870Y425425D01*
X508785Y425459D01*
X508744Y425463D01*
X508722Y425470D01*
X508689Y425469D01*
X508618Y425477D01*
X506742Y425477D01*
X504418Y426440D01*
X502640Y428218D01*
X501677Y430542D01*
X501677Y433058D01*
X502640Y435382D01*
X504418Y437160D01*
X506742Y438123D01*
X509258Y438123D01*
X511582Y437160D01*
X513360Y435382D01*
X514323Y433058D01*
X514323Y431182D01*
X514337Y431092D01*
X514345Y431001D01*
X514357Y430971D01*
X514362Y430939D01*
X514405Y430858D01*
X514441Y430774D01*
X514467Y430742D01*
X514478Y430722D01*
X514501Y430699D01*
X514546Y430644D01*
X523671Y421518D01*
X523671Y366126D01*
X523685Y366036D01*
X523693Y365945D01*
X523705Y365916D01*
X523710Y365884D01*
X523753Y365803D01*
X523789Y365719D01*
X523815Y365687D01*
X523826Y365666D01*
X523849Y365644D01*
X523894Y365588D01*
X525220Y364262D01*
X526183Y361938D01*
X526183Y359422D01*
X525220Y357098D01*
X523442Y355320D01*
X521118Y354357D01*
X518602Y354357D01*
G37*
%LPD*%
%LPC*%
G36*
X492268Y695959D02*
X492268Y695959D01*
X486667Y698280D01*
X482380Y702567D01*
X480059Y708168D01*
X480059Y714232D01*
X482380Y719833D01*
X486667Y724120D01*
X492268Y726441D01*
X498332Y726441D01*
X503933Y724120D01*
X508220Y719833D01*
X510541Y714232D01*
X510541Y708168D01*
X508220Y702567D01*
X503933Y698280D01*
X498332Y695959D01*
X492268Y695959D01*
G37*
%LPD*%
%LPC*%
G36*
X85868Y695959D02*
X85868Y695959D01*
X80267Y698280D01*
X75980Y702567D01*
X73659Y708168D01*
X73659Y714232D01*
X75980Y719833D01*
X80267Y724120D01*
X85868Y726441D01*
X91932Y726441D01*
X97533Y724120D01*
X101820Y719833D01*
X104141Y714232D01*
X104141Y708168D01*
X101820Y702567D01*
X97533Y698280D01*
X91932Y695959D01*
X85868Y695959D01*
G37*
%LPD*%
%LPC*%
G36*
X375476Y151764D02*
X375476Y151764D01*
X367664Y159576D01*
X367664Y170624D01*
X375476Y178436D01*
X386524Y178436D01*
X394336Y170624D01*
X394336Y159576D01*
X386524Y151764D01*
X375476Y151764D01*
G37*
%LPD*%
%LPC*%
G36*
X340042Y211177D02*
X340042Y211177D01*
X337718Y212140D01*
X335940Y213918D01*
X334977Y216242D01*
X334977Y218758D01*
X335940Y221082D01*
X337266Y222408D01*
X337319Y222482D01*
X337379Y222551D01*
X337391Y222582D01*
X337410Y222608D01*
X337437Y222695D01*
X337471Y222780D01*
X337475Y222821D01*
X337482Y222843D01*
X337481Y222875D01*
X337489Y222946D01*
X337489Y253266D01*
X337487Y253280D01*
X337488Y253291D01*
X337487Y253296D01*
X337488Y253305D01*
X337466Y253407D01*
X337450Y253509D01*
X337440Y253526D01*
X337436Y253546D01*
X337383Y253635D01*
X337334Y253726D01*
X337320Y253740D01*
X337310Y253757D01*
X337231Y253824D01*
X337156Y253896D01*
X337138Y253904D01*
X337123Y253917D01*
X337027Y253956D01*
X336933Y253999D01*
X336913Y254001D01*
X336895Y254009D01*
X336728Y254027D01*
X336562Y254027D01*
X334238Y254990D01*
X332460Y256768D01*
X331497Y259092D01*
X331497Y261608D01*
X332460Y263932D01*
X334238Y265710D01*
X336562Y266673D01*
X339078Y266673D01*
X341402Y265710D01*
X343180Y263932D01*
X344143Y261608D01*
X344143Y259732D01*
X344157Y259642D01*
X344165Y259551D01*
X344177Y259521D01*
X344182Y259489D01*
X344225Y259408D01*
X344261Y259324D01*
X344287Y259292D01*
X344298Y259272D01*
X344321Y259249D01*
X344366Y259194D01*
X345111Y258448D01*
X345111Y222946D01*
X345125Y222856D01*
X345133Y222765D01*
X345145Y222736D01*
X345150Y222704D01*
X345193Y222623D01*
X345229Y222539D01*
X345255Y222507D01*
X345266Y222486D01*
X345289Y222464D01*
X345334Y222408D01*
X346660Y221082D01*
X347623Y218758D01*
X347623Y216242D01*
X346660Y213918D01*
X344882Y212140D01*
X342558Y211177D01*
X340042Y211177D01*
G37*
%LPD*%
%LPC*%
G36*
X240042Y565177D02*
X240042Y565177D01*
X237718Y566140D01*
X235940Y567918D01*
X234977Y570242D01*
X234977Y572118D01*
X234963Y572208D01*
X234955Y572299D01*
X234943Y572329D01*
X234938Y572361D01*
X234895Y572442D01*
X234859Y572526D01*
X234833Y572558D01*
X234822Y572578D01*
X234799Y572601D01*
X234754Y572656D01*
X217056Y590354D01*
X216983Y590407D01*
X216913Y590467D01*
X216883Y590479D01*
X216857Y590498D01*
X216770Y590525D01*
X216685Y590559D01*
X216644Y590563D01*
X216622Y590570D01*
X216589Y590569D01*
X216518Y590577D01*
X214642Y590577D01*
X212318Y591540D01*
X210540Y593318D01*
X209577Y595642D01*
X209577Y598158D01*
X210540Y600482D01*
X212318Y602260D01*
X214642Y603223D01*
X217158Y603223D01*
X219482Y602260D01*
X221260Y600482D01*
X222223Y598158D01*
X222223Y596282D01*
X222237Y596192D01*
X222245Y596101D01*
X222257Y596071D01*
X222262Y596039D01*
X222305Y595958D01*
X222341Y595874D01*
X222367Y595842D01*
X222378Y595822D01*
X222401Y595799D01*
X222446Y595744D01*
X240144Y578046D01*
X240217Y577993D01*
X240287Y577933D01*
X240317Y577921D01*
X240343Y577902D01*
X240430Y577875D01*
X240515Y577841D01*
X240556Y577837D01*
X240578Y577830D01*
X240611Y577831D01*
X240682Y577823D01*
X242558Y577823D01*
X244882Y576860D01*
X246660Y575082D01*
X247623Y572758D01*
X247623Y570242D01*
X246660Y567918D01*
X244882Y566140D01*
X242558Y565177D01*
X240042Y565177D01*
G37*
%LPD*%
%LPC*%
G36*
X361962Y562637D02*
X361962Y562637D01*
X359638Y563600D01*
X357860Y565378D01*
X356897Y567702D01*
X356897Y570218D01*
X357860Y572542D01*
X358691Y573373D01*
X358703Y573389D01*
X358718Y573402D01*
X358775Y573489D01*
X358835Y573573D01*
X358841Y573592D01*
X358851Y573609D01*
X358877Y573709D01*
X358907Y573808D01*
X358907Y573828D01*
X358912Y573847D01*
X358903Y573950D01*
X358901Y574054D01*
X358894Y574072D01*
X358892Y574092D01*
X358852Y574187D01*
X358816Y574285D01*
X358804Y574300D01*
X358796Y574319D01*
X358691Y574450D01*
X345326Y587814D01*
X345253Y587867D01*
X345183Y587927D01*
X345153Y587939D01*
X345127Y587958D01*
X345040Y587985D01*
X344955Y588019D01*
X344914Y588023D01*
X344892Y588030D01*
X344859Y588029D01*
X344788Y588037D01*
X342912Y588037D01*
X340588Y589000D01*
X338810Y590778D01*
X337847Y593102D01*
X337847Y595618D01*
X338810Y597942D01*
X340588Y599720D01*
X342912Y600683D01*
X345428Y600683D01*
X347752Y599720D01*
X349530Y597942D01*
X350493Y595618D01*
X350493Y593742D01*
X350507Y593652D01*
X350515Y593561D01*
X350527Y593531D01*
X350532Y593499D01*
X350575Y593418D01*
X350611Y593334D01*
X350637Y593302D01*
X350648Y593282D01*
X350671Y593259D01*
X350716Y593204D01*
X367031Y576888D01*
X367031Y574406D01*
X367045Y574316D01*
X367053Y574225D01*
X367065Y574196D01*
X367070Y574164D01*
X367113Y574083D01*
X367149Y573999D01*
X367175Y573967D01*
X367186Y573946D01*
X367209Y573924D01*
X367254Y573868D01*
X368580Y572542D01*
X369543Y570218D01*
X369543Y567702D01*
X368580Y565378D01*
X366802Y563600D01*
X364478Y562637D01*
X361962Y562637D01*
G37*
%LPD*%
%LPC*%
G36*
X269252Y565177D02*
X269252Y565177D01*
X266928Y566140D01*
X265150Y567918D01*
X264187Y570242D01*
X264187Y572758D01*
X265150Y575082D01*
X266928Y576860D01*
X268517Y577518D01*
X268573Y577553D01*
X268633Y577578D01*
X268698Y577630D01*
X268726Y577648D01*
X268739Y577663D01*
X268764Y577683D01*
X269154Y578074D01*
X284284Y593204D01*
X284337Y593277D01*
X284397Y593347D01*
X284409Y593377D01*
X284428Y593403D01*
X284455Y593490D01*
X284489Y593575D01*
X284493Y593616D01*
X284500Y593638D01*
X284499Y593671D01*
X284507Y593742D01*
X284507Y595618D01*
X285470Y597942D01*
X287248Y599720D01*
X289572Y600683D01*
X292088Y600683D01*
X294412Y599720D01*
X296190Y597942D01*
X297153Y595618D01*
X297153Y593102D01*
X296190Y590778D01*
X294412Y589000D01*
X292088Y588037D01*
X290212Y588037D01*
X290122Y588023D01*
X290031Y588015D01*
X290001Y588003D01*
X289969Y587998D01*
X289888Y587955D01*
X289804Y587919D01*
X289772Y587893D01*
X289752Y587882D01*
X289729Y587859D01*
X289674Y587814D01*
X276543Y574684D01*
X276476Y574590D01*
X276405Y574496D01*
X276403Y574489D01*
X276400Y574484D01*
X276366Y574374D01*
X276329Y574262D01*
X276329Y574255D01*
X276327Y574249D01*
X276331Y574133D01*
X276332Y574016D01*
X276334Y574008D01*
X276334Y574004D01*
X276340Y573986D01*
X276378Y573855D01*
X276833Y572758D01*
X276833Y570242D01*
X275870Y567918D01*
X274092Y566140D01*
X271768Y565177D01*
X269252Y565177D01*
G37*
%LPD*%
%LPC*%
G36*
X369823Y738123D02*
X369823Y738123D01*
X369823Y749936D01*
X373824Y749936D01*
X380462Y743298D01*
X380478Y743286D01*
X380490Y743271D01*
X380578Y743215D01*
X380661Y743154D01*
X380680Y743148D01*
X380697Y743138D01*
X380798Y743112D01*
X380897Y743082D01*
X380916Y743082D01*
X380936Y743078D01*
X381039Y743086D01*
X381142Y743088D01*
X381161Y743095D01*
X381181Y743097D01*
X381276Y743137D01*
X381373Y743173D01*
X381389Y743185D01*
X381407Y743193D01*
X381538Y743298D01*
X388176Y749936D01*
X392177Y749936D01*
X392177Y738123D01*
X369823Y738123D01*
G37*
%LPD*%
%LPC*%
G36*
X369823Y723264D02*
X369823Y723264D01*
X369823Y735077D01*
X392177Y735077D01*
X392177Y723264D01*
X388176Y723264D01*
X381538Y729902D01*
X381522Y729914D01*
X381510Y729929D01*
X381422Y729986D01*
X381339Y730046D01*
X381320Y730052D01*
X381303Y730062D01*
X381202Y730088D01*
X381103Y730118D01*
X381084Y730118D01*
X381064Y730122D01*
X380961Y730114D01*
X380858Y730112D01*
X380839Y730105D01*
X380819Y730103D01*
X380724Y730063D01*
X380627Y730027D01*
X380611Y730015D01*
X380593Y730007D01*
X380462Y729902D01*
X373824Y723264D01*
X369823Y723264D01*
G37*
%LPD*%
%LPC*%
G36*
X530859Y712723D02*
X530859Y712723D01*
X530859Y724234D01*
X531032Y724881D01*
X531367Y725460D01*
X531840Y725933D01*
X532419Y726268D01*
X533066Y726441D01*
X544577Y726441D01*
X544577Y712723D01*
X530859Y712723D01*
G37*
%LPD*%
%LPC*%
G36*
X547623Y695959D02*
X547623Y695959D01*
X547623Y709677D01*
X561341Y709677D01*
X561341Y698166D01*
X561168Y697519D01*
X560833Y696940D01*
X560360Y696467D01*
X559781Y696132D01*
X559134Y695959D01*
X547623Y695959D01*
G37*
%LPD*%
%LPC*%
G36*
X533066Y695959D02*
X533066Y695959D01*
X532419Y696132D01*
X531840Y696467D01*
X531367Y696940D01*
X531032Y697519D01*
X530859Y698166D01*
X530859Y709677D01*
X544577Y709677D01*
X544577Y695959D01*
X533066Y695959D01*
G37*
%LPD*%
%LPC*%
G36*
X395223Y738123D02*
X395223Y738123D01*
X395223Y749936D01*
X399224Y749936D01*
X407036Y742124D01*
X407036Y738123D01*
X395223Y738123D01*
G37*
%LPD*%
%LPC*%
G36*
X39623Y674623D02*
X39623Y674623D01*
X39623Y686436D01*
X43624Y686436D01*
X51436Y678624D01*
X51436Y674623D01*
X39623Y674623D01*
G37*
%LPD*%
%LPC*%
G36*
X24764Y674623D02*
X24764Y674623D01*
X24764Y678624D01*
X32576Y686436D01*
X36577Y686436D01*
X36577Y674623D01*
X24764Y674623D01*
G37*
%LPD*%
%LPC*%
G36*
X39623Y659764D02*
X39623Y659764D01*
X39623Y671577D01*
X51436Y671577D01*
X51436Y667576D01*
X43624Y659764D01*
X39623Y659764D01*
G37*
%LPD*%
%LPC*%
G36*
X395223Y723264D02*
X395223Y723264D01*
X395223Y735077D01*
X407036Y735077D01*
X407036Y731076D01*
X399224Y723264D01*
X395223Y723264D01*
G37*
%LPD*%
%LPC*%
G36*
X354964Y738123D02*
X354964Y738123D01*
X354964Y742124D01*
X362776Y749936D01*
X366777Y749936D01*
X366777Y738123D01*
X354964Y738123D01*
G37*
%LPD*%
%LPC*%
G36*
X126364Y166623D02*
X126364Y166623D01*
X126364Y170624D01*
X134176Y178436D01*
X138177Y178436D01*
X138177Y166623D01*
X126364Y166623D01*
G37*
%LPD*%
%LPC*%
G36*
X362776Y723264D02*
X362776Y723264D01*
X354964Y731076D01*
X354964Y735077D01*
X366777Y735077D01*
X366777Y723264D01*
X362776Y723264D01*
G37*
%LPD*%
%LPC*%
G36*
X32576Y659764D02*
X32576Y659764D01*
X24764Y667576D01*
X24764Y671577D01*
X36577Y671577D01*
X36577Y659764D01*
X32576Y659764D01*
G37*
%LPD*%
%LPC*%
G36*
X204723Y661923D02*
X204723Y661923D01*
X204723Y670942D01*
X207567Y670942D01*
X213742Y664767D01*
X213742Y661923D01*
X204723Y661923D01*
G37*
%LPD*%
%LPC*%
G36*
X166623Y661923D02*
X166623Y661923D01*
X166623Y670942D01*
X169467Y670942D01*
X175642Y664767D01*
X175642Y661923D01*
X166623Y661923D01*
G37*
%LPD*%
%LPC*%
G36*
X382523Y357123D02*
X382523Y357123D01*
X382523Y366142D01*
X385367Y366142D01*
X391542Y359967D01*
X391542Y357123D01*
X382523Y357123D01*
G37*
%LPD*%
%LPC*%
G36*
X192658Y661923D02*
X192658Y661923D01*
X192658Y664767D01*
X198833Y670942D01*
X201677Y670942D01*
X201677Y661923D01*
X192658Y661923D01*
G37*
%LPD*%
%LPC*%
G36*
X154558Y661923D02*
X154558Y661923D01*
X154558Y664767D01*
X160733Y670942D01*
X163577Y670942D01*
X163577Y661923D01*
X154558Y661923D01*
G37*
%LPD*%
%LPC*%
G36*
X370458Y357123D02*
X370458Y357123D01*
X370458Y359967D01*
X376633Y366142D01*
X379477Y366142D01*
X379477Y357123D01*
X370458Y357123D01*
G37*
%LPD*%
%LPC*%
G36*
X166623Y649858D02*
X166623Y649858D01*
X166623Y658877D01*
X175642Y658877D01*
X175642Y656033D01*
X169467Y649858D01*
X166623Y649858D01*
G37*
%LPD*%
%LPC*%
G36*
X204723Y649858D02*
X204723Y649858D01*
X204723Y658877D01*
X213742Y658877D01*
X213742Y656033D01*
X207567Y649858D01*
X204723Y649858D01*
G37*
%LPD*%
%LPC*%
G36*
X160733Y649858D02*
X160733Y649858D01*
X154558Y656033D01*
X154558Y658877D01*
X163577Y658877D01*
X163577Y649858D01*
X160733Y649858D01*
G37*
%LPD*%
%LPC*%
G36*
X198833Y649858D02*
X198833Y649858D01*
X192658Y656033D01*
X192658Y658877D01*
X201677Y658877D01*
X201677Y649858D01*
X198833Y649858D01*
G37*
%LPD*%
%LPC*%
G36*
X38099Y673099D02*
X38099Y673099D01*
X38099Y673101D01*
X38101Y673101D01*
X38101Y673099D01*
X38099Y673099D01*
G37*
%LPD*%
%LPC*%
G36*
X393699Y736599D02*
X393699Y736599D01*
X393699Y736601D01*
X393701Y736601D01*
X393701Y736599D01*
X393699Y736599D01*
G37*
%LPD*%
%LPC*%
G36*
X546099Y711199D02*
X546099Y711199D01*
X546099Y711201D01*
X546101Y711201D01*
X546101Y711199D01*
X546099Y711199D01*
G37*
%LPD*%
%LPC*%
G36*
X368299Y736599D02*
X368299Y736599D01*
X368299Y736601D01*
X368301Y736601D01*
X368301Y736599D01*
X368299Y736599D01*
G37*
%LPD*%
%LPC*%
G36*
X165099Y660399D02*
X165099Y660399D01*
X165099Y660401D01*
X165101Y660401D01*
X165101Y660399D01*
X165099Y660399D01*
G37*
%LPD*%
%LPC*%
G36*
X203199Y660399D02*
X203199Y660399D01*
X203199Y660401D01*
X203201Y660401D01*
X203201Y660399D01*
X203199Y660399D01*
G37*
%LPD*%
D10*
X214630Y736600D03*
D11*
X165100Y660400D03*
D12*
X139700Y660400D03*
D13*
X203200Y660400D03*
D12*
X228600Y660400D03*
D11*
X381000Y355600D03*
D12*
X355600Y355600D03*
D14*
X254000Y736600D03*
D15*
X330200Y736600D03*
D10*
X393700Y736600D03*
X38100Y673100D03*
X368300Y736600D03*
X203200Y165100D03*
X165100Y165100D03*
X381000Y165100D03*
D16*
X381000Y698500D03*
D17*
X381000Y673100D03*
X381000Y647700D03*
D18*
X139700Y711200D03*
D19*
X88900Y711200D03*
X38100Y711200D03*
D10*
X139700Y165100D03*
D20*
X88900Y650240D03*
D21*
X88900Y603250D03*
X88900Y556260D03*
D22*
X66400Y685800D03*
D23*
X81400Y685800D03*
X96400Y685800D03*
X111400Y685800D03*
D18*
X342900Y457200D03*
D19*
X292100Y457200D03*
X241300Y457200D03*
D18*
X342900Y508000D03*
D19*
X292100Y508000D03*
X241300Y508000D03*
D18*
X546100Y711200D03*
D19*
X495300Y711200D03*
X444500Y711200D03*
D24*
X444500Y654050D03*
D25*
X444500Y603250D03*
X444500Y552450D03*
X495300Y654050D03*
X495300Y603250D03*
X495300Y552450D03*
X546100Y654050D03*
X546100Y603250D03*
X546100Y552450D03*
D26*
X203200Y533400D03*
X330200Y533400D03*
X246380Y224642D03*
X288290Y336550D03*
X76200Y304800D03*
X255270Y636270D03*
X393700Y190500D03*
X139700Y203200D03*
X520700Y254000D03*
X266330Y291730D03*
X25400Y533400D03*
X215900Y596900D03*
D27*
X241300Y571500D01*
D26*
X241300Y571500D03*
X270510Y571500D03*
D27*
X270510Y574040D02*
X290830Y594360D01*
X270510Y574040D02*
X270510Y571500D01*
D26*
X290830Y594360D03*
X344170Y594360D03*
D27*
X363220Y575310D01*
X363220Y568960D01*
D26*
X363220Y568960D03*
X101600Y246380D03*
D27*
X88900Y259080D01*
X66040Y365760D02*
X53340Y365760D01*
D26*
X53340Y365760D03*
D27*
X88900Y342900D02*
X88900Y259080D01*
X88900Y342900D02*
X66040Y365760D01*
D26*
X125730Y317500D03*
D27*
X113030Y304800D01*
X113030Y257810D01*
X101600Y246380D01*
D26*
X292100Y304800D03*
D27*
X342900Y355600D01*
X355600Y355600D01*
D26*
X508000Y215900D03*
D27*
X508000Y177800D01*
D26*
X508000Y177800D03*
X292100Y241300D03*
D27*
X292100Y215900D01*
D26*
X292100Y190500D03*
D27*
X292100Y215900D01*
D26*
X215794Y393725D03*
D27*
X215769Y393700D01*
X63500Y393700D01*
X53340Y383540D01*
X53340Y365760D01*
X508000Y292100D02*
X508000Y215900D01*
D26*
X508000Y292100D03*
X520700Y317500D03*
D27*
X520700Y330200D01*
X542290Y351790D02*
X542290Y364490D01*
D26*
X542290Y364490D03*
D27*
X542290Y351790D02*
X520700Y330200D01*
D26*
X177800Y215900D03*
D27*
X292100Y215900D01*
D26*
X411452Y342900D03*
D27*
X368300Y342900D01*
X355600Y355600D01*
D28*
X368300Y698500D02*
X330200Y736600D01*
X368300Y698500D02*
X381000Y698500D01*
D26*
X271780Y622300D03*
D28*
X571119Y718765D02*
X571119Y304800D01*
X571119Y165100D01*
X546100Y140081D01*
X203200Y190500D02*
X38100Y190500D01*
X19050Y209550D01*
X19050Y298450D02*
X25400Y304800D01*
D26*
X25400Y304800D03*
D28*
X317500Y140081D02*
X546100Y140081D01*
X317500Y140081D02*
X253619Y140081D01*
X203200Y190500D01*
X19050Y209550D02*
X19050Y298450D01*
D26*
X508000Y304800D03*
D28*
X571119Y304800D01*
D26*
X342900Y317500D03*
X335308Y374650D03*
D28*
X571119Y718765D02*
X528265Y761619D01*
X355219Y761619D02*
X330200Y736600D01*
X355219Y761619D02*
X528265Y761619D01*
X335308Y374650D02*
X304800Y344142D01*
X304800Y330200D01*
X279400Y304800D01*
X279400Y292100D01*
X292100Y279400D01*
X304800Y279400D01*
X342900Y317500D01*
X228600Y635000D02*
X228600Y660400D01*
X228600Y635000D02*
X241300Y622300D01*
X271780Y622300D01*
D26*
X300909Y254000D03*
D28*
X317500Y237409D02*
X317500Y140081D01*
X317500Y237409D02*
X300909Y254000D01*
D26*
X337820Y260350D03*
X341300Y217500D03*
D27*
X341300Y256870D01*
X337820Y260350D01*
D28*
X254000Y736600D02*
X214630Y736600D01*
X381000Y647700D02*
X444500Y711200D01*
X63500Y736600D02*
X38100Y711200D01*
X63500Y736600D02*
X114300Y736600D01*
X177800Y736600D01*
X266700Y647700D01*
X381000Y647700D01*
X139700Y660400D02*
X122520Y677580D01*
X122520Y690406D01*
X114300Y698626D01*
X114300Y736600D01*
D27*
X88900Y603250D02*
X146050Y603250D01*
X184150Y641350D02*
X184150Y680720D01*
D26*
X184150Y680720D03*
D27*
X184150Y641350D02*
X146050Y603250D01*
D26*
X63500Y444500D03*
D27*
X58420Y292100D02*
X71120Y292100D01*
X58420Y292100D02*
X25400Y325120D01*
D26*
X71120Y292100D03*
D27*
X63500Y444500D02*
X38100Y444500D01*
X25400Y431800D01*
X25400Y325120D01*
D26*
X76200Y419100D03*
D27*
X76200Y444500D01*
D26*
X76200Y444500D03*
D27*
X12700Y177800D02*
X25400Y165100D01*
X119045Y165100D02*
X133650Y150495D01*
X150495Y150495D02*
X165100Y165100D01*
X12700Y177800D02*
X12700Y601932D01*
X25400Y165100D02*
X119045Y165100D01*
X133650Y150495D02*
X150495Y150495D01*
X76250Y680650D02*
X81400Y685800D01*
X76250Y680650D02*
X76250Y678182D01*
X12700Y614632D02*
X12700Y601932D01*
X12700Y614632D02*
X76250Y678182D01*
D26*
X381000Y457200D03*
X457632Y317932D03*
D27*
X368300Y407265D01*
X368300Y444500D02*
X381000Y457200D01*
X368300Y444500D02*
X368300Y407265D01*
D26*
X381000Y431800D03*
D27*
X456590Y356210D01*
X456671Y356210D01*
D26*
X456671Y356210D03*
X558800Y330200D03*
D27*
X558800Y495300D01*
X520700Y533400D01*
X520700Y571500D01*
D26*
X520700Y571500D03*
X469900Y508000D03*
X508000Y431800D03*
D27*
X519860Y419940D01*
X519860Y360680D01*
D26*
X519860Y360680D03*
X404000Y543700D03*
D27*
X439700Y508000D01*
X469900Y508000D01*
D26*
X261620Y431800D03*
D27*
X261620Y528320D02*
X304800Y571500D01*
X261620Y528320D02*
X261620Y431800D01*
X304800Y609600D02*
X319380Y624180D01*
X304800Y609600D02*
X304800Y571500D01*
X319380Y624180D02*
X393700Y624180D01*
X414630Y624180D02*
X444500Y654050D01*
X414630Y624180D02*
X393700Y624180D01*
D26*
X177800Y317500D03*
X114900Y355600D03*
D27*
X153000Y317500D01*
X177800Y317500D01*
D26*
X342900Y292100D03*
D27*
X317500Y266700D01*
X129590Y266700D01*
D26*
X129590Y266700D03*
X292100Y361950D03*
D27*
X275590Y378460D01*
X330200Y609600D02*
X419100Y609600D01*
X275590Y529590D02*
X275590Y378460D01*
X275590Y529590D02*
X317500Y571500D01*
X317500Y596900D01*
X330200Y609600D01*
X421610Y612731D02*
X435019Y626140D01*
X467390Y626140D02*
X495300Y654050D01*
X421610Y612731D02*
X421610Y612110D01*
X419100Y609600D01*
X435019Y626140D02*
X467390Y626140D01*
X342900Y457200D02*
X292100Y457200D01*
X292100Y393700D01*
D26*
X292100Y393700D03*
D27*
X292100Y508000D02*
X342900Y508000D01*
D26*
X457200Y228600D03*
D27*
X457200Y279400D01*
X495300Y444500D02*
X520700Y469900D01*
X546100Y469900D01*
D26*
X546100Y469900D03*
D27*
X495300Y317500D02*
X457200Y279400D01*
X495300Y317500D02*
X495300Y444500D01*
X457200Y520700D02*
X469900Y533400D01*
D26*
X457200Y520700D03*
D27*
X495300Y603250D02*
X546100Y654050D01*
X495300Y603250D02*
X469900Y577850D01*
X469900Y533400D01*
M02*
