G04 EAGLE Gerber RS-274X export*
G75*
%MOMM*%
%FSLAX34Y34*%
%LPD*%
%INSilkscreen Bottom*%
%IPPOS*%
%AMOC8*
5,1,8,0,0,1.08239X$1,22.5*%
G01*
%ADD10C,0.127000*%
%ADD11C,0.152400*%
%ADD12C,0.025400*%


D10*
X79920Y857250D02*
X79923Y857470D01*
X79931Y857691D01*
X79944Y857911D01*
X79963Y858130D01*
X79988Y858349D01*
X80017Y858568D01*
X80052Y858785D01*
X80093Y859002D01*
X80138Y859218D01*
X80189Y859432D01*
X80245Y859645D01*
X80307Y859857D01*
X80373Y860067D01*
X80445Y860275D01*
X80522Y860482D01*
X80604Y860686D01*
X80690Y860889D01*
X80782Y861089D01*
X80879Y861288D01*
X80980Y861483D01*
X81087Y861676D01*
X81198Y861867D01*
X81313Y862054D01*
X81433Y862239D01*
X81558Y862421D01*
X81687Y862599D01*
X81821Y862775D01*
X81958Y862947D01*
X82100Y863115D01*
X82246Y863281D01*
X82396Y863442D01*
X82550Y863600D01*
X82708Y863754D01*
X82869Y863904D01*
X83035Y864050D01*
X83203Y864192D01*
X83375Y864329D01*
X83551Y864463D01*
X83729Y864592D01*
X83911Y864717D01*
X84096Y864837D01*
X84283Y864952D01*
X84474Y865063D01*
X84667Y865170D01*
X84862Y865271D01*
X85061Y865368D01*
X85261Y865460D01*
X85464Y865546D01*
X85668Y865628D01*
X85875Y865705D01*
X86083Y865777D01*
X86293Y865843D01*
X86505Y865905D01*
X86718Y865961D01*
X86932Y866012D01*
X87148Y866057D01*
X87365Y866098D01*
X87582Y866133D01*
X87801Y866162D01*
X88020Y866187D01*
X88239Y866206D01*
X88459Y866219D01*
X88680Y866227D01*
X88900Y866230D01*
X89120Y866227D01*
X89341Y866219D01*
X89561Y866206D01*
X89780Y866187D01*
X89999Y866162D01*
X90218Y866133D01*
X90435Y866098D01*
X90652Y866057D01*
X90868Y866012D01*
X91082Y865961D01*
X91295Y865905D01*
X91507Y865843D01*
X91717Y865777D01*
X91925Y865705D01*
X92132Y865628D01*
X92336Y865546D01*
X92539Y865460D01*
X92739Y865368D01*
X92938Y865271D01*
X93133Y865170D01*
X93326Y865063D01*
X93517Y864952D01*
X93704Y864837D01*
X93889Y864717D01*
X94071Y864592D01*
X94249Y864463D01*
X94425Y864329D01*
X94597Y864192D01*
X94765Y864050D01*
X94931Y863904D01*
X95092Y863754D01*
X95250Y863600D01*
X95404Y863442D01*
X95554Y863281D01*
X95700Y863115D01*
X95842Y862947D01*
X95979Y862775D01*
X96113Y862599D01*
X96242Y862421D01*
X96367Y862239D01*
X96487Y862054D01*
X96602Y861867D01*
X96713Y861676D01*
X96820Y861483D01*
X96921Y861288D01*
X97018Y861089D01*
X97110Y860889D01*
X97196Y860686D01*
X97278Y860482D01*
X97355Y860275D01*
X97427Y860067D01*
X97493Y859857D01*
X97555Y859645D01*
X97611Y859432D01*
X97662Y859218D01*
X97707Y859002D01*
X97748Y858785D01*
X97783Y858568D01*
X97812Y858349D01*
X97837Y858130D01*
X97856Y857911D01*
X97869Y857691D01*
X97877Y857470D01*
X97880Y857250D01*
X97877Y857030D01*
X97869Y856809D01*
X97856Y856589D01*
X97837Y856370D01*
X97812Y856151D01*
X97783Y855932D01*
X97748Y855715D01*
X97707Y855498D01*
X97662Y855282D01*
X97611Y855068D01*
X97555Y854855D01*
X97493Y854643D01*
X97427Y854433D01*
X97355Y854225D01*
X97278Y854018D01*
X97196Y853814D01*
X97110Y853611D01*
X97018Y853411D01*
X96921Y853212D01*
X96820Y853017D01*
X96713Y852824D01*
X96602Y852633D01*
X96487Y852446D01*
X96367Y852261D01*
X96242Y852079D01*
X96113Y851901D01*
X95979Y851725D01*
X95842Y851553D01*
X95700Y851385D01*
X95554Y851219D01*
X95404Y851058D01*
X95250Y850900D01*
X95092Y850746D01*
X94931Y850596D01*
X94765Y850450D01*
X94597Y850308D01*
X94425Y850171D01*
X94249Y850037D01*
X94071Y849908D01*
X93889Y849783D01*
X93704Y849663D01*
X93517Y849548D01*
X93326Y849437D01*
X93133Y849330D01*
X92938Y849229D01*
X92739Y849132D01*
X92539Y849040D01*
X92336Y848954D01*
X92132Y848872D01*
X91925Y848795D01*
X91717Y848723D01*
X91507Y848657D01*
X91295Y848595D01*
X91082Y848539D01*
X90868Y848488D01*
X90652Y848443D01*
X90435Y848402D01*
X90218Y848367D01*
X89999Y848338D01*
X89780Y848313D01*
X89561Y848294D01*
X89341Y848281D01*
X89120Y848273D01*
X88900Y848270D01*
X88680Y848273D01*
X88459Y848281D01*
X88239Y848294D01*
X88020Y848313D01*
X87801Y848338D01*
X87582Y848367D01*
X87365Y848402D01*
X87148Y848443D01*
X86932Y848488D01*
X86718Y848539D01*
X86505Y848595D01*
X86293Y848657D01*
X86083Y848723D01*
X85875Y848795D01*
X85668Y848872D01*
X85464Y848954D01*
X85261Y849040D01*
X85061Y849132D01*
X84862Y849229D01*
X84667Y849330D01*
X84474Y849437D01*
X84283Y849548D01*
X84096Y849663D01*
X83911Y849783D01*
X83729Y849908D01*
X83551Y850037D01*
X83375Y850171D01*
X83203Y850308D01*
X83035Y850450D01*
X82869Y850596D01*
X82708Y850746D01*
X82550Y850900D01*
X82396Y851058D01*
X82246Y851219D01*
X82100Y851385D01*
X81958Y851553D01*
X81821Y851725D01*
X81687Y851901D01*
X81558Y852079D01*
X81433Y852261D01*
X81313Y852446D01*
X81198Y852633D01*
X81087Y852824D01*
X80980Y853017D01*
X80879Y853212D01*
X80782Y853411D01*
X80690Y853611D01*
X80604Y853814D01*
X80522Y854018D01*
X80445Y854225D01*
X80373Y854433D01*
X80307Y854643D01*
X80245Y854855D01*
X80189Y855068D01*
X80138Y855282D01*
X80093Y855498D01*
X80052Y855715D01*
X80017Y855932D01*
X79988Y856151D01*
X79963Y856370D01*
X79944Y856589D01*
X79931Y856809D01*
X79923Y857030D01*
X79920Y857250D01*
X0Y857250D02*
X20Y859146D01*
X81Y861041D01*
X182Y862935D01*
X323Y864826D01*
X505Y866713D01*
X727Y868597D01*
X2558Y878422D02*
X3029Y880259D01*
X3539Y882086D01*
X4088Y883901D01*
X4676Y885703D01*
X5302Y887493D01*
X5966Y889270D01*
X10084Y898376D02*
X10980Y900048D01*
X11910Y901700D01*
X12876Y903332D01*
X13876Y904943D01*
X14910Y906533D01*
X15978Y908100D01*
X22147Y915964D02*
X23414Y917374D01*
X24711Y918757D01*
X26038Y920112D01*
X27393Y921439D01*
X28776Y922736D01*
X30186Y924003D01*
X38050Y930172D02*
X39617Y931240D01*
X41207Y932274D01*
X42818Y933274D01*
X44450Y934240D01*
X46102Y935170D01*
X47774Y936066D01*
X56880Y940184D02*
X58657Y940848D01*
X60447Y941474D01*
X62249Y942062D01*
X64064Y942611D01*
X65891Y943121D01*
X67728Y943592D01*
X77553Y945423D02*
X79437Y945645D01*
X81324Y945827D01*
X83215Y945968D01*
X85109Y946069D01*
X87004Y946130D01*
X88900Y946150D01*
X90796Y946130D01*
X92691Y946069D01*
X94585Y945968D01*
X96476Y945827D01*
X98363Y945645D01*
X100247Y945423D01*
X110072Y943592D02*
X111909Y943121D01*
X113736Y942611D01*
X115551Y942062D01*
X117353Y941474D01*
X119143Y940848D01*
X120920Y940184D01*
X130026Y936066D02*
X131698Y935170D01*
X133350Y934240D01*
X134982Y933274D01*
X136593Y932274D01*
X138183Y931240D01*
X139750Y930172D01*
X147614Y924003D02*
X149024Y922736D01*
X150407Y921439D01*
X151762Y920112D01*
X153089Y918757D01*
X154386Y917374D01*
X155653Y915964D01*
X161822Y908100D02*
X162890Y906533D01*
X163924Y904943D01*
X164924Y903332D01*
X165890Y901700D01*
X166820Y900048D01*
X167716Y898376D01*
X171834Y889270D02*
X172498Y887493D01*
X173124Y885703D01*
X173712Y883901D01*
X174261Y882086D01*
X174771Y880259D01*
X175242Y878422D01*
X177073Y868597D02*
X177295Y866713D01*
X177477Y864826D01*
X177618Y862935D01*
X177719Y861041D01*
X177780Y859146D01*
X177800Y857250D01*
X177780Y855354D01*
X177719Y853458D01*
X177618Y851565D01*
X177477Y849674D01*
X177295Y847786D01*
X177073Y845903D01*
X175242Y836078D02*
X174771Y834241D01*
X174260Y832415D01*
X173711Y830600D01*
X173124Y828797D01*
X172498Y827007D01*
X171834Y825231D01*
X167715Y816124D02*
X166820Y814452D01*
X165890Y812800D01*
X164924Y811168D01*
X163924Y809557D01*
X162890Y807968D01*
X161822Y806401D01*
X155653Y798537D02*
X154386Y797126D01*
X153088Y795743D01*
X151762Y794388D01*
X150407Y793062D01*
X149024Y791764D01*
X147613Y790497D01*
X139749Y784328D02*
X138182Y783260D01*
X136593Y782226D01*
X134982Y781226D01*
X133350Y780260D01*
X131698Y779330D01*
X130026Y778435D01*
X120919Y774316D02*
X119143Y773652D01*
X117353Y773026D01*
X115550Y772439D01*
X113735Y771890D01*
X111909Y771379D01*
X110072Y770908D01*
X100247Y769077D02*
X98364Y768855D01*
X96476Y768673D01*
X94585Y768532D01*
X92692Y768431D01*
X90796Y768370D01*
X88900Y768350D01*
X87004Y768370D01*
X85108Y768431D01*
X83215Y768532D01*
X81324Y768673D01*
X79436Y768855D01*
X77553Y769077D01*
X67728Y770908D02*
X65891Y771379D01*
X64065Y771890D01*
X62250Y772439D01*
X60447Y773026D01*
X58657Y773652D01*
X56881Y774316D01*
X47774Y778435D02*
X46102Y779330D01*
X44450Y780260D01*
X42818Y781226D01*
X41207Y782226D01*
X39618Y783260D01*
X38051Y784328D01*
X30187Y790497D02*
X28776Y791764D01*
X27393Y793062D01*
X26038Y794388D01*
X24712Y795743D01*
X23414Y797126D01*
X22147Y798537D01*
X15978Y806401D02*
X14910Y807968D01*
X13876Y809557D01*
X12876Y811168D01*
X11910Y812800D01*
X10980Y814452D01*
X10085Y816124D01*
X5966Y825231D02*
X5302Y827007D01*
X4676Y828797D01*
X4089Y830600D01*
X3540Y832415D01*
X3029Y834241D01*
X2558Y836078D01*
X727Y845903D02*
X505Y847786D01*
X323Y849674D01*
X182Y851565D01*
X81Y853458D01*
X20Y855354D01*
X0Y857250D01*
X12700Y812800D02*
X12700Y799028D01*
X12700Y789028D02*
X12700Y775255D01*
X12700Y765255D02*
X12700Y751483D01*
X12700Y741483D02*
X12700Y727710D01*
X165100Y727710D02*
X165100Y741483D01*
X165100Y751483D02*
X165100Y765255D01*
X165100Y775255D02*
X165100Y789028D01*
X165100Y799028D02*
X165100Y812800D01*
X88900Y779217D02*
X88900Y768350D01*
X88900Y789217D02*
X88900Y800083D01*
X88900Y810083D02*
X88900Y820950D01*
X88900Y830950D02*
X88900Y841817D01*
X88900Y851817D02*
X88900Y862683D01*
X88900Y872683D02*
X88900Y883550D01*
X88900Y893550D02*
X88900Y904417D01*
X88900Y914417D02*
X88900Y925283D01*
X88900Y935283D02*
X88900Y946150D01*
X10867Y857250D02*
X0Y857250D01*
X20867Y857250D02*
X31733Y857250D01*
X41733Y857250D02*
X52600Y857250D01*
X62600Y857250D02*
X73467Y857250D01*
X83467Y857250D02*
X94333Y857250D01*
X104333Y857250D02*
X115200Y857250D01*
X125200Y857250D02*
X136067Y857250D01*
X146067Y857250D02*
X156933Y857250D01*
X166933Y857250D02*
X177800Y857250D01*
X23000Y727710D02*
X12700Y727710D01*
X33000Y727710D02*
X43300Y727710D01*
X53300Y727710D02*
X63600Y727710D01*
X73600Y727710D02*
X83900Y727710D01*
X93900Y727710D02*
X104200Y727710D01*
X114200Y727710D02*
X124500Y727710D01*
X134500Y727710D02*
X144800Y727710D01*
X154800Y727710D02*
X165100Y727710D01*
X53340Y726440D02*
X22860Y726440D01*
X73660Y726440D02*
X104140Y726440D01*
X124460Y726440D02*
X154940Y726440D01*
X22860Y726440D02*
X22860Y695960D01*
X53340Y695960D01*
X53340Y726440D01*
X73660Y726440D02*
X73660Y695960D01*
X104140Y695960D01*
X104140Y726440D01*
X124460Y726440D02*
X124460Y695960D01*
X154940Y695960D01*
X154940Y726440D01*
D11*
X109615Y729742D02*
X109517Y729744D01*
X109420Y729750D01*
X109323Y729759D01*
X109226Y729773D01*
X109130Y729790D01*
X109035Y729811D01*
X108941Y729835D01*
X108847Y729864D01*
X108755Y729896D01*
X108664Y729931D01*
X108575Y729970D01*
X108487Y730013D01*
X108401Y730059D01*
X108317Y730108D01*
X108235Y730161D01*
X108155Y730216D01*
X108077Y730275D01*
X108002Y730337D01*
X107929Y730402D01*
X107859Y730470D01*
X107791Y730540D01*
X107726Y730613D01*
X107664Y730688D01*
X107605Y730766D01*
X107550Y730846D01*
X107497Y730928D01*
X107448Y731012D01*
X107402Y731098D01*
X107359Y731186D01*
X107320Y731275D01*
X107285Y731366D01*
X107253Y731458D01*
X107224Y731552D01*
X107200Y731646D01*
X107179Y731741D01*
X107162Y731837D01*
X107148Y731934D01*
X107139Y732031D01*
X107133Y732128D01*
X107131Y732226D01*
X109615Y729742D02*
X109758Y729744D01*
X109901Y729750D01*
X110043Y729759D01*
X110185Y729773D01*
X110327Y729791D01*
X110468Y729812D01*
X110609Y729837D01*
X110749Y729866D01*
X110888Y729899D01*
X111026Y729935D01*
X111163Y729976D01*
X111299Y730020D01*
X111433Y730067D01*
X111567Y730119D01*
X111698Y730173D01*
X111829Y730232D01*
X111957Y730294D01*
X112084Y730359D01*
X112209Y730428D01*
X112333Y730501D01*
X112454Y730576D01*
X112573Y730655D01*
X112690Y730737D01*
X112804Y730823D01*
X112916Y730911D01*
X113026Y731002D01*
X113133Y731097D01*
X113238Y731194D01*
X113340Y731294D01*
X113030Y738434D02*
X113028Y738532D01*
X113022Y738629D01*
X113013Y738726D01*
X112999Y738823D01*
X112982Y738919D01*
X112961Y739014D01*
X112937Y739108D01*
X112908Y739202D01*
X112876Y739294D01*
X112841Y739385D01*
X112802Y739474D01*
X112759Y739562D01*
X112713Y739648D01*
X112664Y739732D01*
X112611Y739814D01*
X112556Y739894D01*
X112497Y739972D01*
X112435Y740047D01*
X112370Y740120D01*
X112302Y740190D01*
X112232Y740258D01*
X112159Y740323D01*
X112084Y740385D01*
X112006Y740444D01*
X111926Y740499D01*
X111844Y740552D01*
X111760Y740601D01*
X111674Y740647D01*
X111586Y740690D01*
X111497Y740729D01*
X111406Y740764D01*
X111314Y740796D01*
X111220Y740825D01*
X111126Y740849D01*
X111031Y740870D01*
X110935Y740887D01*
X110838Y740901D01*
X110741Y740910D01*
X110644Y740916D01*
X110546Y740918D01*
X110416Y740916D01*
X110286Y740911D01*
X110156Y740902D01*
X110026Y740889D01*
X109897Y740873D01*
X109768Y740853D01*
X109640Y740829D01*
X109512Y740802D01*
X109386Y740771D01*
X109260Y740737D01*
X109135Y740699D01*
X109012Y740658D01*
X108889Y740613D01*
X108768Y740565D01*
X108648Y740514D01*
X108530Y740459D01*
X108414Y740401D01*
X108299Y740340D01*
X108185Y740275D01*
X108074Y740208D01*
X107965Y740137D01*
X107857Y740063D01*
X107752Y739987D01*
X111788Y736261D02*
X111871Y736312D01*
X111952Y736366D01*
X112030Y736423D01*
X112106Y736483D01*
X112180Y736546D01*
X112251Y736612D01*
X112320Y736680D01*
X112386Y736751D01*
X112450Y736824D01*
X112510Y736900D01*
X112567Y736978D01*
X112622Y737059D01*
X112673Y737141D01*
X112721Y737225D01*
X112766Y737311D01*
X112808Y737399D01*
X112846Y737488D01*
X112880Y737578D01*
X112912Y737670D01*
X112939Y737763D01*
X112963Y737857D01*
X112984Y737952D01*
X113000Y738048D01*
X113013Y738144D01*
X113023Y738240D01*
X113028Y738337D01*
X113030Y738434D01*
X108374Y734399D02*
X108291Y734348D01*
X108210Y734294D01*
X108132Y734237D01*
X108056Y734177D01*
X107982Y734114D01*
X107911Y734048D01*
X107842Y733980D01*
X107776Y733909D01*
X107712Y733836D01*
X107652Y733760D01*
X107595Y733682D01*
X107540Y733601D01*
X107489Y733519D01*
X107441Y733435D01*
X107396Y733349D01*
X107354Y733261D01*
X107316Y733172D01*
X107282Y733082D01*
X107250Y732990D01*
X107223Y732897D01*
X107199Y732803D01*
X107178Y732708D01*
X107162Y732612D01*
X107149Y732516D01*
X107139Y732420D01*
X107134Y732323D01*
X107132Y732226D01*
X108373Y734399D02*
X111788Y736261D01*
X101699Y740918D02*
X101699Y729742D01*
X101699Y740918D02*
X98594Y740918D01*
X98483Y740916D01*
X98373Y740910D01*
X98262Y740900D01*
X98152Y740886D01*
X98043Y740869D01*
X97934Y740847D01*
X97826Y740822D01*
X97720Y740792D01*
X97614Y740759D01*
X97509Y740722D01*
X97406Y740682D01*
X97305Y740637D01*
X97205Y740590D01*
X97106Y740538D01*
X97010Y740483D01*
X96916Y740425D01*
X96824Y740364D01*
X96734Y740299D01*
X96646Y740231D01*
X96561Y740160D01*
X96479Y740086D01*
X96399Y740009D01*
X96322Y739929D01*
X96248Y739847D01*
X96177Y739762D01*
X96109Y739674D01*
X96044Y739584D01*
X95983Y739492D01*
X95925Y739398D01*
X95870Y739302D01*
X95818Y739203D01*
X95771Y739103D01*
X95726Y739002D01*
X95686Y738899D01*
X95649Y738794D01*
X95616Y738688D01*
X95586Y738582D01*
X95561Y738474D01*
X95539Y738365D01*
X95522Y738256D01*
X95508Y738146D01*
X95498Y738035D01*
X95492Y737925D01*
X95490Y737814D01*
X95492Y737703D01*
X95498Y737593D01*
X95508Y737482D01*
X95522Y737372D01*
X95539Y737263D01*
X95561Y737154D01*
X95586Y737046D01*
X95616Y736940D01*
X95649Y736834D01*
X95686Y736729D01*
X95726Y736626D01*
X95771Y736525D01*
X95818Y736425D01*
X95870Y736326D01*
X95925Y736230D01*
X95983Y736136D01*
X96044Y736044D01*
X96109Y735954D01*
X96177Y735866D01*
X96248Y735781D01*
X96322Y735699D01*
X96399Y735619D01*
X96479Y735542D01*
X96561Y735468D01*
X96646Y735397D01*
X96734Y735329D01*
X96824Y735264D01*
X96916Y735203D01*
X97010Y735145D01*
X97106Y735090D01*
X97205Y735038D01*
X97305Y734991D01*
X97406Y734946D01*
X97509Y734906D01*
X97614Y734869D01*
X97720Y734836D01*
X97826Y734806D01*
X97934Y734781D01*
X98043Y734759D01*
X98152Y734742D01*
X98262Y734728D01*
X98373Y734718D01*
X98483Y734712D01*
X98594Y734710D01*
X98594Y734709D02*
X101699Y734709D01*
X90452Y729742D02*
X85485Y729742D01*
X90452Y729742D02*
X90452Y740918D01*
X85485Y740918D01*
X86727Y735951D02*
X90452Y735951D01*
X80546Y729742D02*
X75579Y729742D01*
X80546Y729742D02*
X80546Y740918D01*
X75579Y740918D01*
X76821Y735951D02*
X80546Y735951D01*
X70668Y740918D02*
X70668Y729742D01*
X70668Y740918D02*
X67564Y740918D01*
X67453Y740916D01*
X67343Y740910D01*
X67232Y740900D01*
X67122Y740886D01*
X67013Y740869D01*
X66904Y740847D01*
X66796Y740822D01*
X66690Y740792D01*
X66584Y740759D01*
X66479Y740722D01*
X66376Y740682D01*
X66275Y740637D01*
X66175Y740590D01*
X66076Y740538D01*
X65980Y740483D01*
X65886Y740425D01*
X65794Y740364D01*
X65704Y740299D01*
X65616Y740231D01*
X65531Y740160D01*
X65449Y740086D01*
X65369Y740009D01*
X65292Y739929D01*
X65218Y739847D01*
X65147Y739762D01*
X65079Y739674D01*
X65014Y739584D01*
X64953Y739492D01*
X64895Y739398D01*
X64840Y739302D01*
X64788Y739203D01*
X64741Y739103D01*
X64696Y739002D01*
X64656Y738899D01*
X64619Y738794D01*
X64586Y738688D01*
X64556Y738582D01*
X64531Y738474D01*
X64509Y738365D01*
X64492Y738256D01*
X64478Y738146D01*
X64468Y738035D01*
X64462Y737925D01*
X64460Y737814D01*
X64460Y732846D01*
X64462Y732735D01*
X64468Y732625D01*
X64478Y732514D01*
X64492Y732404D01*
X64509Y732295D01*
X64531Y732186D01*
X64556Y732078D01*
X64586Y731972D01*
X64619Y731866D01*
X64656Y731761D01*
X64696Y731658D01*
X64741Y731557D01*
X64788Y731457D01*
X64840Y731358D01*
X64895Y731262D01*
X64953Y731168D01*
X65014Y731076D01*
X65079Y730986D01*
X65147Y730898D01*
X65218Y730813D01*
X65292Y730731D01*
X65369Y730651D01*
X65449Y730574D01*
X65531Y730500D01*
X65616Y730429D01*
X65704Y730361D01*
X65794Y730296D01*
X65886Y730235D01*
X65980Y730177D01*
X66076Y730122D01*
X66175Y730070D01*
X66275Y730023D01*
X66376Y729978D01*
X66479Y729938D01*
X66584Y729901D01*
X66690Y729868D01*
X66796Y729838D01*
X66904Y729813D01*
X67013Y729791D01*
X67122Y729774D01*
X67232Y729760D01*
X67343Y729750D01*
X67453Y729744D01*
X67564Y729742D01*
X70668Y729742D01*
D10*
X88900Y609600D02*
X88900Y596900D01*
X82550Y603250D02*
X95250Y603250D01*
D11*
X72390Y666750D02*
X66040Y666750D01*
X66040Y539750D01*
X72390Y539750D01*
X72390Y533400D01*
X105410Y533400D01*
X105410Y539750D01*
X111760Y539750D01*
X111760Y666750D01*
X105410Y666750D01*
X105410Y673100D01*
X72390Y673100D01*
X72390Y666750D01*
D10*
X82550Y603250D02*
X82552Y603409D01*
X82558Y603568D01*
X82568Y603726D01*
X82582Y603885D01*
X82600Y604043D01*
X82621Y604200D01*
X82647Y604357D01*
X82677Y604513D01*
X82710Y604669D01*
X82748Y604823D01*
X82789Y604977D01*
X82834Y605129D01*
X82883Y605280D01*
X82936Y605430D01*
X82992Y605579D01*
X83053Y605726D01*
X83116Y605871D01*
X83184Y606015D01*
X83255Y606158D01*
X83329Y606298D01*
X83407Y606436D01*
X83489Y606573D01*
X83574Y606707D01*
X83662Y606840D01*
X83753Y606970D01*
X83848Y607097D01*
X83946Y607222D01*
X84047Y607345D01*
X84151Y607465D01*
X84258Y607583D01*
X84368Y607698D01*
X84481Y607810D01*
X84596Y607919D01*
X84714Y608025D01*
X84835Y608129D01*
X84959Y608229D01*
X85084Y608326D01*
X85213Y608420D01*
X85343Y608510D01*
X85476Y608598D01*
X85611Y608682D01*
X85748Y608762D01*
X85887Y608840D01*
X86028Y608913D01*
X86170Y608983D01*
X86315Y609050D01*
X86461Y609113D01*
X86608Y609172D01*
X86757Y609228D01*
X86908Y609279D01*
X87059Y609327D01*
X87212Y609371D01*
X87366Y609412D01*
X87520Y609448D01*
X87676Y609481D01*
X87832Y609510D01*
X87989Y609534D01*
X88147Y609555D01*
X88305Y609572D01*
X88463Y609585D01*
X88622Y609594D01*
X88781Y609599D01*
X88940Y609600D01*
X89099Y609597D01*
X89257Y609590D01*
X89416Y609579D01*
X89574Y609564D01*
X89732Y609545D01*
X89889Y609522D01*
X90046Y609496D01*
X90202Y609465D01*
X90357Y609431D01*
X90511Y609392D01*
X90665Y609350D01*
X90817Y609304D01*
X90968Y609254D01*
X91117Y609200D01*
X91266Y609143D01*
X91412Y609082D01*
X91558Y609017D01*
X91701Y608949D01*
X91843Y608877D01*
X91983Y608801D01*
X92121Y608723D01*
X92257Y608640D01*
X92391Y608555D01*
X92522Y608466D01*
X92652Y608373D01*
X92779Y608278D01*
X92903Y608179D01*
X93026Y608077D01*
X93145Y607973D01*
X93262Y607865D01*
X93376Y607754D01*
X93487Y607641D01*
X93596Y607525D01*
X93701Y607406D01*
X93804Y607284D01*
X93903Y607160D01*
X94000Y607034D01*
X94093Y606905D01*
X94183Y606774D01*
X94269Y606640D01*
X94352Y606505D01*
X94432Y606367D01*
X94508Y606228D01*
X94581Y606087D01*
X94650Y605944D01*
X94716Y605799D01*
X94778Y605652D01*
X94836Y605505D01*
X94891Y605355D01*
X94942Y605205D01*
X94989Y605053D01*
X95032Y604900D01*
X95071Y604746D01*
X95107Y604591D01*
X95138Y604435D01*
X95166Y604279D01*
X95190Y604122D01*
X95210Y603964D01*
X95226Y603806D01*
X95238Y603647D01*
X95246Y603488D01*
X95250Y603329D01*
X95250Y603171D01*
X95246Y603012D01*
X95238Y602853D01*
X95226Y602694D01*
X95210Y602536D01*
X95190Y602378D01*
X95166Y602221D01*
X95138Y602065D01*
X95107Y601909D01*
X95071Y601754D01*
X95032Y601600D01*
X94989Y601447D01*
X94942Y601295D01*
X94891Y601145D01*
X94836Y600995D01*
X94778Y600848D01*
X94716Y600701D01*
X94650Y600556D01*
X94581Y600413D01*
X94508Y600272D01*
X94432Y600133D01*
X94352Y599995D01*
X94269Y599860D01*
X94183Y599726D01*
X94093Y599595D01*
X94000Y599466D01*
X93903Y599340D01*
X93804Y599216D01*
X93701Y599094D01*
X93596Y598975D01*
X93487Y598859D01*
X93376Y598746D01*
X93262Y598635D01*
X93145Y598527D01*
X93026Y598423D01*
X92903Y598321D01*
X92779Y598222D01*
X92652Y598127D01*
X92522Y598034D01*
X92391Y597945D01*
X92257Y597860D01*
X92121Y597777D01*
X91983Y597699D01*
X91843Y597623D01*
X91701Y597551D01*
X91558Y597483D01*
X91412Y597418D01*
X91266Y597357D01*
X91117Y597300D01*
X90968Y597246D01*
X90817Y597196D01*
X90665Y597150D01*
X90511Y597108D01*
X90357Y597069D01*
X90202Y597035D01*
X90046Y597004D01*
X89889Y596978D01*
X89732Y596955D01*
X89574Y596936D01*
X89416Y596921D01*
X89257Y596910D01*
X89099Y596903D01*
X88940Y596900D01*
X88781Y596901D01*
X88622Y596906D01*
X88463Y596915D01*
X88305Y596928D01*
X88147Y596945D01*
X87989Y596966D01*
X87832Y596990D01*
X87676Y597019D01*
X87520Y597052D01*
X87366Y597088D01*
X87212Y597129D01*
X87059Y597173D01*
X86908Y597221D01*
X86757Y597272D01*
X86608Y597328D01*
X86461Y597387D01*
X86315Y597450D01*
X86170Y597517D01*
X86028Y597587D01*
X85887Y597660D01*
X85748Y597738D01*
X85611Y597818D01*
X85476Y597902D01*
X85343Y597990D01*
X85213Y598080D01*
X85084Y598174D01*
X84959Y598271D01*
X84835Y598371D01*
X84714Y598475D01*
X84596Y598581D01*
X84481Y598690D01*
X84368Y598802D01*
X84258Y598917D01*
X84151Y599035D01*
X84047Y599155D01*
X83946Y599278D01*
X83848Y599403D01*
X83753Y599530D01*
X83662Y599660D01*
X83574Y599793D01*
X83489Y599927D01*
X83407Y600064D01*
X83329Y600202D01*
X83255Y600342D01*
X83184Y600485D01*
X83116Y600629D01*
X83053Y600774D01*
X82992Y600921D01*
X82936Y601070D01*
X82883Y601220D01*
X82834Y601371D01*
X82789Y601523D01*
X82748Y601677D01*
X82710Y601831D01*
X82677Y601987D01*
X82647Y602143D01*
X82621Y602300D01*
X82600Y602457D01*
X82582Y602615D01*
X82568Y602774D01*
X82558Y602932D01*
X82552Y603091D01*
X82550Y603250D01*
D12*
X107315Y595110D02*
X107317Y595168D01*
X107323Y595225D01*
X107333Y595282D01*
X107346Y595339D01*
X107364Y595394D01*
X107385Y595447D01*
X107410Y595500D01*
X107438Y595550D01*
X107470Y595598D01*
X107505Y595645D01*
X107543Y595688D01*
X107584Y595729D01*
X107627Y595767D01*
X107674Y595802D01*
X107722Y595834D01*
X107772Y595862D01*
X107825Y595887D01*
X107878Y595908D01*
X107933Y595926D01*
X107990Y595939D01*
X108047Y595949D01*
X108104Y595955D01*
X108162Y595957D01*
X107315Y595110D02*
X107317Y595027D01*
X107323Y594944D01*
X107332Y594862D01*
X107346Y594780D01*
X107363Y594699D01*
X107384Y594618D01*
X107409Y594539D01*
X107437Y594461D01*
X107469Y594384D01*
X107504Y594309D01*
X107543Y594236D01*
X107586Y594164D01*
X107631Y594095D01*
X107680Y594028D01*
X107732Y593963D01*
X107786Y593900D01*
X107844Y593840D01*
X110278Y593946D02*
X110333Y593948D01*
X110389Y593953D01*
X110443Y593962D01*
X110497Y593975D01*
X110550Y593991D01*
X110602Y594010D01*
X110653Y594033D01*
X110702Y594059D01*
X110749Y594089D01*
X110794Y594121D01*
X110836Y594156D01*
X110877Y594194D01*
X110915Y594235D01*
X110950Y594277D01*
X110982Y594322D01*
X111012Y594370D01*
X111038Y594418D01*
X111061Y594469D01*
X111080Y594521D01*
X111096Y594574D01*
X111109Y594628D01*
X111118Y594682D01*
X111123Y594738D01*
X111125Y594793D01*
X111126Y594793D02*
X111124Y594872D01*
X111118Y594950D01*
X111109Y595028D01*
X111095Y595105D01*
X111078Y595182D01*
X111056Y595258D01*
X111032Y595332D01*
X111003Y595406D01*
X110971Y595477D01*
X110935Y595547D01*
X110896Y595616D01*
X110854Y595682D01*
X110808Y595746D01*
X109537Y594369D02*
X109567Y594322D01*
X109600Y594277D01*
X109636Y594234D01*
X109674Y594194D01*
X109715Y594156D01*
X109758Y594121D01*
X109804Y594089D01*
X109851Y594059D01*
X109901Y594033D01*
X109952Y594010D01*
X110004Y593991D01*
X110057Y593975D01*
X110112Y593962D01*
X110167Y593953D01*
X110222Y593948D01*
X110278Y593946D01*
X108903Y595534D02*
X108873Y595581D01*
X108840Y595626D01*
X108804Y595669D01*
X108766Y595709D01*
X108725Y595747D01*
X108682Y595782D01*
X108636Y595814D01*
X108589Y595844D01*
X108539Y595870D01*
X108488Y595893D01*
X108436Y595912D01*
X108383Y595928D01*
X108328Y595941D01*
X108273Y595950D01*
X108218Y595955D01*
X108162Y595957D01*
X108903Y595534D02*
X109538Y594369D01*
X111125Y597229D02*
X107315Y598075D01*
X109855Y598922D01*
X107315Y599769D01*
X111125Y600615D01*
X111125Y602336D02*
X107315Y602336D01*
X107315Y602759D02*
X107315Y601912D01*
X111125Y601912D02*
X111125Y602759D01*
X111125Y605018D02*
X107315Y605018D01*
X111125Y603960D02*
X111125Y606076D01*
X107315Y608210D02*
X107315Y609057D01*
X107315Y608210D02*
X107317Y608155D01*
X107322Y608099D01*
X107331Y608045D01*
X107344Y607991D01*
X107360Y607938D01*
X107379Y607886D01*
X107402Y607835D01*
X107428Y607787D01*
X107458Y607739D01*
X107490Y607694D01*
X107525Y607652D01*
X107563Y607611D01*
X107604Y607573D01*
X107646Y607538D01*
X107691Y607506D01*
X107739Y607476D01*
X107787Y607450D01*
X107838Y607427D01*
X107890Y607408D01*
X107943Y607392D01*
X107997Y607379D01*
X108051Y607370D01*
X108107Y607365D01*
X108162Y607363D01*
X108162Y607364D02*
X110278Y607364D01*
X110278Y607363D02*
X110336Y607365D01*
X110393Y607371D01*
X110450Y607381D01*
X110507Y607394D01*
X110562Y607412D01*
X110615Y607433D01*
X110668Y607458D01*
X110718Y607486D01*
X110766Y607518D01*
X110813Y607553D01*
X110856Y607591D01*
X110897Y607632D01*
X110935Y607675D01*
X110970Y607722D01*
X111002Y607770D01*
X111030Y607820D01*
X111055Y607873D01*
X111076Y607926D01*
X111094Y607981D01*
X111107Y608038D01*
X111117Y608095D01*
X111123Y608152D01*
X111125Y608210D01*
X111125Y609057D01*
X111125Y610543D02*
X107315Y610543D01*
X109432Y610543D02*
X109432Y612660D01*
X111125Y612660D02*
X107315Y612660D01*
D10*
X55245Y583806D02*
X55145Y583804D01*
X55046Y583798D01*
X54946Y583788D01*
X54848Y583775D01*
X54749Y583757D01*
X54652Y583736D01*
X54556Y583711D01*
X54460Y583682D01*
X54366Y583649D01*
X54273Y583613D01*
X54182Y583573D01*
X54092Y583529D01*
X54004Y583482D01*
X53918Y583432D01*
X53834Y583378D01*
X53752Y583321D01*
X53673Y583261D01*
X53595Y583197D01*
X53521Y583131D01*
X53449Y583062D01*
X53380Y582990D01*
X53314Y582916D01*
X53250Y582838D01*
X53190Y582759D01*
X53133Y582677D01*
X53079Y582593D01*
X53029Y582507D01*
X52982Y582419D01*
X52938Y582329D01*
X52898Y582238D01*
X52862Y582145D01*
X52829Y582051D01*
X52800Y581955D01*
X52775Y581859D01*
X52754Y581762D01*
X52736Y581663D01*
X52723Y581565D01*
X52713Y581465D01*
X52707Y581366D01*
X52705Y581266D01*
X52707Y581125D01*
X52712Y580984D01*
X52722Y580843D01*
X52735Y580702D01*
X52751Y580562D01*
X52772Y580422D01*
X52796Y580283D01*
X52824Y580144D01*
X52855Y580007D01*
X52890Y579870D01*
X52928Y579734D01*
X52970Y579599D01*
X53016Y579466D01*
X53065Y579333D01*
X53118Y579202D01*
X53174Y579073D01*
X53233Y578944D01*
X53296Y578818D01*
X53362Y578693D01*
X53431Y578570D01*
X53504Y578449D01*
X53580Y578330D01*
X53659Y578212D01*
X53740Y578097D01*
X53825Y577985D01*
X53913Y577874D01*
X54004Y577766D01*
X54097Y577660D01*
X54194Y577557D01*
X54293Y577456D01*
X61595Y577774D02*
X61695Y577776D01*
X61794Y577782D01*
X61894Y577792D01*
X61992Y577805D01*
X62091Y577823D01*
X62188Y577844D01*
X62284Y577869D01*
X62380Y577898D01*
X62474Y577931D01*
X62567Y577967D01*
X62658Y578007D01*
X62748Y578051D01*
X62836Y578098D01*
X62922Y578148D01*
X63006Y578202D01*
X63088Y578259D01*
X63167Y578319D01*
X63245Y578383D01*
X63319Y578449D01*
X63391Y578518D01*
X63460Y578590D01*
X63526Y578664D01*
X63590Y578742D01*
X63650Y578821D01*
X63707Y578903D01*
X63761Y578987D01*
X63811Y579073D01*
X63858Y579161D01*
X63902Y579251D01*
X63942Y579342D01*
X63978Y579435D01*
X64011Y579529D01*
X64040Y579625D01*
X64065Y579721D01*
X64086Y579818D01*
X64104Y579917D01*
X64117Y580015D01*
X64127Y580115D01*
X64133Y580214D01*
X64135Y580314D01*
X64136Y580314D02*
X64134Y580447D01*
X64129Y580580D01*
X64119Y580713D01*
X64106Y580846D01*
X64089Y580978D01*
X64069Y581110D01*
X64045Y581241D01*
X64017Y581371D01*
X63986Y581501D01*
X63951Y581629D01*
X63912Y581757D01*
X63870Y581883D01*
X63824Y582008D01*
X63775Y582132D01*
X63723Y582255D01*
X63667Y582376D01*
X63607Y582495D01*
X63545Y582613D01*
X63479Y582728D01*
X63410Y582842D01*
X63337Y582954D01*
X63262Y583064D01*
X63183Y583172D01*
X59372Y579044D02*
X59424Y578960D01*
X59479Y578877D01*
X59538Y578797D01*
X59599Y578719D01*
X59663Y578644D01*
X59731Y578571D01*
X59801Y578500D01*
X59873Y578433D01*
X59948Y578368D01*
X60026Y578306D01*
X60106Y578247D01*
X60188Y578191D01*
X60272Y578139D01*
X60358Y578090D01*
X60446Y578044D01*
X60536Y578001D01*
X60627Y577962D01*
X60720Y577927D01*
X60814Y577895D01*
X60909Y577867D01*
X61005Y577842D01*
X61102Y577822D01*
X61200Y577804D01*
X61298Y577791D01*
X61397Y577782D01*
X61496Y577776D01*
X61595Y577774D01*
X57468Y582537D02*
X57416Y582621D01*
X57361Y582704D01*
X57302Y582784D01*
X57241Y582862D01*
X57177Y582937D01*
X57109Y583010D01*
X57039Y583081D01*
X56967Y583148D01*
X56892Y583213D01*
X56814Y583275D01*
X56734Y583334D01*
X56652Y583390D01*
X56568Y583442D01*
X56482Y583491D01*
X56394Y583537D01*
X56304Y583580D01*
X56213Y583619D01*
X56120Y583654D01*
X56026Y583686D01*
X55931Y583714D01*
X55835Y583739D01*
X55738Y583759D01*
X55640Y583777D01*
X55542Y583790D01*
X55443Y583799D01*
X55344Y583805D01*
X55245Y583807D01*
X57468Y582536D02*
X59373Y579044D01*
X64135Y588886D02*
X52705Y588886D01*
X59055Y588886D02*
X59055Y595236D01*
X64135Y595236D02*
X52705Y595236D01*
X52705Y600062D02*
X64135Y603872D01*
X52705Y607682D01*
X55563Y606730D02*
X55563Y601015D01*
X52705Y612699D02*
X64135Y612699D01*
X64135Y615874D01*
X64133Y615985D01*
X64127Y616095D01*
X64118Y616206D01*
X64104Y616316D01*
X64087Y616425D01*
X64066Y616534D01*
X64041Y616642D01*
X64012Y616749D01*
X63980Y616855D01*
X63944Y616960D01*
X63904Y617063D01*
X63861Y617165D01*
X63814Y617266D01*
X63763Y617365D01*
X63710Y617462D01*
X63653Y617556D01*
X63592Y617649D01*
X63529Y617740D01*
X63462Y617829D01*
X63392Y617915D01*
X63319Y617998D01*
X63244Y618080D01*
X63166Y618158D01*
X63084Y618233D01*
X63001Y618306D01*
X62915Y618376D01*
X62826Y618443D01*
X62735Y618506D01*
X62642Y618567D01*
X62548Y618624D01*
X62451Y618677D01*
X62352Y618728D01*
X62251Y618775D01*
X62149Y618818D01*
X62046Y618858D01*
X61941Y618894D01*
X61835Y618926D01*
X61728Y618955D01*
X61620Y618980D01*
X61511Y619001D01*
X61402Y619018D01*
X61292Y619032D01*
X61181Y619041D01*
X61071Y619047D01*
X60960Y619049D01*
X60849Y619047D01*
X60739Y619041D01*
X60628Y619032D01*
X60518Y619018D01*
X60409Y619001D01*
X60300Y618980D01*
X60192Y618955D01*
X60085Y618926D01*
X59979Y618894D01*
X59874Y618858D01*
X59771Y618818D01*
X59669Y618775D01*
X59568Y618728D01*
X59469Y618677D01*
X59372Y618624D01*
X59278Y618567D01*
X59185Y618506D01*
X59094Y618443D01*
X59005Y618376D01*
X58919Y618306D01*
X58836Y618233D01*
X58754Y618158D01*
X58676Y618080D01*
X58601Y617998D01*
X58528Y617915D01*
X58458Y617829D01*
X58391Y617740D01*
X58328Y617649D01*
X58267Y617556D01*
X58210Y617462D01*
X58157Y617365D01*
X58106Y617266D01*
X58059Y617165D01*
X58016Y617063D01*
X57976Y616960D01*
X57940Y616855D01*
X57908Y616749D01*
X57879Y616642D01*
X57854Y616534D01*
X57833Y616425D01*
X57816Y616316D01*
X57802Y616206D01*
X57793Y616095D01*
X57787Y615985D01*
X57785Y615874D01*
X57785Y612699D01*
X52705Y623964D02*
X52705Y629044D01*
X52705Y623964D02*
X64135Y623964D01*
X64135Y629044D01*
X59055Y627774D02*
X59055Y623964D01*
X283120Y603250D02*
X283123Y603470D01*
X283131Y603691D01*
X283144Y603911D01*
X283163Y604130D01*
X283188Y604349D01*
X283217Y604568D01*
X283252Y604785D01*
X283293Y605002D01*
X283338Y605218D01*
X283389Y605432D01*
X283445Y605645D01*
X283507Y605857D01*
X283573Y606067D01*
X283645Y606275D01*
X283722Y606482D01*
X283804Y606686D01*
X283890Y606889D01*
X283982Y607089D01*
X284079Y607288D01*
X284180Y607483D01*
X284287Y607676D01*
X284398Y607867D01*
X284513Y608054D01*
X284633Y608239D01*
X284758Y608421D01*
X284887Y608599D01*
X285021Y608775D01*
X285158Y608947D01*
X285300Y609115D01*
X285446Y609281D01*
X285596Y609442D01*
X285750Y609600D01*
X285908Y609754D01*
X286069Y609904D01*
X286235Y610050D01*
X286403Y610192D01*
X286575Y610329D01*
X286751Y610463D01*
X286929Y610592D01*
X287111Y610717D01*
X287296Y610837D01*
X287483Y610952D01*
X287674Y611063D01*
X287867Y611170D01*
X288062Y611271D01*
X288261Y611368D01*
X288461Y611460D01*
X288664Y611546D01*
X288868Y611628D01*
X289075Y611705D01*
X289283Y611777D01*
X289493Y611843D01*
X289705Y611905D01*
X289918Y611961D01*
X290132Y612012D01*
X290348Y612057D01*
X290565Y612098D01*
X290782Y612133D01*
X291001Y612162D01*
X291220Y612187D01*
X291439Y612206D01*
X291659Y612219D01*
X291880Y612227D01*
X292100Y612230D01*
X292320Y612227D01*
X292541Y612219D01*
X292761Y612206D01*
X292980Y612187D01*
X293199Y612162D01*
X293418Y612133D01*
X293635Y612098D01*
X293852Y612057D01*
X294068Y612012D01*
X294282Y611961D01*
X294495Y611905D01*
X294707Y611843D01*
X294917Y611777D01*
X295125Y611705D01*
X295332Y611628D01*
X295536Y611546D01*
X295739Y611460D01*
X295939Y611368D01*
X296138Y611271D01*
X296333Y611170D01*
X296526Y611063D01*
X296717Y610952D01*
X296904Y610837D01*
X297089Y610717D01*
X297271Y610592D01*
X297449Y610463D01*
X297625Y610329D01*
X297797Y610192D01*
X297965Y610050D01*
X298131Y609904D01*
X298292Y609754D01*
X298450Y609600D01*
X298604Y609442D01*
X298754Y609281D01*
X298900Y609115D01*
X299042Y608947D01*
X299179Y608775D01*
X299313Y608599D01*
X299442Y608421D01*
X299567Y608239D01*
X299687Y608054D01*
X299802Y607867D01*
X299913Y607676D01*
X300020Y607483D01*
X300121Y607288D01*
X300218Y607089D01*
X300310Y606889D01*
X300396Y606686D01*
X300478Y606482D01*
X300555Y606275D01*
X300627Y606067D01*
X300693Y605857D01*
X300755Y605645D01*
X300811Y605432D01*
X300862Y605218D01*
X300907Y605002D01*
X300948Y604785D01*
X300983Y604568D01*
X301012Y604349D01*
X301037Y604130D01*
X301056Y603911D01*
X301069Y603691D01*
X301077Y603470D01*
X301080Y603250D01*
X301077Y603030D01*
X301069Y602809D01*
X301056Y602589D01*
X301037Y602370D01*
X301012Y602151D01*
X300983Y601932D01*
X300948Y601715D01*
X300907Y601498D01*
X300862Y601282D01*
X300811Y601068D01*
X300755Y600855D01*
X300693Y600643D01*
X300627Y600433D01*
X300555Y600225D01*
X300478Y600018D01*
X300396Y599814D01*
X300310Y599611D01*
X300218Y599411D01*
X300121Y599212D01*
X300020Y599017D01*
X299913Y598824D01*
X299802Y598633D01*
X299687Y598446D01*
X299567Y598261D01*
X299442Y598079D01*
X299313Y597901D01*
X299179Y597725D01*
X299042Y597553D01*
X298900Y597385D01*
X298754Y597219D01*
X298604Y597058D01*
X298450Y596900D01*
X298292Y596746D01*
X298131Y596596D01*
X297965Y596450D01*
X297797Y596308D01*
X297625Y596171D01*
X297449Y596037D01*
X297271Y595908D01*
X297089Y595783D01*
X296904Y595663D01*
X296717Y595548D01*
X296526Y595437D01*
X296333Y595330D01*
X296138Y595229D01*
X295939Y595132D01*
X295739Y595040D01*
X295536Y594954D01*
X295332Y594872D01*
X295125Y594795D01*
X294917Y594723D01*
X294707Y594657D01*
X294495Y594595D01*
X294282Y594539D01*
X294068Y594488D01*
X293852Y594443D01*
X293635Y594402D01*
X293418Y594367D01*
X293199Y594338D01*
X292980Y594313D01*
X292761Y594294D01*
X292541Y594281D01*
X292320Y594273D01*
X292100Y594270D01*
X291880Y594273D01*
X291659Y594281D01*
X291439Y594294D01*
X291220Y594313D01*
X291001Y594338D01*
X290782Y594367D01*
X290565Y594402D01*
X290348Y594443D01*
X290132Y594488D01*
X289918Y594539D01*
X289705Y594595D01*
X289493Y594657D01*
X289283Y594723D01*
X289075Y594795D01*
X288868Y594872D01*
X288664Y594954D01*
X288461Y595040D01*
X288261Y595132D01*
X288062Y595229D01*
X287867Y595330D01*
X287674Y595437D01*
X287483Y595548D01*
X287296Y595663D01*
X287111Y595783D01*
X286929Y595908D01*
X286751Y596037D01*
X286575Y596171D01*
X286403Y596308D01*
X286235Y596450D01*
X286069Y596596D01*
X285908Y596746D01*
X285750Y596900D01*
X285596Y597058D01*
X285446Y597219D01*
X285300Y597385D01*
X285158Y597553D01*
X285021Y597725D01*
X284887Y597901D01*
X284758Y598079D01*
X284633Y598261D01*
X284513Y598446D01*
X284398Y598633D01*
X284287Y598824D01*
X284180Y599017D01*
X284079Y599212D01*
X283982Y599411D01*
X283890Y599611D01*
X283804Y599814D01*
X283722Y600018D01*
X283645Y600225D01*
X283573Y600433D01*
X283507Y600643D01*
X283445Y600855D01*
X283389Y601068D01*
X283338Y601282D01*
X283293Y601498D01*
X283252Y601715D01*
X283217Y601932D01*
X283188Y602151D01*
X283163Y602370D01*
X283144Y602589D01*
X283131Y602809D01*
X283123Y603030D01*
X283120Y603250D01*
X210795Y564350D02*
X211727Y562431D01*
X212703Y560534D01*
X213725Y558661D01*
X214791Y556812D01*
X215900Y554990D01*
X207049Y573616D02*
X206384Y575644D01*
X205768Y577686D01*
X205201Y579743D01*
X204682Y581812D01*
X204213Y583894D01*
X202677Y593770D02*
X202493Y595896D01*
X202358Y598025D01*
X202275Y600157D01*
X202242Y602290D01*
X202259Y604424D01*
X203016Y614389D02*
X203320Y616501D01*
X203675Y618605D01*
X204080Y620700D01*
X204534Y622784D01*
X205037Y624858D01*
X208046Y634389D02*
X208824Y636376D01*
X209649Y638343D01*
X210521Y640291D01*
X211438Y642217D01*
X212401Y644121D01*
X217503Y652715D02*
X218714Y654472D01*
X219966Y656199D01*
X221258Y657897D01*
X222591Y659563D01*
X223962Y661197D01*
X230890Y668402D02*
X232469Y669837D01*
X234082Y671234D01*
X235727Y672592D01*
X237405Y673911D01*
X239113Y675189D01*
X247500Y680625D02*
X249365Y681661D01*
X251253Y682654D01*
X253165Y683601D01*
X255099Y684502D01*
X257053Y685358D01*
X266460Y688738D02*
X268512Y689323D01*
X270577Y689858D01*
X272654Y690345D01*
X274742Y690782D01*
X276840Y691169D01*
X286769Y692316D02*
X288900Y692417D01*
X291033Y692468D01*
X293167Y692468D01*
X295300Y692417D01*
X297431Y692316D01*
X307360Y691169D02*
X309458Y690782D01*
X311546Y690345D01*
X313623Y689858D01*
X315688Y689323D01*
X317740Y688738D01*
X327147Y685358D02*
X329101Y684502D01*
X331035Y683601D01*
X332947Y682654D01*
X334835Y681661D01*
X336700Y680625D01*
X345087Y675189D02*
X346795Y673911D01*
X348473Y672592D01*
X350118Y671234D01*
X351731Y669837D01*
X353310Y668402D01*
X360238Y661197D02*
X361609Y659563D01*
X362942Y657897D01*
X364234Y656199D01*
X365486Y654472D01*
X366697Y652715D01*
X371799Y644121D02*
X372762Y642217D01*
X373679Y640291D01*
X374551Y638343D01*
X375376Y636376D01*
X376154Y634389D01*
X379163Y624858D02*
X379666Y622784D01*
X380120Y620700D01*
X380525Y618605D01*
X380880Y616501D01*
X381184Y614389D01*
X381941Y604424D02*
X381958Y602290D01*
X381925Y600157D01*
X381842Y598025D01*
X381707Y595896D01*
X381523Y593770D01*
X379987Y583894D02*
X379518Y581812D01*
X378999Y579743D01*
X378432Y577686D01*
X377816Y575644D01*
X377151Y573616D01*
X373405Y564350D02*
X372473Y562431D01*
X371497Y560534D01*
X370475Y558661D01*
X369409Y556812D01*
X368300Y554990D01*
X292100Y596900D02*
X292100Y609600D01*
X285750Y603250D02*
X298450Y603250D01*
X292100Y589280D02*
X292100Y575627D01*
X292100Y565627D02*
X292100Y551973D01*
X292100Y541973D02*
X292100Y528320D01*
X292100Y617220D02*
X292100Y628453D01*
X292100Y638453D02*
X292100Y649685D01*
X292100Y659685D02*
X292100Y670918D01*
X292100Y680918D02*
X292100Y692150D01*
X279400Y603250D02*
X267850Y603250D01*
X257850Y603250D02*
X246300Y603250D01*
X236300Y603250D02*
X224750Y603250D01*
X214750Y603250D02*
X203200Y603250D01*
X304800Y603250D02*
X316350Y603250D01*
X326350Y603250D02*
X337900Y603250D01*
X347900Y603250D02*
X359450Y603250D01*
X369450Y603250D02*
X381000Y603250D01*
X215900Y554990D02*
X215900Y541853D01*
X215900Y531853D02*
X215900Y518715D01*
X215900Y508715D02*
X215900Y495578D01*
X215900Y485578D02*
X215900Y472440D01*
X368300Y472440D02*
X368300Y485578D01*
X368300Y495578D02*
X368300Y508715D01*
X368300Y518715D02*
X368300Y531853D01*
X368300Y541853D02*
X368300Y554990D01*
X226200Y472440D02*
X215900Y472440D01*
X236200Y472440D02*
X246500Y472440D01*
X256500Y472440D02*
X266800Y472440D01*
X276800Y472440D02*
X287100Y472440D01*
X297100Y472440D02*
X307400Y472440D01*
X317400Y472440D02*
X327700Y472440D01*
X337700Y472440D02*
X348000Y472440D01*
X358000Y472440D02*
X368300Y472440D01*
X256540Y472440D02*
X256540Y441960D01*
X226060Y441960D01*
X226060Y472440D01*
X327660Y523240D02*
X358140Y523240D01*
X358140Y492760D01*
X327660Y492760D01*
X327660Y523240D01*
X307340Y472440D02*
X307340Y441960D01*
X276860Y441960D01*
X276860Y472440D01*
X358140Y472440D02*
X358140Y441960D01*
X327660Y441960D01*
X327660Y472440D01*
X256540Y523240D02*
X226060Y523240D01*
X256540Y523240D02*
X256540Y492760D01*
X226060Y492760D01*
X226060Y523240D01*
X276860Y523240D02*
X307340Y523240D01*
X307340Y492760D01*
X276860Y492760D01*
X276860Y523240D01*
X256540Y472440D02*
X226060Y472440D01*
X278130Y472440D02*
X307340Y472440D01*
X327660Y472440D02*
X358140Y472440D01*
D11*
X307954Y477012D02*
X307954Y488188D01*
X302987Y488188D01*
X302987Y483221D02*
X307954Y483221D01*
X297639Y488188D02*
X297639Y477012D01*
X298880Y477012D02*
X296397Y477012D01*
X296397Y488188D02*
X298880Y488188D01*
X291190Y488188D02*
X291190Y477012D01*
X286223Y477012D01*
X279351Y477012D02*
X279351Y488188D01*
X282455Y488188D02*
X276246Y488188D01*
D10*
X486320Y857250D02*
X486323Y857470D01*
X486331Y857691D01*
X486344Y857911D01*
X486363Y858130D01*
X486388Y858349D01*
X486417Y858568D01*
X486452Y858785D01*
X486493Y859002D01*
X486538Y859218D01*
X486589Y859432D01*
X486645Y859645D01*
X486707Y859857D01*
X486773Y860067D01*
X486845Y860275D01*
X486922Y860482D01*
X487004Y860686D01*
X487090Y860889D01*
X487182Y861089D01*
X487279Y861288D01*
X487380Y861483D01*
X487487Y861676D01*
X487598Y861867D01*
X487713Y862054D01*
X487833Y862239D01*
X487958Y862421D01*
X488087Y862599D01*
X488221Y862775D01*
X488358Y862947D01*
X488500Y863115D01*
X488646Y863281D01*
X488796Y863442D01*
X488950Y863600D01*
X489108Y863754D01*
X489269Y863904D01*
X489435Y864050D01*
X489603Y864192D01*
X489775Y864329D01*
X489951Y864463D01*
X490129Y864592D01*
X490311Y864717D01*
X490496Y864837D01*
X490683Y864952D01*
X490874Y865063D01*
X491067Y865170D01*
X491262Y865271D01*
X491461Y865368D01*
X491661Y865460D01*
X491864Y865546D01*
X492068Y865628D01*
X492275Y865705D01*
X492483Y865777D01*
X492693Y865843D01*
X492905Y865905D01*
X493118Y865961D01*
X493332Y866012D01*
X493548Y866057D01*
X493765Y866098D01*
X493982Y866133D01*
X494201Y866162D01*
X494420Y866187D01*
X494639Y866206D01*
X494859Y866219D01*
X495080Y866227D01*
X495300Y866230D01*
X495520Y866227D01*
X495741Y866219D01*
X495961Y866206D01*
X496180Y866187D01*
X496399Y866162D01*
X496618Y866133D01*
X496835Y866098D01*
X497052Y866057D01*
X497268Y866012D01*
X497482Y865961D01*
X497695Y865905D01*
X497907Y865843D01*
X498117Y865777D01*
X498325Y865705D01*
X498532Y865628D01*
X498736Y865546D01*
X498939Y865460D01*
X499139Y865368D01*
X499338Y865271D01*
X499533Y865170D01*
X499726Y865063D01*
X499917Y864952D01*
X500104Y864837D01*
X500289Y864717D01*
X500471Y864592D01*
X500649Y864463D01*
X500825Y864329D01*
X500997Y864192D01*
X501165Y864050D01*
X501331Y863904D01*
X501492Y863754D01*
X501650Y863600D01*
X501804Y863442D01*
X501954Y863281D01*
X502100Y863115D01*
X502242Y862947D01*
X502379Y862775D01*
X502513Y862599D01*
X502642Y862421D01*
X502767Y862239D01*
X502887Y862054D01*
X503002Y861867D01*
X503113Y861676D01*
X503220Y861483D01*
X503321Y861288D01*
X503418Y861089D01*
X503510Y860889D01*
X503596Y860686D01*
X503678Y860482D01*
X503755Y860275D01*
X503827Y860067D01*
X503893Y859857D01*
X503955Y859645D01*
X504011Y859432D01*
X504062Y859218D01*
X504107Y859002D01*
X504148Y858785D01*
X504183Y858568D01*
X504212Y858349D01*
X504237Y858130D01*
X504256Y857911D01*
X504269Y857691D01*
X504277Y857470D01*
X504280Y857250D01*
X504277Y857030D01*
X504269Y856809D01*
X504256Y856589D01*
X504237Y856370D01*
X504212Y856151D01*
X504183Y855932D01*
X504148Y855715D01*
X504107Y855498D01*
X504062Y855282D01*
X504011Y855068D01*
X503955Y854855D01*
X503893Y854643D01*
X503827Y854433D01*
X503755Y854225D01*
X503678Y854018D01*
X503596Y853814D01*
X503510Y853611D01*
X503418Y853411D01*
X503321Y853212D01*
X503220Y853017D01*
X503113Y852824D01*
X503002Y852633D01*
X502887Y852446D01*
X502767Y852261D01*
X502642Y852079D01*
X502513Y851901D01*
X502379Y851725D01*
X502242Y851553D01*
X502100Y851385D01*
X501954Y851219D01*
X501804Y851058D01*
X501650Y850900D01*
X501492Y850746D01*
X501331Y850596D01*
X501165Y850450D01*
X500997Y850308D01*
X500825Y850171D01*
X500649Y850037D01*
X500471Y849908D01*
X500289Y849783D01*
X500104Y849663D01*
X499917Y849548D01*
X499726Y849437D01*
X499533Y849330D01*
X499338Y849229D01*
X499139Y849132D01*
X498939Y849040D01*
X498736Y848954D01*
X498532Y848872D01*
X498325Y848795D01*
X498117Y848723D01*
X497907Y848657D01*
X497695Y848595D01*
X497482Y848539D01*
X497268Y848488D01*
X497052Y848443D01*
X496835Y848402D01*
X496618Y848367D01*
X496399Y848338D01*
X496180Y848313D01*
X495961Y848294D01*
X495741Y848281D01*
X495520Y848273D01*
X495300Y848270D01*
X495080Y848273D01*
X494859Y848281D01*
X494639Y848294D01*
X494420Y848313D01*
X494201Y848338D01*
X493982Y848367D01*
X493765Y848402D01*
X493548Y848443D01*
X493332Y848488D01*
X493118Y848539D01*
X492905Y848595D01*
X492693Y848657D01*
X492483Y848723D01*
X492275Y848795D01*
X492068Y848872D01*
X491864Y848954D01*
X491661Y849040D01*
X491461Y849132D01*
X491262Y849229D01*
X491067Y849330D01*
X490874Y849437D01*
X490683Y849548D01*
X490496Y849663D01*
X490311Y849783D01*
X490129Y849908D01*
X489951Y850037D01*
X489775Y850171D01*
X489603Y850308D01*
X489435Y850450D01*
X489269Y850596D01*
X489108Y850746D01*
X488950Y850900D01*
X488796Y851058D01*
X488646Y851219D01*
X488500Y851385D01*
X488358Y851553D01*
X488221Y851725D01*
X488087Y851901D01*
X487958Y852079D01*
X487833Y852261D01*
X487713Y852446D01*
X487598Y852633D01*
X487487Y852824D01*
X487380Y853017D01*
X487279Y853212D01*
X487182Y853411D01*
X487090Y853611D01*
X487004Y853814D01*
X486922Y854018D01*
X486845Y854225D01*
X486773Y854433D01*
X486707Y854643D01*
X486645Y854855D01*
X486589Y855068D01*
X486538Y855282D01*
X486493Y855498D01*
X486452Y855715D01*
X486417Y855932D01*
X486388Y856151D01*
X486363Y856370D01*
X486344Y856589D01*
X486331Y856809D01*
X486323Y857030D01*
X486320Y857250D01*
X406400Y857250D02*
X406420Y859146D01*
X406481Y861041D01*
X406582Y862935D01*
X406723Y864826D01*
X406905Y866713D01*
X407127Y868597D01*
X408958Y878422D02*
X409429Y880259D01*
X409939Y882086D01*
X410488Y883901D01*
X411076Y885703D01*
X411702Y887493D01*
X412366Y889270D01*
X416484Y898376D02*
X417380Y900048D01*
X418310Y901700D01*
X419276Y903332D01*
X420276Y904943D01*
X421310Y906533D01*
X422378Y908100D01*
X428547Y915964D02*
X429814Y917374D01*
X431111Y918757D01*
X432438Y920112D01*
X433793Y921439D01*
X435176Y922736D01*
X436586Y924003D01*
X444450Y930172D02*
X446017Y931240D01*
X447607Y932274D01*
X449218Y933274D01*
X450850Y934240D01*
X452502Y935170D01*
X454174Y936066D01*
X463280Y940184D02*
X465057Y940848D01*
X466847Y941474D01*
X468649Y942062D01*
X470464Y942611D01*
X472291Y943121D01*
X474128Y943592D01*
X483953Y945423D02*
X485837Y945645D01*
X487724Y945827D01*
X489615Y945968D01*
X491509Y946069D01*
X493404Y946130D01*
X495300Y946150D01*
X497196Y946130D01*
X499091Y946069D01*
X500985Y945968D01*
X502876Y945827D01*
X504763Y945645D01*
X506647Y945423D01*
X516472Y943592D02*
X518309Y943121D01*
X520136Y942611D01*
X521951Y942062D01*
X523753Y941474D01*
X525543Y940848D01*
X527320Y940184D01*
X536426Y936066D02*
X538098Y935170D01*
X539750Y934240D01*
X541382Y933274D01*
X542993Y932274D01*
X544583Y931240D01*
X546150Y930172D01*
X554014Y924003D02*
X555424Y922736D01*
X556807Y921439D01*
X558162Y920112D01*
X559489Y918757D01*
X560786Y917374D01*
X562053Y915964D01*
X568222Y908100D02*
X569290Y906533D01*
X570324Y904943D01*
X571324Y903332D01*
X572290Y901700D01*
X573220Y900048D01*
X574116Y898376D01*
X578234Y889270D02*
X578898Y887493D01*
X579524Y885703D01*
X580112Y883901D01*
X580661Y882086D01*
X581171Y880259D01*
X581642Y878422D01*
X583473Y868597D02*
X583695Y866713D01*
X583877Y864826D01*
X584018Y862935D01*
X584119Y861041D01*
X584180Y859146D01*
X584200Y857250D01*
X584180Y855354D01*
X584119Y853458D01*
X584018Y851565D01*
X583877Y849674D01*
X583695Y847786D01*
X583473Y845903D01*
X581642Y836078D02*
X581171Y834241D01*
X580660Y832415D01*
X580111Y830600D01*
X579524Y828797D01*
X578898Y827007D01*
X578234Y825231D01*
X574115Y816124D02*
X573220Y814452D01*
X572290Y812800D01*
X571324Y811168D01*
X570324Y809557D01*
X569290Y807968D01*
X568222Y806401D01*
X562053Y798537D02*
X560786Y797126D01*
X559488Y795743D01*
X558162Y794388D01*
X556807Y793062D01*
X555424Y791764D01*
X554013Y790497D01*
X546149Y784328D02*
X544582Y783260D01*
X542993Y782226D01*
X541382Y781226D01*
X539750Y780260D01*
X538098Y779330D01*
X536426Y778435D01*
X527319Y774316D02*
X525543Y773652D01*
X523753Y773026D01*
X521950Y772439D01*
X520135Y771890D01*
X518309Y771379D01*
X516472Y770908D01*
X506647Y769077D02*
X504764Y768855D01*
X502876Y768673D01*
X500985Y768532D01*
X499092Y768431D01*
X497196Y768370D01*
X495300Y768350D01*
X493404Y768370D01*
X491508Y768431D01*
X489615Y768532D01*
X487724Y768673D01*
X485836Y768855D01*
X483953Y769077D01*
X474128Y770908D02*
X472291Y771379D01*
X470465Y771890D01*
X468650Y772439D01*
X466847Y773026D01*
X465057Y773652D01*
X463281Y774316D01*
X454174Y778435D02*
X452502Y779330D01*
X450850Y780260D01*
X449218Y781226D01*
X447607Y782226D01*
X446018Y783260D01*
X444451Y784328D01*
X436587Y790497D02*
X435176Y791764D01*
X433793Y793062D01*
X432438Y794388D01*
X431112Y795743D01*
X429814Y797126D01*
X428547Y798537D01*
X422378Y806401D02*
X421310Y807968D01*
X420276Y809557D01*
X419276Y811168D01*
X418310Y812800D01*
X417380Y814452D01*
X416485Y816124D01*
X412366Y825231D02*
X411702Y827007D01*
X411076Y828797D01*
X410489Y830600D01*
X409940Y832415D01*
X409429Y834241D01*
X408958Y836078D01*
X407127Y845903D02*
X406905Y847786D01*
X406723Y849674D01*
X406582Y851565D01*
X406481Y853458D01*
X406420Y855354D01*
X406400Y857250D01*
X419100Y812800D02*
X419100Y799028D01*
X419100Y789028D02*
X419100Y775255D01*
X419100Y765255D02*
X419100Y751483D01*
X419100Y741483D02*
X419100Y727710D01*
X571500Y727710D02*
X571500Y741483D01*
X571500Y751483D02*
X571500Y765255D01*
X571500Y775255D02*
X571500Y789028D01*
X571500Y799028D02*
X571500Y812800D01*
X495300Y779217D02*
X495300Y768350D01*
X495300Y789217D02*
X495300Y800083D01*
X495300Y810083D02*
X495300Y820950D01*
X495300Y830950D02*
X495300Y841817D01*
X495300Y851817D02*
X495300Y862683D01*
X495300Y872683D02*
X495300Y883550D01*
X495300Y893550D02*
X495300Y904417D01*
X495300Y914417D02*
X495300Y925283D01*
X495300Y935283D02*
X495300Y946150D01*
X417267Y857250D02*
X406400Y857250D01*
X427267Y857250D02*
X438133Y857250D01*
X448133Y857250D02*
X459000Y857250D01*
X469000Y857250D02*
X479867Y857250D01*
X489867Y857250D02*
X500733Y857250D01*
X510733Y857250D02*
X521600Y857250D01*
X531600Y857250D02*
X542467Y857250D01*
X552467Y857250D02*
X563333Y857250D01*
X573333Y857250D02*
X584200Y857250D01*
X429400Y727710D02*
X419100Y727710D01*
X439400Y727710D02*
X449700Y727710D01*
X459700Y727710D02*
X470000Y727710D01*
X480000Y727710D02*
X490300Y727710D01*
X500300Y727710D02*
X510600Y727710D01*
X520600Y727710D02*
X530900Y727710D01*
X540900Y727710D02*
X551200Y727710D01*
X561200Y727710D02*
X571500Y727710D01*
X459740Y726440D02*
X429260Y726440D01*
X480060Y726440D02*
X510540Y726440D01*
X530860Y726440D02*
X561340Y726440D01*
X429260Y726440D02*
X429260Y695960D01*
X459740Y695960D01*
X459740Y726440D01*
X480060Y726440D02*
X480060Y695960D01*
X510540Y695960D01*
X510540Y726440D01*
X530860Y726440D02*
X530860Y695960D01*
X561340Y695960D01*
X561340Y726440D01*
D11*
X520552Y729742D02*
X520552Y740918D01*
X517447Y740918D01*
X517336Y740916D01*
X517226Y740910D01*
X517115Y740900D01*
X517005Y740886D01*
X516896Y740869D01*
X516787Y740847D01*
X516679Y740822D01*
X516573Y740792D01*
X516467Y740759D01*
X516362Y740722D01*
X516259Y740682D01*
X516158Y740637D01*
X516058Y740590D01*
X515959Y740538D01*
X515863Y740483D01*
X515769Y740425D01*
X515677Y740364D01*
X515587Y740299D01*
X515499Y740231D01*
X515414Y740160D01*
X515332Y740086D01*
X515252Y740009D01*
X515175Y739929D01*
X515101Y739847D01*
X515030Y739762D01*
X514962Y739674D01*
X514897Y739584D01*
X514836Y739492D01*
X514778Y739398D01*
X514723Y739302D01*
X514671Y739203D01*
X514624Y739103D01*
X514579Y739002D01*
X514539Y738899D01*
X514502Y738794D01*
X514469Y738688D01*
X514439Y738582D01*
X514414Y738474D01*
X514392Y738365D01*
X514375Y738256D01*
X514361Y738146D01*
X514351Y738035D01*
X514345Y737925D01*
X514343Y737814D01*
X514345Y737703D01*
X514351Y737593D01*
X514361Y737482D01*
X514375Y737372D01*
X514392Y737263D01*
X514414Y737154D01*
X514439Y737046D01*
X514469Y736940D01*
X514502Y736834D01*
X514539Y736729D01*
X514579Y736626D01*
X514624Y736525D01*
X514671Y736425D01*
X514723Y736326D01*
X514778Y736230D01*
X514836Y736136D01*
X514897Y736044D01*
X514962Y735954D01*
X515030Y735866D01*
X515101Y735781D01*
X515175Y735699D01*
X515252Y735619D01*
X515332Y735542D01*
X515414Y735468D01*
X515499Y735397D01*
X515587Y735329D01*
X515677Y735264D01*
X515769Y735203D01*
X515863Y735145D01*
X515959Y735090D01*
X516058Y735038D01*
X516158Y734991D01*
X516259Y734946D01*
X516362Y734906D01*
X516467Y734869D01*
X516573Y734836D01*
X516679Y734806D01*
X516787Y734781D01*
X516896Y734759D01*
X517005Y734742D01*
X517115Y734728D01*
X517226Y734718D01*
X517336Y734712D01*
X517447Y734710D01*
X517447Y734709D02*
X520552Y734709D01*
X509333Y729742D02*
X509333Y740918D01*
X509333Y735951D02*
X503125Y735951D01*
X503125Y740918D02*
X503125Y729742D01*
X498143Y729742D02*
X494418Y740918D01*
X490693Y729742D01*
X491624Y732536D02*
X497212Y732536D01*
X482748Y729742D02*
X482650Y729744D01*
X482553Y729750D01*
X482456Y729759D01*
X482359Y729773D01*
X482263Y729790D01*
X482168Y729811D01*
X482074Y729835D01*
X481980Y729864D01*
X481888Y729896D01*
X481797Y729931D01*
X481708Y729970D01*
X481620Y730013D01*
X481534Y730059D01*
X481450Y730108D01*
X481368Y730161D01*
X481288Y730216D01*
X481210Y730275D01*
X481135Y730337D01*
X481062Y730402D01*
X480992Y730470D01*
X480924Y730540D01*
X480859Y730613D01*
X480797Y730688D01*
X480738Y730766D01*
X480683Y730846D01*
X480630Y730928D01*
X480581Y731012D01*
X480535Y731098D01*
X480492Y731186D01*
X480453Y731275D01*
X480418Y731366D01*
X480386Y731458D01*
X480357Y731552D01*
X480333Y731646D01*
X480312Y731741D01*
X480295Y731837D01*
X480281Y731934D01*
X480272Y732031D01*
X480266Y732128D01*
X480264Y732226D01*
X482748Y729742D02*
X482891Y729744D01*
X483034Y729750D01*
X483176Y729759D01*
X483318Y729773D01*
X483460Y729791D01*
X483601Y729812D01*
X483742Y729837D01*
X483882Y729866D01*
X484021Y729899D01*
X484159Y729935D01*
X484296Y729976D01*
X484432Y730020D01*
X484566Y730067D01*
X484700Y730119D01*
X484831Y730173D01*
X484962Y730232D01*
X485090Y730294D01*
X485217Y730359D01*
X485342Y730428D01*
X485466Y730501D01*
X485587Y730576D01*
X485706Y730655D01*
X485823Y730737D01*
X485937Y730823D01*
X486049Y730911D01*
X486159Y731002D01*
X486266Y731097D01*
X486371Y731194D01*
X486473Y731294D01*
X486164Y738434D02*
X486162Y738532D01*
X486156Y738629D01*
X486147Y738726D01*
X486133Y738823D01*
X486116Y738919D01*
X486095Y739014D01*
X486071Y739108D01*
X486042Y739202D01*
X486010Y739294D01*
X485975Y739385D01*
X485936Y739474D01*
X485893Y739562D01*
X485847Y739648D01*
X485798Y739732D01*
X485745Y739814D01*
X485690Y739894D01*
X485631Y739972D01*
X485569Y740047D01*
X485504Y740120D01*
X485436Y740190D01*
X485366Y740258D01*
X485293Y740323D01*
X485218Y740385D01*
X485140Y740444D01*
X485060Y740499D01*
X484978Y740552D01*
X484894Y740601D01*
X484808Y740647D01*
X484720Y740690D01*
X484631Y740729D01*
X484540Y740764D01*
X484448Y740796D01*
X484354Y740825D01*
X484260Y740849D01*
X484165Y740870D01*
X484069Y740887D01*
X483972Y740901D01*
X483875Y740910D01*
X483778Y740916D01*
X483680Y740918D01*
X483550Y740916D01*
X483420Y740911D01*
X483290Y740902D01*
X483160Y740889D01*
X483031Y740873D01*
X482902Y740853D01*
X482774Y740829D01*
X482646Y740802D01*
X482520Y740771D01*
X482394Y740737D01*
X482269Y740699D01*
X482146Y740658D01*
X482023Y740613D01*
X481902Y740565D01*
X481782Y740514D01*
X481664Y740459D01*
X481548Y740401D01*
X481433Y740340D01*
X481319Y740275D01*
X481208Y740208D01*
X481099Y740137D01*
X480991Y740063D01*
X480886Y739987D01*
X484921Y736261D02*
X485004Y736312D01*
X485085Y736366D01*
X485163Y736423D01*
X485239Y736483D01*
X485313Y736546D01*
X485384Y736612D01*
X485453Y736680D01*
X485519Y736751D01*
X485583Y736824D01*
X485643Y736900D01*
X485700Y736978D01*
X485755Y737059D01*
X485806Y737141D01*
X485854Y737225D01*
X485899Y737311D01*
X485941Y737399D01*
X485979Y737488D01*
X486013Y737578D01*
X486045Y737670D01*
X486072Y737763D01*
X486096Y737857D01*
X486117Y737952D01*
X486133Y738048D01*
X486146Y738144D01*
X486156Y738240D01*
X486161Y738337D01*
X486163Y738434D01*
X481507Y734399D02*
X481424Y734348D01*
X481343Y734294D01*
X481265Y734237D01*
X481189Y734177D01*
X481115Y734114D01*
X481044Y734048D01*
X480975Y733980D01*
X480909Y733909D01*
X480845Y733836D01*
X480785Y733760D01*
X480728Y733682D01*
X480673Y733601D01*
X480622Y733519D01*
X480574Y733435D01*
X480529Y733349D01*
X480487Y733261D01*
X480449Y733172D01*
X480415Y733082D01*
X480383Y732990D01*
X480356Y732897D01*
X480332Y732803D01*
X480311Y732708D01*
X480295Y732612D01*
X480282Y732516D01*
X480272Y732420D01*
X480267Y732323D01*
X480265Y732226D01*
X481506Y734399D02*
X484921Y736261D01*
X475015Y729742D02*
X470048Y729742D01*
X475015Y729742D02*
X475015Y740918D01*
X470048Y740918D01*
X471290Y735951D02*
X475015Y735951D01*
X419100Y679450D02*
X571500Y679450D01*
X419100Y679450D02*
X419100Y527050D01*
X571500Y527050D01*
X571500Y679450D01*
D10*
X495300Y609600D02*
X495300Y596900D01*
X488950Y603250D02*
X501650Y603250D01*
X488950Y603250D02*
X488952Y603409D01*
X488958Y603568D01*
X488968Y603726D01*
X488982Y603885D01*
X489000Y604043D01*
X489021Y604200D01*
X489047Y604357D01*
X489077Y604513D01*
X489110Y604669D01*
X489148Y604823D01*
X489189Y604977D01*
X489234Y605129D01*
X489283Y605280D01*
X489336Y605430D01*
X489392Y605579D01*
X489453Y605726D01*
X489516Y605871D01*
X489584Y606015D01*
X489655Y606158D01*
X489729Y606298D01*
X489807Y606436D01*
X489889Y606573D01*
X489974Y606707D01*
X490062Y606840D01*
X490153Y606970D01*
X490248Y607097D01*
X490346Y607222D01*
X490447Y607345D01*
X490551Y607465D01*
X490658Y607583D01*
X490768Y607698D01*
X490881Y607810D01*
X490996Y607919D01*
X491114Y608025D01*
X491235Y608129D01*
X491359Y608229D01*
X491484Y608326D01*
X491613Y608420D01*
X491743Y608510D01*
X491876Y608598D01*
X492011Y608682D01*
X492148Y608762D01*
X492287Y608840D01*
X492428Y608913D01*
X492570Y608983D01*
X492715Y609050D01*
X492861Y609113D01*
X493008Y609172D01*
X493157Y609228D01*
X493308Y609279D01*
X493459Y609327D01*
X493612Y609371D01*
X493766Y609412D01*
X493920Y609448D01*
X494076Y609481D01*
X494232Y609510D01*
X494389Y609534D01*
X494547Y609555D01*
X494705Y609572D01*
X494863Y609585D01*
X495022Y609594D01*
X495181Y609599D01*
X495340Y609600D01*
X495499Y609597D01*
X495657Y609590D01*
X495816Y609579D01*
X495974Y609564D01*
X496132Y609545D01*
X496289Y609522D01*
X496446Y609496D01*
X496602Y609465D01*
X496757Y609431D01*
X496911Y609392D01*
X497065Y609350D01*
X497217Y609304D01*
X497368Y609254D01*
X497517Y609200D01*
X497666Y609143D01*
X497812Y609082D01*
X497958Y609017D01*
X498101Y608949D01*
X498243Y608877D01*
X498383Y608801D01*
X498521Y608723D01*
X498657Y608640D01*
X498791Y608555D01*
X498922Y608466D01*
X499052Y608373D01*
X499179Y608278D01*
X499303Y608179D01*
X499426Y608077D01*
X499545Y607973D01*
X499662Y607865D01*
X499776Y607754D01*
X499887Y607641D01*
X499996Y607525D01*
X500101Y607406D01*
X500204Y607284D01*
X500303Y607160D01*
X500400Y607034D01*
X500493Y606905D01*
X500583Y606774D01*
X500669Y606640D01*
X500752Y606505D01*
X500832Y606367D01*
X500908Y606228D01*
X500981Y606087D01*
X501050Y605944D01*
X501116Y605799D01*
X501178Y605652D01*
X501236Y605505D01*
X501291Y605355D01*
X501342Y605205D01*
X501389Y605053D01*
X501432Y604900D01*
X501471Y604746D01*
X501507Y604591D01*
X501538Y604435D01*
X501566Y604279D01*
X501590Y604122D01*
X501610Y603964D01*
X501626Y603806D01*
X501638Y603647D01*
X501646Y603488D01*
X501650Y603329D01*
X501650Y603171D01*
X501646Y603012D01*
X501638Y602853D01*
X501626Y602694D01*
X501610Y602536D01*
X501590Y602378D01*
X501566Y602221D01*
X501538Y602065D01*
X501507Y601909D01*
X501471Y601754D01*
X501432Y601600D01*
X501389Y601447D01*
X501342Y601295D01*
X501291Y601145D01*
X501236Y600995D01*
X501178Y600848D01*
X501116Y600701D01*
X501050Y600556D01*
X500981Y600413D01*
X500908Y600272D01*
X500832Y600133D01*
X500752Y599995D01*
X500669Y599860D01*
X500583Y599726D01*
X500493Y599595D01*
X500400Y599466D01*
X500303Y599340D01*
X500204Y599216D01*
X500101Y599094D01*
X499996Y598975D01*
X499887Y598859D01*
X499776Y598746D01*
X499662Y598635D01*
X499545Y598527D01*
X499426Y598423D01*
X499303Y598321D01*
X499179Y598222D01*
X499052Y598127D01*
X498922Y598034D01*
X498791Y597945D01*
X498657Y597860D01*
X498521Y597777D01*
X498383Y597699D01*
X498243Y597623D01*
X498101Y597551D01*
X497958Y597483D01*
X497812Y597418D01*
X497666Y597357D01*
X497517Y597300D01*
X497368Y597246D01*
X497217Y597196D01*
X497065Y597150D01*
X496911Y597108D01*
X496757Y597069D01*
X496602Y597035D01*
X496446Y597004D01*
X496289Y596978D01*
X496132Y596955D01*
X495974Y596936D01*
X495816Y596921D01*
X495657Y596910D01*
X495499Y596903D01*
X495340Y596900D01*
X495181Y596901D01*
X495022Y596906D01*
X494863Y596915D01*
X494705Y596928D01*
X494547Y596945D01*
X494389Y596966D01*
X494232Y596990D01*
X494076Y597019D01*
X493920Y597052D01*
X493766Y597088D01*
X493612Y597129D01*
X493459Y597173D01*
X493308Y597221D01*
X493157Y597272D01*
X493008Y597328D01*
X492861Y597387D01*
X492715Y597450D01*
X492570Y597517D01*
X492428Y597587D01*
X492287Y597660D01*
X492148Y597738D01*
X492011Y597818D01*
X491876Y597902D01*
X491743Y597990D01*
X491613Y598080D01*
X491484Y598174D01*
X491359Y598271D01*
X491235Y598371D01*
X491114Y598475D01*
X490996Y598581D01*
X490881Y598690D01*
X490768Y598802D01*
X490658Y598917D01*
X490551Y599035D01*
X490447Y599155D01*
X490346Y599278D01*
X490248Y599403D01*
X490153Y599530D01*
X490062Y599660D01*
X489974Y599793D01*
X489889Y599927D01*
X489807Y600064D01*
X489729Y600202D01*
X489655Y600342D01*
X489584Y600485D01*
X489516Y600629D01*
X489453Y600774D01*
X489392Y600921D01*
X489336Y601070D01*
X489283Y601220D01*
X489234Y601371D01*
X489189Y601523D01*
X489148Y601677D01*
X489110Y601831D01*
X489077Y601987D01*
X489047Y602143D01*
X489021Y602300D01*
X489000Y602457D01*
X488982Y602615D01*
X488968Y602774D01*
X488958Y602932D01*
X488952Y603091D01*
X488950Y603250D01*
D12*
X565785Y569710D02*
X565787Y569768D01*
X565793Y569825D01*
X565803Y569882D01*
X565816Y569939D01*
X565834Y569994D01*
X565855Y570047D01*
X565880Y570100D01*
X565908Y570150D01*
X565940Y570198D01*
X565975Y570245D01*
X566013Y570288D01*
X566054Y570329D01*
X566097Y570367D01*
X566144Y570402D01*
X566192Y570434D01*
X566242Y570462D01*
X566295Y570487D01*
X566348Y570508D01*
X566403Y570526D01*
X566460Y570539D01*
X566517Y570549D01*
X566574Y570555D01*
X566632Y570557D01*
X565785Y569710D02*
X565787Y569627D01*
X565793Y569544D01*
X565802Y569462D01*
X565816Y569380D01*
X565833Y569299D01*
X565854Y569218D01*
X565879Y569139D01*
X565907Y569061D01*
X565939Y568984D01*
X565974Y568909D01*
X566013Y568836D01*
X566056Y568764D01*
X566101Y568695D01*
X566150Y568628D01*
X566202Y568563D01*
X566256Y568500D01*
X566314Y568440D01*
X568748Y568546D02*
X568803Y568548D01*
X568859Y568553D01*
X568913Y568562D01*
X568967Y568575D01*
X569020Y568591D01*
X569072Y568610D01*
X569123Y568633D01*
X569172Y568659D01*
X569219Y568689D01*
X569264Y568721D01*
X569306Y568756D01*
X569347Y568794D01*
X569385Y568835D01*
X569420Y568877D01*
X569452Y568922D01*
X569482Y568970D01*
X569508Y569018D01*
X569531Y569069D01*
X569550Y569121D01*
X569566Y569174D01*
X569579Y569228D01*
X569588Y569282D01*
X569593Y569338D01*
X569595Y569393D01*
X569596Y569393D02*
X569594Y569472D01*
X569588Y569550D01*
X569579Y569628D01*
X569565Y569705D01*
X569548Y569782D01*
X569526Y569858D01*
X569502Y569932D01*
X569473Y570006D01*
X569441Y570077D01*
X569405Y570147D01*
X569366Y570216D01*
X569324Y570282D01*
X569278Y570346D01*
X568007Y568969D02*
X568037Y568922D01*
X568070Y568877D01*
X568106Y568834D01*
X568144Y568794D01*
X568185Y568756D01*
X568228Y568721D01*
X568274Y568689D01*
X568321Y568659D01*
X568371Y568633D01*
X568422Y568610D01*
X568474Y568591D01*
X568527Y568575D01*
X568582Y568562D01*
X568637Y568553D01*
X568692Y568548D01*
X568748Y568546D01*
X567373Y570134D02*
X567343Y570181D01*
X567310Y570226D01*
X567274Y570269D01*
X567236Y570309D01*
X567195Y570347D01*
X567152Y570382D01*
X567106Y570414D01*
X567059Y570444D01*
X567009Y570470D01*
X566958Y570493D01*
X566906Y570512D01*
X566853Y570528D01*
X566798Y570541D01*
X566743Y570550D01*
X566688Y570555D01*
X566632Y570557D01*
X567373Y570134D02*
X568008Y568969D01*
X569595Y571829D02*
X565785Y572675D01*
X568325Y573522D01*
X565785Y574369D01*
X569595Y575215D01*
X569595Y576936D02*
X565785Y576936D01*
X565785Y577359D02*
X565785Y576512D01*
X569595Y576512D02*
X569595Y577359D01*
X569595Y579618D02*
X565785Y579618D01*
X569595Y578560D02*
X569595Y580676D01*
X565785Y582810D02*
X565785Y583657D01*
X565785Y582810D02*
X565787Y582755D01*
X565792Y582699D01*
X565801Y582645D01*
X565814Y582591D01*
X565830Y582538D01*
X565849Y582486D01*
X565872Y582435D01*
X565898Y582387D01*
X565928Y582339D01*
X565960Y582294D01*
X565995Y582252D01*
X566033Y582211D01*
X566074Y582173D01*
X566116Y582138D01*
X566161Y582106D01*
X566209Y582076D01*
X566257Y582050D01*
X566308Y582027D01*
X566360Y582008D01*
X566413Y581992D01*
X566467Y581979D01*
X566521Y581970D01*
X566577Y581965D01*
X566632Y581963D01*
X566632Y581964D02*
X568748Y581964D01*
X568748Y581963D02*
X568806Y581965D01*
X568863Y581971D01*
X568920Y581981D01*
X568977Y581994D01*
X569032Y582012D01*
X569085Y582033D01*
X569138Y582058D01*
X569188Y582086D01*
X569236Y582118D01*
X569283Y582153D01*
X569326Y582191D01*
X569367Y582232D01*
X569405Y582275D01*
X569440Y582322D01*
X569472Y582370D01*
X569500Y582420D01*
X569525Y582473D01*
X569546Y582526D01*
X569564Y582581D01*
X569577Y582638D01*
X569587Y582695D01*
X569593Y582752D01*
X569595Y582810D01*
X569595Y583657D01*
X569595Y585143D02*
X565785Y585143D01*
X567902Y585143D02*
X567902Y587260D01*
X569595Y587260D02*
X565785Y587260D01*
D11*
X516396Y681482D02*
X516396Y692658D01*
X512671Y686449D01*
X508945Y692658D01*
X508945Y681482D01*
X503202Y684586D02*
X503202Y689554D01*
X503200Y689665D01*
X503194Y689775D01*
X503184Y689886D01*
X503170Y689996D01*
X503153Y690105D01*
X503131Y690214D01*
X503106Y690322D01*
X503076Y690428D01*
X503043Y690534D01*
X503006Y690639D01*
X502966Y690742D01*
X502921Y690843D01*
X502874Y690943D01*
X502822Y691042D01*
X502767Y691138D01*
X502709Y691232D01*
X502648Y691324D01*
X502583Y691414D01*
X502515Y691502D01*
X502444Y691587D01*
X502370Y691669D01*
X502293Y691749D01*
X502213Y691826D01*
X502131Y691900D01*
X502046Y691971D01*
X501958Y692039D01*
X501868Y692104D01*
X501776Y692165D01*
X501682Y692223D01*
X501586Y692278D01*
X501487Y692330D01*
X501387Y692377D01*
X501286Y692422D01*
X501183Y692462D01*
X501078Y692499D01*
X500972Y692532D01*
X500866Y692562D01*
X500758Y692587D01*
X500649Y692609D01*
X500540Y692626D01*
X500430Y692640D01*
X500319Y692650D01*
X500209Y692656D01*
X500098Y692658D01*
X499987Y692656D01*
X499877Y692650D01*
X499766Y692640D01*
X499656Y692626D01*
X499547Y692609D01*
X499438Y692587D01*
X499330Y692562D01*
X499224Y692532D01*
X499118Y692499D01*
X499013Y692462D01*
X498910Y692422D01*
X498809Y692377D01*
X498709Y692330D01*
X498610Y692278D01*
X498514Y692223D01*
X498420Y692165D01*
X498328Y692104D01*
X498238Y692039D01*
X498150Y691971D01*
X498065Y691900D01*
X497983Y691826D01*
X497903Y691749D01*
X497826Y691669D01*
X497752Y691587D01*
X497681Y691502D01*
X497613Y691414D01*
X497548Y691324D01*
X497487Y691232D01*
X497429Y691138D01*
X497374Y691042D01*
X497322Y690943D01*
X497275Y690843D01*
X497230Y690742D01*
X497190Y690639D01*
X497153Y690534D01*
X497120Y690428D01*
X497090Y690322D01*
X497065Y690214D01*
X497043Y690105D01*
X497026Y689996D01*
X497012Y689886D01*
X497002Y689775D01*
X496996Y689665D01*
X496994Y689554D01*
X496993Y689554D02*
X496993Y684586D01*
X496994Y684586D02*
X496996Y684475D01*
X497002Y684365D01*
X497012Y684254D01*
X497026Y684144D01*
X497043Y684035D01*
X497065Y683926D01*
X497090Y683818D01*
X497120Y683712D01*
X497153Y683606D01*
X497190Y683501D01*
X497230Y683398D01*
X497275Y683297D01*
X497322Y683197D01*
X497374Y683098D01*
X497429Y683002D01*
X497487Y682908D01*
X497548Y682816D01*
X497613Y682726D01*
X497681Y682638D01*
X497752Y682553D01*
X497826Y682471D01*
X497903Y682391D01*
X497983Y682314D01*
X498065Y682240D01*
X498150Y682169D01*
X498238Y682101D01*
X498328Y682036D01*
X498420Y681975D01*
X498514Y681917D01*
X498610Y681862D01*
X498709Y681810D01*
X498809Y681763D01*
X498910Y681718D01*
X499013Y681678D01*
X499118Y681641D01*
X499224Y681608D01*
X499330Y681578D01*
X499438Y681553D01*
X499547Y681531D01*
X499656Y681514D01*
X499766Y681500D01*
X499877Y681490D01*
X499987Y681484D01*
X500098Y681482D01*
X500209Y681484D01*
X500319Y681490D01*
X500430Y681500D01*
X500540Y681514D01*
X500649Y681531D01*
X500758Y681553D01*
X500866Y681578D01*
X500972Y681608D01*
X501078Y681641D01*
X501183Y681678D01*
X501286Y681718D01*
X501387Y681763D01*
X501487Y681810D01*
X501586Y681862D01*
X501682Y681917D01*
X501776Y681975D01*
X501868Y682036D01*
X501958Y682101D01*
X502046Y682169D01*
X502131Y682240D01*
X502213Y682314D01*
X502293Y682391D01*
X502370Y682471D01*
X502444Y682553D01*
X502515Y682638D01*
X502583Y682726D01*
X502648Y682816D01*
X502709Y682908D01*
X502767Y683002D01*
X502822Y683098D01*
X502874Y683197D01*
X502921Y683297D01*
X502966Y683398D01*
X503006Y683501D01*
X503043Y683606D01*
X503076Y683712D01*
X503106Y683818D01*
X503131Y683926D01*
X503153Y684035D01*
X503170Y684144D01*
X503184Y684254D01*
X503194Y684365D01*
X503200Y684475D01*
X503202Y684586D01*
X491391Y681482D02*
X491391Y692658D01*
X488287Y692658D01*
X488176Y692656D01*
X488066Y692650D01*
X487955Y692640D01*
X487845Y692626D01*
X487736Y692609D01*
X487627Y692587D01*
X487519Y692562D01*
X487413Y692532D01*
X487307Y692499D01*
X487202Y692462D01*
X487099Y692422D01*
X486998Y692377D01*
X486898Y692330D01*
X486799Y692278D01*
X486703Y692223D01*
X486609Y692165D01*
X486517Y692104D01*
X486427Y692039D01*
X486339Y691971D01*
X486254Y691900D01*
X486172Y691826D01*
X486092Y691749D01*
X486015Y691669D01*
X485941Y691587D01*
X485870Y691502D01*
X485802Y691414D01*
X485737Y691324D01*
X485676Y691232D01*
X485618Y691138D01*
X485563Y691042D01*
X485511Y690943D01*
X485464Y690843D01*
X485419Y690742D01*
X485379Y690639D01*
X485342Y690534D01*
X485309Y690428D01*
X485279Y690322D01*
X485254Y690214D01*
X485232Y690105D01*
X485215Y689996D01*
X485201Y689886D01*
X485191Y689775D01*
X485185Y689665D01*
X485183Y689554D01*
X485182Y689554D02*
X485182Y684586D01*
X485183Y684586D02*
X485185Y684475D01*
X485191Y684365D01*
X485201Y684254D01*
X485215Y684144D01*
X485232Y684035D01*
X485254Y683926D01*
X485279Y683818D01*
X485309Y683712D01*
X485342Y683606D01*
X485379Y683501D01*
X485419Y683398D01*
X485464Y683297D01*
X485511Y683197D01*
X485563Y683098D01*
X485618Y683002D01*
X485676Y682908D01*
X485737Y682816D01*
X485802Y682726D01*
X485870Y682638D01*
X485941Y682553D01*
X486015Y682471D01*
X486092Y682391D01*
X486172Y682314D01*
X486254Y682240D01*
X486339Y682169D01*
X486427Y682101D01*
X486517Y682036D01*
X486609Y681975D01*
X486703Y681917D01*
X486799Y681862D01*
X486898Y681810D01*
X486998Y681763D01*
X487099Y681718D01*
X487202Y681678D01*
X487307Y681641D01*
X487413Y681608D01*
X487519Y681578D01*
X487627Y681553D01*
X487736Y681531D01*
X487845Y681514D01*
X487955Y681500D01*
X488066Y681490D01*
X488176Y681484D01*
X488287Y681482D01*
X491391Y681482D01*
X479171Y681482D02*
X474204Y681482D01*
X479171Y681482D02*
X479171Y692658D01*
X474204Y692658D01*
X475446Y687691D02*
X479171Y687691D01*
M02*
