G04 EAGLE Gerber RS-274X export*
G75*
%MOMM*%
%FSLAX34Y34*%
%LPD*%
%INSoldermask Top*%
%IPPOS*%
%AMOC8*
5,1,8,0,0,1.08239X$1,22.5*%
G01*
%ADD10P,2.556822X8X22.500000*%
%ADD11R,1.503200X1.703200*%
%ADD12P,1.951982X8X22.500000*%
%ADD13C,1.803400*%
%ADD14P,1.951982X8X202.500000*%
%ADD15C,2.203200*%
%ADD16R,2.203200X2.203200*%
%ADD17R,2.403200X0.803200*%
%ADD18R,2.133600X2.133600*%
%ADD19C,2.133600*%
%ADD20R,2.743200X2.743200*%
%ADD21C,2.743200*%
%ADD22R,3.619200X3.619200*%
%ADD23C,3.619200*%
%ADD24R,1.731200X0.853200*%
%ADD25R,1.411200X1.411200*%
%ADD26C,1.411200*%
%ADD27R,1.953200X0.853200*%
%ADD28R,4.019200X4.019200*%
%ADD29C,4.019200*%


D10*
X214630Y736600D03*
D11*
X206400Y228600D03*
X225400Y228600D03*
D12*
X165100Y660400D03*
D13*
X139700Y660400D03*
D11*
X308000Y203200D03*
X327000Y203200D03*
D14*
X203200Y660400D03*
D13*
X228600Y660400D03*
D12*
X381000Y355600D03*
D13*
X355600Y355600D03*
D15*
X254000Y736600D03*
D16*
X330200Y736600D03*
D10*
X393700Y736600D03*
X38100Y673100D03*
X368300Y736600D03*
D17*
X50200Y330200D03*
X102200Y330200D03*
X50200Y342900D03*
X50200Y317500D03*
X50200Y304800D03*
X102200Y342900D03*
X102200Y317500D03*
X102200Y304800D03*
X50200Y279400D03*
X102200Y279400D03*
X50200Y292100D03*
X50200Y266700D03*
X102200Y292100D03*
X102200Y266700D03*
D10*
X203200Y165100D03*
X165100Y165100D03*
X381000Y165100D03*
D11*
X225400Y203200D03*
X206400Y203200D03*
X377800Y279400D03*
X358800Y279400D03*
X257200Y203200D03*
X276200Y203200D03*
X358800Y304800D03*
X377800Y304800D03*
X206400Y254000D03*
X225400Y254000D03*
X358800Y254000D03*
X377800Y254000D03*
X377800Y203200D03*
X358800Y203200D03*
X130200Y609600D03*
X149200Y609600D03*
X308000Y304800D03*
X327000Y304800D03*
X257200Y304800D03*
X276200Y304800D03*
X28600Y584200D03*
X47600Y584200D03*
X47600Y609600D03*
X28600Y609600D03*
X47600Y558800D03*
X28600Y558800D03*
D18*
X381000Y698500D03*
D19*
X381000Y673100D03*
X381000Y647700D03*
D20*
X139700Y711200D03*
D21*
X88900Y711200D03*
X38100Y711200D03*
D10*
X139700Y165100D03*
D22*
X88900Y650240D03*
D23*
X88900Y603250D03*
X88900Y556260D03*
D24*
X201490Y622300D03*
X201490Y609600D03*
X201490Y596900D03*
X201490Y584200D03*
X201490Y571500D03*
X201490Y558800D03*
X201490Y546100D03*
X255710Y546100D03*
X255710Y558800D03*
X255710Y571500D03*
X255710Y584200D03*
X255710Y596900D03*
X255710Y609600D03*
X255710Y622300D03*
D11*
X47600Y635000D03*
X28600Y635000D03*
D25*
X66400Y685800D03*
D26*
X81400Y685800D03*
X96400Y685800D03*
X111400Y685800D03*
D11*
X130200Y558800D03*
X149200Y558800D03*
X130200Y584200D03*
X149200Y584200D03*
D24*
X326780Y619900D03*
X326780Y607200D03*
X326780Y594500D03*
X326780Y581800D03*
X326780Y569100D03*
X326780Y556400D03*
X326780Y543700D03*
X381000Y543700D03*
X381000Y556400D03*
X381000Y569100D03*
X381000Y581800D03*
X381000Y594500D03*
X381000Y607200D03*
X381000Y619900D03*
D17*
X265500Y260350D03*
X317500Y260350D03*
X265500Y273050D03*
X265500Y247650D03*
X265500Y234950D03*
X317500Y273050D03*
X317500Y247650D03*
X317500Y234950D03*
X265570Y361950D03*
X317570Y361950D03*
X265570Y374650D03*
X265570Y349250D03*
X265570Y336550D03*
X317570Y374650D03*
X317570Y349250D03*
X317570Y336550D03*
D11*
X40690Y203200D03*
X59690Y203200D03*
X91490Y203200D03*
X110490Y203200D03*
X40690Y228600D03*
X59690Y228600D03*
X91490Y228600D03*
X110490Y228600D03*
X91490Y406400D03*
X110490Y406400D03*
X41960Y406400D03*
X60960Y406400D03*
X60910Y381000D03*
X41910Y381000D03*
X110440Y381000D03*
X91440Y381000D03*
X161240Y381000D03*
X142240Y381000D03*
X142290Y406400D03*
X161290Y406400D03*
X161240Y330200D03*
X142240Y330200D03*
X142290Y355600D03*
X161290Y355600D03*
X142290Y304800D03*
X161290Y304800D03*
X161240Y254000D03*
X142240Y254000D03*
X161240Y228600D03*
X142240Y228600D03*
X142290Y279400D03*
X161290Y279400D03*
D17*
X487750Y330200D03*
X539750Y330200D03*
X487750Y342900D03*
X487750Y317500D03*
X487750Y304800D03*
X539750Y342900D03*
X539750Y317500D03*
X539750Y304800D03*
X487750Y279400D03*
X539750Y279400D03*
X487750Y292100D03*
X487750Y266700D03*
X539750Y292100D03*
X539750Y266700D03*
D11*
X440640Y254000D03*
X421640Y254000D03*
X421690Y228600D03*
X440690Y228600D03*
X440640Y304800D03*
X421640Y304800D03*
X441910Y330200D03*
X422910Y330200D03*
X421690Y279400D03*
X440690Y279400D03*
X421690Y381000D03*
X440690Y381000D03*
X441910Y355600D03*
X422910Y355600D03*
X441910Y406400D03*
X422910Y406400D03*
X492710Y406400D03*
X473710Y406400D03*
X472490Y381000D03*
X491490Y381000D03*
X523290Y381000D03*
X542290Y381000D03*
X543510Y406400D03*
X524510Y406400D03*
X491440Y203200D03*
X472440Y203200D03*
X523290Y203200D03*
X542290Y203200D03*
X542240Y228600D03*
X523240Y228600D03*
X472490Y228600D03*
X491490Y228600D03*
X207060Y279400D03*
X226060Y279400D03*
X256590Y406400D03*
X275590Y406400D03*
D20*
X342900Y457200D03*
D21*
X292100Y457200D03*
X241300Y457200D03*
D20*
X342900Y508000D03*
D21*
X292100Y508000D03*
X241300Y508000D03*
D11*
X308660Y406400D03*
X327660Y406400D03*
X226010Y381000D03*
X207010Y381000D03*
X207060Y406400D03*
X226060Y406400D03*
X226010Y304800D03*
X207010Y304800D03*
X207060Y330200D03*
X226060Y330200D03*
X362000Y406400D03*
X381000Y406400D03*
X226010Y355600D03*
X207010Y355600D03*
D20*
X546100Y711200D03*
D21*
X495300Y711200D03*
X444500Y711200D03*
D11*
X359460Y228600D03*
X378460Y228600D03*
D27*
X255850Y692150D03*
X255850Y679450D03*
X255850Y666750D03*
X255850Y654050D03*
X328350Y654050D03*
X328350Y666750D03*
X328350Y679450D03*
X328350Y692150D03*
D11*
X441300Y203200D03*
X422300Y203200D03*
D28*
X444500Y654050D03*
D29*
X444500Y603250D03*
X444500Y552450D03*
X495300Y654050D03*
X495300Y603250D03*
X495300Y552450D03*
X546100Y654050D03*
X546100Y603250D03*
X546100Y552450D03*
M02*
