M48
;GenerationSoftware,Autodesk,EAGLE,9.6.2*%
;CreationDate,2022-12-21T17:42:03Z*%
FMAT,2
ICI,OFF
METRIC,TZ,000.000
T9C0.350
T8C0.700
T7C0.813
T6C1.000
T5C1.016
T4C1.100
T3C1.400
T2C2.400
T1C2.800
%
G90
M71
T1
X49530Y55245
X49530Y60325
X44450Y55245
X44450Y60325
X44450Y65405
X49530Y65405
X54610Y55245
X54610Y65405
X54610Y60325
T2
X8890Y55626
X8890Y60325
X8890Y65024
T3
X3810Y71120
X49530Y71120
X44450Y71120
X54610Y71120
X24130Y50800
X34290Y50800
X24130Y45720
X29210Y45720
X34290Y45720
X13970Y71120
X8890Y71120
X29210Y50800
T4
X38100Y69850
X38100Y67310
X38100Y64770
T5
X16510Y16510
X20320Y16510
X36830Y73660
X3810Y67310
X21463Y73660
X39370Y73660
X13970Y16510
X38100Y16510
T6
X33020Y73660
X25400Y73660
T7
X20320Y66040
X35560Y35560
X38100Y35560
X13970Y66040
X16510Y66040
X22860Y66040
T8
X8140Y68580
X9640Y68580
X11140Y68580
X6640Y68580
T9
X45667Y35621
X55880Y33020
X52070Y57150
X46990Y50800
X50800Y43180
X51986Y36068
X40400Y54370
X26162Y43180
X27051Y57150
X11490Y35560
X34290Y29210
X12959Y26670
X29210Y36195
X29210Y39370
X45720Y22860
X54610Y46990
X45720Y52070
X20320Y53340
X33020Y53340
X24638Y22464
X28829Y33655
X17780Y31750
X7620Y30480
X25527Y63627
X39370Y19050
X13970Y20320
X52070Y25400
X26633Y29173
X2540Y53340
X21590Y59690
X24130Y57150
X29083Y59436
X34417Y59436
X36322Y56896
X10160Y24638
X5334Y36576
X12573Y31750
X29210Y30480
X50800Y21590
X50800Y17780
X29210Y24130
X29210Y19050
X21579Y39373
X50800Y29210
X52070Y31750
X54229Y36449
X17780Y21590
X41145Y34290
X27178Y62230
X2540Y30480
X7620Y41910
X50800Y30480
X34290Y31750
X33531Y37465
X30091Y25400
X33782Y26035
X34130Y21750
X18415Y68072
X6350Y44450
X7112Y29210
X7620Y44450
X38100Y45720
X45763Y31793
X38100Y43180
M30